<?xml version="1.0" standalone="no"?>
<!DOCTYPE svg PUBLIC "-//W3C//DTD SVG 1.1//EN" "http://www.w3.org/Graphics/SVG/1.1/DTD/svg11.dtd" >
<svg xmlns="http://www.w3.org/2000/svg" xmlns:xlink="http://www.w3.org/1999/xlink" version="1.1">
<metadata>
Created by FontForge 20201107 at Sat Jul 17 10:38:01 2021
 By Jimmy Wärting
Copyright 2017-2021 Indian Type Foundry. All rights reserved.
</metadata>
<defs>
<font id="Satoshi-Bold" horiz-adv-x="660" >
  <font-face 
    font-family="Satoshi"
    font-weight="700"
    font-stretch="normal"
    units-per-em="1000"
    panose-1="0 0 0 0 0 0 0 0 0 0"
    ascent="800"
    descent="-200"
    x-height="494"
    cap-height="731"
    bbox="-204 -244 1594 1090"
    underline-thickness="80"
    underline-position="-235"
    stemh="104"
    stemv="120"
    unicode-range="U+0020-FB04"
  />
<missing-glyph horiz-adv-x="500" 
d="M50 -229v1096h400v-1096h-400zM100 -179h300v996h-300v-996z" />
    <glyph glyph-name="f_f" unicode="ff" horiz-adv-x="662" 
d="M14 494h71v60c0 134 70 190 177 190c19 0 42 -1 63 -5v-104h-43c-62 0 -76 -32 -76 -81v-60h202v60c0 134 70 190 177 190c20 0 42 -1 63 -5v-104h-42c-62 0 -77 -32 -77 -81v-60h118v-102h-118v-392h-121v392h-202v-392h-121v392h-71v102z" />
    <glyph glyph-name="f_f_i" unicode="ffi" horiz-adv-x="916" 
d="M14 494h71v60c0 134 70 190 177 190c19 0 42 -1 63 -5v-104h-43c-62 0 -76 -32 -76 -81v-60h202v60c0 134 70 190 170 190c20 0 42 -1 63 -5v-104h-42c-55 0 -70 -32 -70 -81v-60h324v-494h-122v392h-202v-392h-121v392h-202v-392h-121v392h-71v102zM792 598
c-41 0 -72 32 -72 73s31 73 72 73s73 -32 73 -73s-32 -73 -73 -73z" />
    <glyph glyph-name="f_f_l" unicode="ffl" horiz-adv-x="913" 
d="M14 494h71v60c0 134 70 190 177 190c19 0 42 -1 63 -5v-104h-43c-62 0 -76 -32 -76 -81v-60h202v60c0 134 70 190 177 190c20 0 42 -1 63 -5v-104h-42c-62 0 -77 -32 -77 -81v-60h198v250h121v-744h-121v392h-198v-392h-121v392h-202v-392h-121v392h-71v102z" />
    <glyph glyph-name="f_t" unicode="ft" horiz-adv-x="645" 
d="M14 494h71v60c0 134 70 190 170 190c19 0 42 -1 63 -5v-104h-43c-55 0 -69 -32 -69 -81v-60h208v154h122v-154h96v-102h-96v-392h-122v392h-208v-392h-121v392h-71v102z" />
    <glyph glyph-name="fi" unicode="fi" horiz-adv-x="593" 
d="M408 0v392h-202v-392h-121v392h-71v102h71v60c0 134 70 190 170 190c19 0 42 -1 63 -5v-104h-43c-55 0 -69 -32 -69 -81v-60h324v-494h-122zM469 595c-41 0 -73 32 -73 73c0 40 32 72 73 72c40 0 72 -32 72 -72c0 -41 -32 -73 -72 -73z" />
    <glyph glyph-name="fl" unicode="fl" horiz-adv-x="590" 
d="M14 494h71v60c0 134 68 190 168 190c19 0 42 -1 63 -5v-104h-43c-55 0 -67 -32 -67 -81v-60h197v250h122v-744h-122v392h-197v-392h-121v392h-71v102z" />
    <glyph glyph-name=".notdef" horiz-adv-x="500" 
d="M50 -229v1096h400v-1096h-400zM100 -179h300v996h-300v-996z" />
    <glyph glyph-name="A" unicode="A" horiz-adv-x="681" 
d="M144 0h-133l264 731h131l264 -731h-135l-59 169h-273zM324 513l-83 -236h198l-84 236c-6 19 -13 41 -15 56c-3 -14 -9 -36 -16 -56z" />
    <glyph glyph-name="Aacute" unicode="&#xc1;" horiz-adv-x="681" 
d="M485 931l-98 -148h-90l75 148h113zM144 0h-133l264 731h131l264 -731h-135l-59 169h-273zM324 513l-83 -236h198l-84 236c-6 19 -13 41 -15 56c-3 -14 -9 -36 -16 -56z" />
    <glyph glyph-name="Abreve" unicode="&#x102;" horiz-adv-x="681" 
d="M410 933h88c0 -97 -61 -158 -156 -158c-96 0 -157 61 -157 158h89c0 -48 24 -75 68 -75s68 28 68 75zM144 0h-133l264 731h131l264 -731h-135l-59 169h-273zM324 513l-83 -236h198l-84 236c-6 19 -13 41 -15 56c-3 -14 -9 -36 -16 -56z" />
    <glyph glyph-name="Acircumflex" unicode="&#xc2;" horiz-adv-x="681" 
d="M284 783h-95l90 156h125l90 -156h-95l-57 99zM144 0h-133l264 731h131l264 -731h-135l-59 169h-273zM324 513l-83 -236h198l-84 236c-6 19 -13 41 -15 56c-3 -14 -9 -36 -16 -56z" />
    <glyph glyph-name="Adieresis" unicode="&#xc4;" horiz-adv-x="681" 
d="M253 795c-37 0 -67 30 -67 67c0 36 30 67 67 67c36 0 66 -31 66 -67c0 -37 -30 -67 -66 -67zM431 795c-37 0 -67 30 -67 67c0 36 31 67 67 67s66 -31 66 -67c0 -37 -30 -67 -66 -67zM144 0h-133l264 731h131l264 -731h-135l-59 169h-273zM324 513l-83 -236h198l-84 236
c-6 19 -13 41 -15 56c-3 -14 -9 -36 -16 -56z" />
    <glyph glyph-name="Agrave" unicode="&#xc0;" horiz-adv-x="681" 
d="M386 783h-91l-97 149h113zM144 0h-133l264 731h131l264 -731h-135l-59 169h-273zM324 513l-83 -236h198l-84 236c-6 19 -13 41 -15 56c-3 -14 -9 -36 -16 -56z" />
    <glyph glyph-name="Amacron" unicode="&#x100;" horiz-adv-x="681" 
d="M208 820v86h268v-86h-268zM144 0h-133l264 731h131l264 -731h-135l-59 169h-273zM324 513l-83 -236h198l-84 236c-6 19 -13 41 -15 56c-3 -14 -9 -36 -16 -56z" />
    <glyph glyph-name="Aogonek" unicode="&#x104;" horiz-adv-x="681" 
d="M144 0h-133l264 731h131l264 -731c-50 -18 -72 -49 -72 -75c0 -22 16 -37 40 -37c8 0 17 2 27 6v-81c-16 -7 -32 -9 -51 -9c-60 0 -99 42 -99 93c0 41 26 82 80 103h-60l-59 169h-273zM324 513l-83 -236h198l-84 236c-6 19 -13 41 -15 56c-3 -14 -9 -36 -16 -56z" />
    <glyph glyph-name="Aring" unicode="&#xc5;" horiz-adv-x="681" 
d="M342 771c-75 0 -129 53 -129 127c0 73 56 128 129 128s128 -56 128 -128s-55 -127 -128 -127zM342 837c35 0 58 25 58 63c0 35 -24 60 -58 60c-35 0 -59 -24 -59 -60c0 -38 23 -63 59 -63zM144 0h-133l264 731h131l264 -731h-135l-59 169h-273zM324 513l-83 -236h198
l-84 236c-6 19 -13 41 -15 56c-3 -14 -9 -36 -16 -56z" />
    <glyph glyph-name="Aringacute" unicode="&#x1fa;" horiz-adv-x="681" 
d="M486 1090l-97 -148h-91l75 148h113zM144 0h-133l250 693c-30 22 -48 58 -48 101c0 73 56 128 128 128c73 0 129 -56 129 -128c0 -42 -19 -79 -50 -102l250 -692h-135l-59 169h-273zM341 733c36 0 59 25 59 63c0 35 -24 60 -59 60c-34 0 -58 -24 -58 -60
c0 -38 23 -63 58 -63zM324 513l-83 -236h198l-84 236c-6 19 -13 41 -15 56c-3 -14 -9 -36 -16 -56z" />
    <glyph glyph-name="Atilde" unicode="&#xc3;" horiz-adv-x="681" 
d="M243 791h-72c-9 86 29 141 92 141c66 0 100 -59 142 -59c25 0 35 23 35 59h72c8 -95 -31 -141 -95 -141c-69 0 -104 59 -140 59c-24 0 -34 -22 -34 -59zM144 0h-133l264 731h131l264 -731h-135l-59 169h-273zM324 513l-83 -236h198l-84 236c-6 19 -13 41 -15 56
c-3 -14 -9 -36 -16 -56z" />
    <glyph glyph-name="AE" unicode="&#xc6;" horiz-adv-x="940" 
d="M6 0l294 731h583v-118h-326v-188h292v-113h-292v-194h326v-118h-453v182h-210l-70 -182h-144zM261 290h169v323h-44z" />
    <glyph glyph-name="AEacute" unicode="&#x1fc;" horiz-adv-x="940" 
d="M709 931l-97 -148h-91l75 148h113zM6 0l294 731h583v-118h-326v-188h292v-113h-292v-194h326v-118h-453v182h-210l-70 -182h-144zM261 290h169v323h-44z" />
    <glyph glyph-name="B" unicode="B" horiz-adv-x="651" 
d="M81 0v731h291c144 0 232 -75 232 -197c0 -81 -36 -139 -105 -168c77 -25 116 -83 116 -168c0 -125 -87 -198 -238 -198h-296zM361 618h-152v-199h155c70 0 109 37 109 102c0 63 -40 97 -112 97zM372 311h-163v-198h163c72 0 112 35 112 101c0 62 -41 97 -112 97z" />
    <glyph glyph-name="C" unicode="C" horiz-adv-x="759" 
d="M390 -12c-213 0 -351 148 -351 377c0 227 143 378 357 378c173 0 302 -101 327 -258h-135c-25 85 -98 135 -195 135c-135 0 -220 -98 -220 -254c0 -155 86 -255 220 -255c99 0 175 52 199 133h133c-28 -154 -162 -256 -335 -256z" />
    <glyph glyph-name="Cacute" unicode="&#x106;" horiz-adv-x="759" 
d="M538 931l-98 -148h-90l75 148h113zM390 -12c-213 0 -351 148 -351 377c0 227 143 378 357 378c173 0 302 -101 327 -258h-135c-25 85 -98 135 -195 135c-135 0 -220 -98 -220 -254c0 -155 86 -255 220 -255c99 0 175 52 199 133h133c-28 -154 -162 -256 -335 -256z" />
    <glyph glyph-name="Ccaron" unicode="&#x10c;" horiz-adv-x="759" 
d="M332 783l-90 156h95l58 -99l57 99h95l-90 -156h-125zM390 -12c-213 0 -351 148 -351 377c0 227 143 378 357 378c173 0 302 -101 327 -258h-135c-25 85 -98 135 -195 135c-135 0 -220 -98 -220 -254c0 -155 86 -255 220 -255c99 0 175 52 199 133h133
c-28 -154 -162 -256 -335 -256z" />
    <glyph glyph-name="Ccedilla" unicode="&#xc7;" horiz-adv-x="759" 
d="M317 -196v56c23 -11 42 -18 67 -18c34 0 53 15 53 38c0 22 -16 34 -43 34c-19 0 -33 -3 -49 -9l-12 34l24 50c-194 15 -318 159 -318 376c0 227 143 378 357 378c173 0 302 -101 327 -258h-135c-25 85 -98 135 -195 135c-135 0 -220 -98 -220 -254
c0 -155 86 -255 220 -255c99 0 175 52 199 133h133c-27 -149 -153 -249 -317 -256l-17 -34c10 3 21 5 33 5c39 0 80 -23 80 -78c0 -62 -51 -94 -113 -94c-31 0 -53 6 -74 17z" />
    <glyph glyph-name="Ccircumflex" unicode="&#x108;" horiz-adv-x="759" 
d="M338 783h-96l90 156h125l91 -156h-96l-57 99zM390 -12c-213 0 -351 148 -351 377c0 227 143 378 357 378c173 0 302 -101 327 -258h-135c-25 85 -98 135 -195 135c-135 0 -220 -98 -220 -254c0 -155 86 -255 220 -255c99 0 175 52 199 133h133
c-28 -154 -162 -256 -335 -256z" />
    <glyph glyph-name="Cdotaccent" unicode="&#x10a;" horiz-adv-x="759" 
d="M394 795c-39 0 -69 31 -69 70c0 38 31 70 69 70s70 -33 70 -70c0 -38 -32 -70 -70 -70zM390 -12c-213 0 -351 148 -351 377c0 227 143 378 357 378c173 0 302 -101 327 -258h-135c-25 85 -98 135 -195 135c-135 0 -220 -98 -220 -254c0 -155 86 -255 220 -255
c99 0 175 52 199 133h133c-28 -154 -162 -256 -335 -256z" />
    <glyph glyph-name="D" unicode="D" horiz-adv-x="740" 
d="M344 0h-263v731h256c216 0 365 -149 365 -367c0 -215 -146 -364 -358 -364zM325 613h-116v-495h123c146 0 235 94 235 246c0 155 -91 249 -242 249z" />
    <glyph glyph-name="Eth" unicode="&#xd0;" horiz-adv-x="740" 
d="M13 313v105h68v313h256c216 0 365 -149 365 -367c0 -215 -146 -364 -358 -364h-263v313h-68zM357 313h-148v-195h123c146 0 235 94 235 246c0 155 -91 249 -242 249h-116v-195h148v-105z" />
    <glyph glyph-name="Dcaron" unicode="&#x10e;" horiz-adv-x="740" 
d="M259 783l-91 155h96l57 -98l57 98h96l-91 -155h-124zM344 0h-263v731h256c216 0 365 -149 365 -367c0 -215 -146 -364 -358 -364zM325 613h-116v-495h123c146 0 235 94 235 246c0 155 -91 249 -242 249z" />
    <glyph glyph-name="Dcroat" unicode="&#x110;" horiz-adv-x="740" 
d="M13 313v105h68v313h256c216 0 365 -149 365 -367c0 -215 -146 -364 -358 -364h-263v313h-68zM357 313h-148v-195h123c146 0 235 94 235 246c0 155 -91 249 -242 249h-116v-195h148v-105z" />
    <glyph glyph-name="E" unicode="E" horiz-adv-x="593" 
d="M535 0h-454v731h454v-118h-326v-188h292v-113h-292v-194h326v-118z" />
    <glyph glyph-name="Eacute" unicode="&#xc9;" horiz-adv-x="593" 
d="M450 931l-98 -148h-91l75 148h114zM535 0h-454v731h454v-118h-326v-188h292v-113h-292v-194h326v-118z" />
    <glyph glyph-name="Ebreve" unicode="&#x114;" horiz-adv-x="593" 
d="M374 933h88c0 -97 -61 -158 -155 -158c-97 0 -157 61 -157 158h89c0 -48 24 -75 68 -75c43 0 67 28 67 75zM535 0h-454v731h454v-118h-326v-188h292v-113h-292v-194h326v-118z" />
    <glyph glyph-name="Ecaron" unicode="&#x11a;" horiz-adv-x="593" 
d="M243 783l-90 156h96l57 -99l57 99h96l-91 -156h-125zM535 0h-454v731h454v-118h-326v-188h292v-113h-292v-194h326v-118z" />
    <glyph glyph-name="Ecircumflex" unicode="&#xca;" horiz-adv-x="593" 
d="M249 783h-96l90 156h125l91 -156h-96l-57 99zM535 0h-454v731h454v-118h-326v-188h292v-113h-292v-194h326v-118z" />
    <glyph glyph-name="Edieresis" unicode="&#xcb;" horiz-adv-x="593" 
d="M217 795c-37 0 -67 30 -67 67c0 36 31 67 67 67s66 -31 66 -67c0 -37 -30 -67 -66 -67zM395 795c-37 0 -66 30 -66 67c0 36 30 67 66 67s67 -31 67 -67c0 -37 -31 -67 -67 -67zM535 0h-454v731h454v-118h-326v-188h292v-113h-292v-194h326v-118z" />
    <glyph glyph-name="Edotaccent" unicode="&#x116;" horiz-adv-x="593" 
d="M305 795c-38 0 -69 31 -69 70c0 38 32 70 69 70c38 0 70 -33 70 -70c0 -38 -32 -70 -70 -70zM535 0h-454v731h454v-118h-326v-188h292v-113h-292v-194h326v-118z" />
    <glyph glyph-name="Egrave" unicode="&#xc8;" horiz-adv-x="593" 
d="M350 783h-90l-98 149h114zM535 0h-454v731h454v-118h-326v-188h292v-113h-292v-194h326v-118z" />
    <glyph glyph-name="Emacron" unicode="&#x112;" horiz-adv-x="593" 
d="M172 820v86h268v-86h-268zM535 0h-454v731h454v-118h-326v-188h292v-113h-292v-194h326v-118z" />
    <glyph glyph-name="Eogonek" unicode="&#x118;" horiz-adv-x="593" 
d="M460 0h-379v731h454v-118h-326v-188h292v-113h-292v-194h326v-118c-50 -18 -72 -49 -72 -75c0 -22 16 -37 40 -37c8 0 17 2 27 6v-81c-16 -7 -32 -9 -51 -9c-60 0 -99 42 -99 93c0 41 26 82 80 103z" />
    <glyph glyph-name="F" unicode="F" horiz-adv-x="567" 
d="M481 299h-272v-299h-128v731h452v-118h-324v-199h272v-115z" />
    <glyph glyph-name="G" unicode="G" horiz-adv-x="782" 
d="M401 623c-145 0 -228 -105 -228 -263c0 -163 94 -252 229 -252c127 0 204 70 204 187v3h-221v113h340v-411h-108l-8 84c-40 -56 -123 -95 -222 -95c-205 0 -348 149 -348 374c0 222 145 380 365 380c167 0 296 -97 317 -246h-135c-23 86 -97 126 -185 126z" />
    <glyph glyph-name="Gbreve" unicode="&#x11e;" horiz-adv-x="782" 
d="M472 933h88c0 -96 -61 -157 -156 -157c-97 0 -157 60 -157 157h89c0 -48 24 -75 68 -75c43 0 68 28 68 75zM401 623c-145 0 -228 -105 -228 -263c0 -163 94 -252 229 -252c127 0 204 70 204 187v3h-221v113h340v-411h-108l-8 84c-40 -56 -123 -95 -222 -95
c-205 0 -348 149 -348 374c0 222 145 380 365 380c167 0 296 -97 317 -246h-135c-23 86 -97 126 -185 126z" />
    <glyph glyph-name="Gcircumflex" unicode="&#x11c;" horiz-adv-x="782" 
d="M346 784h-95l90 155h125l90 -155h-96l-57 98zM401 623c-145 0 -228 -105 -228 -263c0 -163 94 -252 229 -252c127 0 204 70 204 187v3h-221v113h340v-411h-108l-8 84c-40 -56 -123 -95 -222 -95c-205 0 -348 149 -348 374c0 222 145 380 365 380c167 0 296 -97 317 -246
h-135c-23 86 -97 126 -185 126z" />
    <glyph glyph-name="Gcommaaccent" unicode="&#x122;" horiz-adv-x="782" 
d="M401 623c-145 0 -228 -105 -228 -263c0 -163 94 -252 229 -252c127 0 204 70 204 187v3h-221v113h340v-411h-108l-8 84c-40 -56 -123 -95 -222 -95c-205 0 -348 149 -348 374c0 222 145 380 365 380c167 0 296 -97 317 -246h-135c-23 86 -97 126 -185 126zM450 -113
c0 -70 -45 -121 -120 -112v40c43 -4 67 9 69 39c-7 -4 -15 -6 -24 -6c-32 0 -55 25 -55 57c0 36 26 60 64 60c40 0 66 -30 66 -78z" />
    <glyph glyph-name="Gdotaccent" unicode="&#x120;" horiz-adv-x="782" 
d="M403 795c-39 0 -70 31 -70 70c0 38 32 70 70 70s70 -32 70 -70s-32 -70 -70 -70zM401 623c-145 0 -228 -105 -228 -263c0 -163 94 -252 229 -252c127 0 204 70 204 187v3h-221v113h340v-411h-108l-8 84c-40 -56 -123 -95 -222 -95c-205 0 -348 149 -348 374
c0 222 145 380 365 380c167 0 296 -97 317 -246h-135c-23 86 -97 126 -185 126z" />
    <glyph glyph-name="H" unicode="H" horiz-adv-x="742" 
d="M209 0h-128v731h128v-302h324v302h128v-731h-128v310h-324v-310z" />
    <glyph glyph-name="Hbar" unicode="&#x126;" horiz-adv-x="742" 
d="M209 0h-128v534h-78v109h78v88h128v-88h324v88h128v-88h79v-109h-79v-534h-128v310h-324v-310zM209 429h324v105h-324v-105z" />
    <glyph glyph-name="I" unicode="I" horiz-adv-x="290" 
d="M209 731v-731h-128v731h128z" />
    <glyph glyph-name="Iacute" unicode="&#xcd;" horiz-adv-x="290" 
d="M288 931l-97 -148h-91l75 148h113zM209 731v-731h-128v731h128z" />
    <glyph glyph-name="Icircumflex" unicode="&#xce;" horiz-adv-x="290" 
d="M88 783h-96l90 156h125l90 -156h-95l-57 99zM209 731v-731h-128v731h128z" />
    <glyph glyph-name="Idieresis" unicode="&#xcf;" horiz-adv-x="290" 
d="M56 795c-37 0 -67 30 -67 67c0 36 30 67 67 67c36 0 66 -31 66 -67c0 -37 -30 -67 -66 -67zM234 795c-37 0 -67 30 -67 67c0 36 31 67 67 67s66 -31 66 -67c0 -37 -30 -67 -66 -67zM209 731v-731h-128v731h128z" />
    <glyph glyph-name="Idotaccent" unicode="&#x130;" horiz-adv-x="290" 
d="M144 795c-38 0 -69 31 -69 70c0 38 31 70 69 70s70 -33 70 -70c0 -38 -32 -70 -70 -70zM209 731v-731h-128v731h128z" />
    <glyph glyph-name="Igrave" unicode="&#xcc;" horiz-adv-x="290" 
d="M189 783h-91l-97 149h113zM209 731v-731h-128v731h128z" />
    <glyph glyph-name="Imacron" unicode="&#x12a;" horiz-adv-x="290" 
d="M11 820v86h268v-86h-268zM209 731v-731h-128v731h128z" />
    <glyph glyph-name="Iogonek" unicode="&#x12e;" horiz-adv-x="290" 
d="M133 0h-52v731h128v-731h-1c-50 -18 -71 -49 -71 -75c0 -22 15 -37 39 -37c8 0 17 2 27 6v-81c-15 -7 -31 -9 -50 -9c-61 0 -99 42 -99 93c0 41 25 82 79 103z" />
    <glyph glyph-name="Itilde" unicode="&#x128;" horiz-adv-x="290" 
d="M46 791h-72c-9 86 29 141 92 141c66 0 100 -59 142 -59c25 0 35 23 35 59h72c8 -95 -31 -141 -95 -141c-69 0 -103 59 -140 59c-24 0 -34 -22 -34 -59zM209 731v-731h-128v731h128z" />
    <glyph glyph-name="J" unicode="J" horiz-adv-x="552" 
d="M20 206v43h123v-43c0 -56 31 -100 103 -100s102 41 102 105v520h128v-527c0 -129 -90 -217 -229 -217c-150 0 -227 93 -227 219z" />
    <glyph glyph-name="Jcircumflex" unicode="&#x134;" horiz-adv-x="552" 
d="M354 784h-95l90 155h125l90 -155h-95l-57 98zM20 206v43h123v-43c0 -56 31 -100 103 -100s102 41 102 105v520h128v-527c0 -129 -90 -217 -229 -217c-150 0 -227 93 -227 219z" />
    <glyph glyph-name="K" unicode="K" horiz-adv-x="674" 
d="M209 731v-384l296 384h151l-242 -312l245 -419h-148l-181 311l-121 -155v-156h-128v731h128z" />
    <glyph glyph-name="Kcommaaccent" unicode="&#x136;" horiz-adv-x="674" 
d="M209 731v-384l296 384h151l-242 -312l245 -419h-148l-181 311l-121 -155v-156h-128v731h128zM415 -113c0 -70 -45 -121 -121 -112v40c44 -4 66 9 69 38c-7 -3 -14 -5 -23 -5c-32 0 -55 25 -55 57c0 36 26 60 63 60c41 0 67 -30 67 -78z" />
    <glyph glyph-name="L" unicode="L" horiz-adv-x="538" 
d="M209 731v-613h306v-118h-434v731h128z" />
    <glyph glyph-name="Lacute" unicode="&#x139;" horiz-adv-x="538" 
d="M289 917l-98 -148h-90l75 148h113zM209 731v-613h306v-118h-434v731h128z" />
    <glyph glyph-name="Lcaron" unicode="&#x13d;" horiz-adv-x="538" 
d="M209 731v-613h306v-118h-434v731h128zM259 550v181h101l-27 -181h-74z" />
    <glyph glyph-name="Lcommaaccent" unicode="&#x13b;" horiz-adv-x="538" 
d="M209 731v-613h306v-118h-434v731h128zM367 -113c0 -70 -45 -121 -121 -112v40c44 -4 67 9 69 39c-7 -4 -15 -6 -23 -6c-32 0 -55 25 -55 57c0 36 26 60 63 60c40 0 67 -30 67 -78z" />
    <glyph glyph-name="Ldot" unicode="&#x13f;" horiz-adv-x="538" 
d="M209 731v-613h306v-118h-434v731h128zM357 294c-37 0 -70 32 -70 69c0 38 32 69 70 69s69 -32 69 -69s-31 -69 -69 -69z" />
    <glyph glyph-name="Lslash" unicode="&#x141;" horiz-adv-x="538" 
d="M16 248v99l65 31v353h128v-292l144 69v-99l-144 -69v-222h306v-118h-434v279z" />
    <glyph glyph-name="M" unicode="M" horiz-adv-x="884" 
d="M205 0h-124v731h124l236 -582l236 582h126v-731h-124v225c0 147 0 190 7 242l-186 -467h-118l-185 466c7 -44 8 -113 8 -204v-262z" />
    <glyph glyph-name="N" unicode="N" horiz-adv-x="758" 
d="M207 0h-126v731h127l343 -518v518h126v-731h-126l-344 518v-518z" />
    <glyph glyph-name="Nacute" unicode="&#x143;" horiz-adv-x="758" 
d="M526 931l-98 -148h-90l75 148h113zM207 0h-126v731h127l343 -518v518h126v-731h-126l-344 518v-518z" />
    <glyph glyph-name="Ncaron" unicode="&#x147;" horiz-adv-x="758" 
d="M320 783l-90 156h95l58 -99l57 99h95l-90 -156h-125zM207 0h-126v731h127l343 -518v518h126v-731h-126l-344 518v-518z" />
    <glyph glyph-name="Ncommaaccent" unicode="&#x145;" horiz-adv-x="758" 
d="M207 0h-126v731h127l343 -518v518h126v-731h-126l-344 518v-518zM448 -113c0 -70 -45 -121 -121 -112v40c44 -4 67 9 69 39c-7 -4 -15 -6 -23 -6c-33 0 -55 25 -55 57c0 36 26 60 63 60c40 0 67 -30 67 -78z" />
    <glyph glyph-name="Eng" unicode="&#x14a;" horiz-adv-x="758" 
d="M510 -243c-30 0 -58 3 -90 13l21 108c17 -5 36 -8 51 -8c43 0 64 24 64 74v49l-349 525v-518h-126v731h127l343 -518v518h126v-801c0 -105 -60 -173 -167 -173z" />
    <glyph glyph-name="Ntilde" unicode="&#xd1;" horiz-adv-x="758" 
d="M284 791h-72c-9 86 29 141 92 141c66 0 100 -59 142 -59c25 0 35 23 35 59h72c8 -95 -31 -141 -95 -141c-69 0 -104 59 -140 59c-24 0 -34 -22 -34 -59zM207 0h-126v731h127l343 -518v518h126v-731h-126l-344 518v-518z" />
    <glyph glyph-name="O" unicode="O" horiz-adv-x="786" 
d="M748 366c0 -222 -146 -378 -356 -378c-209 0 -353 155 -353 378c0 222 145 378 354 378s355 -155 355 -378zM613 366c0 156 -86 255 -220 255s-220 -99 -220 -255s86 -255 220 -255s220 101 220 255z" />
    <glyph glyph-name="Oacute" unicode="&#xd3;" horiz-adv-x="786" 
d="M537 931l-98 -148h-90l75 148h113zM748 366c0 -222 -146 -378 -356 -378c-209 0 -353 155 -353 378c0 222 145 378 354 378s355 -155 355 -378zM613 366c0 156 -86 255 -220 255s-220 -99 -220 -255s86 -255 220 -255s220 101 220 255z" />
    <glyph glyph-name="Ocircumflex" unicode="&#xd4;" horiz-adv-x="786" 
d="M336 783h-96l91 156h125l90 -156h-96l-57 99zM748 366c0 -222 -146 -378 -356 -378c-209 0 -353 155 -353 378c0 222 145 378 354 378s355 -155 355 -378zM613 366c0 156 -86 255 -220 255s-220 -99 -220 -255s86 -255 220 -255s220 101 220 255z" />
    <glyph glyph-name="Odieresis" unicode="&#xd6;" horiz-adv-x="786" 
d="M304 795c-37 0 -66 30 -66 67c0 36 30 67 66 67s67 -31 67 -67c0 -37 -31 -67 -67 -67zM482 795c-37 0 -66 30 -66 67c0 36 30 67 66 67s67 -31 67 -67c0 -37 -31 -67 -67 -67zM748 366c0 -222 -146 -378 -356 -378c-209 0 -353 155 -353 378c0 222 145 378 354 378
s355 -155 355 -378zM613 366c0 156 -86 255 -220 255s-220 -99 -220 -255s86 -255 220 -255s220 101 220 255z" />
    <glyph glyph-name="Ograve" unicode="&#xd2;" horiz-adv-x="786" 
d="M437 783h-90l-97 149h113zM748 366c0 -222 -146 -378 -356 -378c-209 0 -353 155 -353 378c0 222 145 378 354 378s355 -155 355 -378zM613 366c0 156 -86 255 -220 255s-220 -99 -220 -255s86 -255 220 -255s220 101 220 255z" />
    <glyph glyph-name="Ohungarumlaut" unicode="&#x150;" horiz-adv-x="786" 
d="M463 931l-98 -148h-86l82 148h102zM617 931l-103 -148h-86l86 148h103zM748 366c0 -222 -146 -378 -356 -378c-209 0 -353 155 -353 378c0 222 145 378 354 378s355 -155 355 -378zM613 366c0 156 -86 255 -220 255s-220 -99 -220 -255s86 -255 220 -255s220 101 220 255
z" />
    <glyph glyph-name="Omacron" unicode="&#x14c;" horiz-adv-x="786" 
d="M259 820v86h268v-86h-268zM748 366c0 -222 -146 -378 -356 -378c-209 0 -353 155 -353 378c0 222 145 378 354 378s355 -155 355 -378zM613 366c0 156 -86 255 -220 255s-220 -99 -220 -255s86 -255 220 -255s220 101 220 255z" />
    <glyph glyph-name="Oslash" unicode="&#xd8;" horiz-adv-x="786" 
d="M748 366c0 -222 -146 -378 -356 -378c-70 0 -133 17 -185 49l-27 -36h-122l74 98c-59 66 -93 159 -93 267c0 222 145 378 354 378c72 0 136 -18 189 -51l30 39h117l-75 -99c60 -67 94 -159 94 -267zM173 366c0 -64 14 -118 41 -160l292 386c-32 19 -70 29 -113 29
c-134 0 -220 -99 -220 -255zM613 366c0 63 -14 117 -40 159l-290 -387c31 -17 68 -27 110 -27c134 0 220 101 220 255z" />
    <glyph glyph-name="Oslashacute" unicode="&#x1fe;" horiz-adv-x="786" 
d="M529 921l-98 -148h-90l75 148h113zM748 366c0 -222 -146 -378 -356 -378c-70 0 -133 17 -185 49l-27 -36h-122l74 98c-59 66 -93 159 -93 267c0 222 145 378 354 378c72 0 136 -18 189 -51l30 39h117l-75 -99c60 -67 94 -159 94 -267zM173 366c0 -64 14 -118 41 -160
l292 386c-32 19 -70 29 -113 29c-134 0 -220 -99 -220 -255zM613 366c0 63 -14 117 -40 159l-290 -387c31 -17 68 -27 110 -27c134 0 220 101 220 255z" />
    <glyph glyph-name="Otilde" unicode="&#xd5;" horiz-adv-x="786" 
d="M295 791h-72c-9 86 28 141 92 141c66 0 99 -59 142 -59c25 0 35 23 35 59h72c8 -95 -31 -141 -95 -141c-69 0 -104 59 -140 59c-24 0 -34 -22 -34 -59zM748 366c0 -222 -146 -378 -356 -378c-209 0 -353 155 -353 378c0 222 145 378 354 378s355 -155 355 -378zM613 366
c0 156 -86 255 -220 255s-220 -99 -220 -255s86 -255 220 -255s220 101 220 255z" />
    <glyph glyph-name="OE" unicode="&#x152;" horiz-adv-x="1132" 
d="M39 366c0 219 142 378 356 378c88 0 175 -33 226 -90v77h454v-118h-326v-188h292v-113h-292v-194h326v-118h-454v87c-40 -57 -130 -99 -231 -99c-212 0 -351 159 -351 378zM173 367c0 -158 96 -256 224 -256c127 0 222 97 222 256c0 158 -95 254 -223 254
c-127 0 -223 -96 -223 -254z" />
    <glyph glyph-name="P" unicode="P" horiz-adv-x="639" 
d="M370 252h-161v-252h-128v731h289c147 0 242 -96 242 -239c0 -141 -96 -240 -242 -240zM345 617h-136v-251h134c88 0 135 47 135 127s-48 124 -133 124z" />
    <glyph glyph-name="Thorn" unicode="&#xde;" horiz-adv-x="639" 
d="M370 138h-161v-138h-128v731h128v-134h161c147 0 242 -96 242 -229c0 -131 -96 -230 -242 -230zM345 483h-136v-231h134c88 0 135 46 135 116c0 71 -48 115 -133 115z" />
    <glyph glyph-name="Q" unicode="Q" horiz-adv-x="786" 
d="M655 -55l-80 90c-52 -30 -114 -47 -183 -47c-209 0 -353 155 -353 378c0 222 145 378 354 378s355 -155 355 -378c0 -105 -32 -195 -89 -261l78 -87zM613 366c0 156 -86 255 -220 255s-220 -99 -220 -255s86 -255 220 -255c36 0 68 7 97 21l-97 109l81 73l97 -109
c27 42 42 97 42 161z" />
    <glyph glyph-name="R" unicode="R" horiz-adv-x="670" 
d="M209 0h-128v731h279c166 0 263 -84 263 -228c0 -98 -46 -168 -132 -203l139 -300h-140l-124 273h-157v-273zM209 617v-231h151c81 0 129 43 129 117c0 73 -48 114 -129 114h-151z" />
    <glyph glyph-name="Racute" unicode="&#x154;" horiz-adv-x="670" 
d="M456 932l-97 -148h-91l75 148h113zM209 0h-128v731h279c166 0 263 -84 263 -228c0 -98 -46 -168 -132 -203l139 -300h-140l-124 273h-157v-273zM209 617v-231h151c81 0 129 43 129 117c0 73 -48 114 -129 114h-151z" />
    <glyph glyph-name="Rcaron" unicode="&#x158;" horiz-adv-x="670" 
d="M250 784l-90 155h96l57 -99l57 99h95l-90 -155h-125zM209 0h-128v731h279c166 0 263 -84 263 -228c0 -98 -46 -168 -132 -203l139 -300h-140l-124 273h-157v-273zM209 617v-231h151c81 0 129 43 129 117c0 73 -48 114 -129 114h-151z" />
    <glyph glyph-name="Rcommaaccent" unicode="&#x156;" horiz-adv-x="670" 
d="M209 0h-128v731h279c166 0 263 -84 263 -228c0 -98 -46 -168 -132 -203l139 -300h-140l-124 273h-157v-273zM209 617v-231h151c81 0 129 43 129 117c0 73 -48 114 -129 114h-151zM413 -113c0 -70 -45 -121 -121 -112v40c44 -4 67 9 69 39c-7 -4 -15 -6 -23 -6
c-33 0 -55 25 -55 57c0 36 26 60 63 60c40 0 67 -30 67 -78z" />
    <glyph glyph-name="S" unicode="S" horiz-adv-x="592" 
d="M39 527c0 128 106 217 260 217c148 0 242 -82 246 -214h-128c-3 63 -48 100 -120 100c-79 0 -130 -38 -130 -99c0 -52 28 -81 89 -95l115 -25c125 -27 186 -91 186 -200c0 -136 -106 -224 -267 -224c-156 0 -258 83 -261 214h128c1 -62 51 -99 133 -99
c85 0 139 37 139 98c0 49 -25 78 -85 91l-116 26c-124 27 -189 98 -189 210z" />
    <glyph glyph-name="Sacute" unicode="&#x15a;" horiz-adv-x="592" 
d="M437 931l-98 -148h-90l75 148h113zM39 527c0 128 106 217 260 217c148 0 242 -82 246 -214h-128c-3 63 -48 100 -120 100c-79 0 -130 -38 -130 -99c0 -52 28 -81 89 -95l115 -25c125 -27 186 -91 186 -200c0 -136 -106 -224 -267 -224c-156 0 -258 83 -261 214h128
c1 -62 51 -99 133 -99c85 0 139 37 139 98c0 49 -25 78 -85 91l-116 26c-124 27 -189 98 -189 210z" />
    <glyph glyph-name="Scaron" unicode="&#x160;" horiz-adv-x="592" 
d="M231 783l-90 156h95l58 -99l57 99h95l-90 -156h-125zM39 527c0 128 106 217 260 217c148 0 242 -82 246 -214h-128c-3 63 -48 100 -120 100c-79 0 -130 -38 -130 -99c0 -52 28 -81 89 -95l115 -25c125 -27 186 -91 186 -200c0 -136 -106 -224 -267 -224
c-156 0 -258 83 -261 214h128c1 -62 51 -99 133 -99c85 0 139 37 139 98c0 49 -25 78 -85 91l-116 26c-124 27 -189 98 -189 210z" />
    <glyph glyph-name="Scedilla" unicode="&#x15e;" horiz-adv-x="592" 
d="M220 -196v56c23 -11 42 -18 67 -18c34 0 52 15 52 38c0 22 -16 34 -42 34c-20 0 -33 -3 -49 -9l-12 34l23 49c-138 10 -227 91 -230 213h128c1 -62 51 -99 133 -99c85 0 139 37 139 98c0 49 -25 78 -85 91l-116 26c-124 27 -189 98 -189 210c0 128 106 217 260 217
c148 0 242 -82 246 -214h-128c-3 63 -48 100 -120 100c-79 0 -130 -38 -130 -99c0 -52 28 -81 89 -95l115 -25c125 -27 186 -91 186 -200c0 -130 -97 -216 -246 -223l-17 -34c10 3 21 5 33 5c39 0 80 -23 80 -78c0 -62 -51 -94 -113 -94c-31 0 -54 6 -74 17z" />
    <glyph glyph-name="Scircumflex" unicode="&#x15c;" horiz-adv-x="592" 
d="M236 783h-95l90 156h125l90 -156h-95l-57 99zM39 527c0 128 106 217 260 217c148 0 242 -82 246 -214h-128c-3 63 -48 100 -120 100c-79 0 -130 -38 -130 -99c0 -52 28 -81 89 -95l115 -25c125 -27 186 -91 186 -200c0 -136 -106 -224 -267 -224c-156 0 -258 83 -261 214
h128c1 -62 51 -99 133 -99c85 0 139 37 139 98c0 49 -25 78 -85 91l-116 26c-124 27 -189 98 -189 210z" />
    <glyph glyph-name="Scommaaccent" unicode="&#x218;" horiz-adv-x="592" 
d="M39 527c0 128 106 217 260 217c148 0 242 -82 246 -214h-128c-3 63 -48 100 -120 100c-79 0 -130 -38 -130 -99c0 -52 28 -81 89 -95l115 -25c125 -27 186 -91 186 -200c0 -136 -106 -224 -267 -224c-156 0 -258 83 -261 214h128c1 -62 51 -99 133 -99
c85 0 139 37 139 98c0 49 -25 78 -85 91l-116 26c-124 27 -189 98 -189 210zM355 -113c0 -70 -45 -121 -120 -112v40c44 -4 66 9 68 39c-6 -4 -14 -6 -23 -6c-32 0 -55 25 -55 57c0 36 26 60 63 60c41 0 67 -30 67 -78z" />
    <glyph glyph-name="T" unicode="T" horiz-adv-x="590" 
d="M17 613v118h556v-118h-214v-613h-128v613h-214z" />
    <glyph glyph-name="Tbar" unicode="&#x166;" horiz-adv-x="590" 
d="M123 324v104h108v185h-214v118h556v-118h-214v-185h108v-104h-108v-324h-128v324h-108z" />
    <glyph glyph-name="Tcaron" unicode="&#x164;" horiz-adv-x="590" 
d="M232 783l-90 156h96l57 -99l57 99h95l-90 -156h-125zM17 613v118h556v-118h-214v-613h-128v613h-214z" />
    <glyph glyph-name="Tcedilla" unicode="&#x162;" horiz-adv-x="590" 
d="M223 -196v56c23 -11 42 -18 67 -18c34 0 52 15 52 38c0 22 -16 34 -42 34c-19 0 -33 -3 -49 -9l-12 34l29 61h-37v613h-214v118h556v-118h-214v-613h-39l-23 -46c10 3 21 5 33 5c39 0 80 -23 80 -78c0 -62 -51 -94 -113 -94c-31 0 -53 6 -74 17z" />
    <glyph glyph-name="Tcommaaccent" unicode="&#x21a;" horiz-adv-x="590" 
d="M17 613v118h556v-118h-214v-613h-128v613h-214zM358 -113c0 -70 -45 -121 -120 -112v40c43 -4 67 9 69 39c-7 -4 -15 -6 -24 -6c-32 0 -55 25 -55 57c0 36 26 60 64 60c40 0 66 -30 66 -78z" />
    <glyph glyph-name="U" unicode="U" horiz-adv-x="731" 
d="M76 267v464h128v-456c0 -105 57 -163 161 -163s162 59 162 163v456h128v-464c0 -171 -112 -279 -290 -279c-177 0 -289 107 -289 279z" />
    <glyph glyph-name="Uacute" unicode="&#xda;" horiz-adv-x="731" 
d="M509 931l-98 -148h-90l75 148h113zM76 267v464h128v-456c0 -105 57 -163 161 -163s162 59 162 163v456h128v-464c0 -171 -112 -279 -290 -279c-177 0 -289 107 -289 279z" />
    <glyph glyph-name="Ucircumflex" unicode="&#xdb;" horiz-adv-x="731" 
d="M308 783h-95l90 156h125l90 -156h-95l-57 99zM76 267v464h128v-456c0 -105 57 -163 161 -163s162 59 162 163v456h128v-464c0 -171 -112 -279 -290 -279c-177 0 -289 107 -289 279z" />
    <glyph glyph-name="Udieresis" unicode="&#xdc;" horiz-adv-x="731" 
d="M277 795c-37 0 -67 30 -67 67c0 36 30 67 67 67c36 0 66 -31 66 -67c0 -37 -30 -67 -66 -67zM455 795c-37 0 -67 30 -67 67c0 36 30 67 67 67c36 0 66 -31 66 -67c0 -37 -30 -67 -66 -67zM76 267v464h128v-456c0 -105 57 -163 161 -163s162 59 162 163v456h128v-464
c0 -171 -112 -279 -290 -279c-177 0 -289 107 -289 279z" />
    <glyph glyph-name="Ugrave" unicode="&#xd9;" horiz-adv-x="731" 
d="M410 783h-91l-97 149h113zM76 267v464h128v-456c0 -105 57 -163 161 -163s162 59 162 163v456h128v-464c0 -171 -112 -279 -290 -279c-177 0 -289 107 -289 279z" />
    <glyph glyph-name="Uhungarumlaut" unicode="&#x170;" horiz-adv-x="731" 
d="M435 931l-97 -148h-86l81 148h102zM589 931l-102 -148h-87l86 148h103zM76 267v464h128v-456c0 -105 57 -163 161 -163s162 59 162 163v456h128v-464c0 -171 -112 -279 -290 -279c-177 0 -289 107 -289 279z" />
    <glyph glyph-name="Umacron" unicode="&#x16a;" horiz-adv-x="731" 
d="M232 820v86h268v-86h-268zM76 267v464h128v-456c0 -105 57 -163 161 -163s162 59 162 163v456h128v-464c0 -171 -112 -279 -290 -279c-177 0 -289 107 -289 279z" />
    <glyph glyph-name="Uogonek" unicode="&#x172;" horiz-adv-x="731" 
d="M76 267v464h128v-456c0 -105 57 -163 161 -163s162 59 162 163v456h128v-464c0 -139 -74 -237 -198 -268c-47 -18 -68 -49 -68 -74c0 -22 15 -37 39 -37c8 0 18 2 27 6v-81c-15 -7 -31 -9 -50 -9c-61 0 -99 42 -99 93c0 34 18 68 55 91c-175 2 -285 108 -285 279z" />
    <glyph glyph-name="Uring" unicode="&#x16e;" horiz-adv-x="731" 
d="M366 771c-75 0 -129 53 -129 127c0 73 56 128 129 128c72 0 128 -56 128 -128s-55 -127 -128 -127zM366 837c35 0 58 25 58 63c0 35 -24 60 -58 60c-35 0 -59 -24 -59 -60c0 -38 23 -63 59 -63zM76 267v464h128v-456c0 -105 57 -163 161 -163s162 59 162 163v456h128
v-464c0 -171 -112 -279 -290 -279c-177 0 -289 107 -289 279z" />
    <glyph glyph-name="Utilde" unicode="&#x168;" horiz-adv-x="731" 
d="M267 791h-72c-9 86 28 141 92 141c66 0 100 -59 142 -59c25 0 35 23 35 59h72c8 -95 -31 -141 -95 -141c-69 0 -104 59 -140 59c-24 0 -34 -22 -34 -59zM76 267v464h128v-456c0 -105 57 -163 161 -163s162 59 162 163v456h128v-464c0 -171 -112 -279 -290 -279
c-177 0 -289 107 -289 279z" />
    <glyph glyph-name="V" unicode="V" horiz-adv-x="700" 
d="M286 0l-276 731h136l160 -421c16 -44 30 -87 46 -146c18 64 33 109 47 146l158 421h133l-272 -731h-132z" />
    <glyph glyph-name="W" unicode="W" horiz-adv-x="1035" 
d="M233 0l-218 731h133l116 -386c11 -40 22 -81 33 -145c12 65 23 103 36 145l115 386h141l113 -386c12 -41 23 -83 35 -145c14 68 24 107 35 144l118 387h130l-222 -731h-124l-156 532l-159 -532h-126z" />
    <glyph glyph-name="Wacute" unicode="&#x1e82;" horiz-adv-x="1035" 
d="M661 931l-98 -148h-90l75 148h113zM233 0l-218 731h133l116 -386c11 -40 22 -81 33 -145c12 65 23 103 36 145l115 386h141l113 -386c12 -41 23 -83 35 -145c14 68 24 107 35 144l118 387h130l-222 -731h-124l-156 532l-159 -532h-126z" />
    <glyph glyph-name="Wcircumflex" unicode="&#x174;" horiz-adv-x="1035" 
d="M460 783h-95l90 156h125l90 -156h-95l-57 99zM233 0l-218 731h133l116 -386c11 -40 22 -81 33 -145c12 65 23 103 36 145l115 386h141l113 -386c12 -41 23 -83 35 -145c14 68 24 107 35 144l118 387h130l-222 -731h-124l-156 532l-159 -532h-126z" />
    <glyph glyph-name="Wdieresis" unicode="&#x1e84;" horiz-adv-x="1035" 
d="M429 795c-37 0 -67 30 -67 67c0 36 30 67 67 67c36 0 66 -31 66 -67c0 -37 -30 -67 -66 -67zM607 795c-37 0 -67 30 -67 67c0 36 30 67 67 67c36 0 66 -31 66 -67c0 -37 -30 -67 -66 -67zM233 0l-218 731h133l116 -386c11 -40 22 -81 33 -145c12 65 23 103 36 145
l115 386h141l113 -386c12 -41 23 -83 35 -145c14 68 24 107 35 144l118 387h130l-222 -731h-124l-156 532l-159 -532h-126z" />
    <glyph glyph-name="Wgrave" unicode="&#x1e80;" horiz-adv-x="1035" 
d="M562 783h-91l-97 149h113zM233 0l-218 731h133l116 -386c11 -40 22 -81 33 -145c12 65 23 103 36 145l115 386h141l113 -386c12 -41 23 -83 35 -145c14 68 24 107 35 144l118 387h130l-222 -731h-124l-156 532l-159 -532h-126z" />
    <glyph glyph-name="X" unicode="X" horiz-adv-x="681" 
d="M265 365l-243 366h152l89 -131c30 -45 55 -87 82 -137l170 268h149l-239 -365l240 -366h-151l-82 121c-32 49 -58 93 -87 146l-178 -267h-150z" />
    <glyph glyph-name="Y" unicode="Y" horiz-adv-x="641" 
d="M257 288l-247 443h143l144 -266c11 -20 18 -36 26 -54c9 18 13 30 26 54l143 266h139l-246 -443v-288h-128v288z" />
    <glyph glyph-name="Yacute" unicode="&#xdd;" horiz-adv-x="641" 
d="M466 931l-98 -148h-90l75 148h113zM257 288l-247 443h143l144 -266c11 -20 18 -36 26 -54c9 18 13 30 26 54l143 266h139l-246 -443v-288h-128v288z" />
    <glyph glyph-name="Ycircumflex" unicode="&#x176;" horiz-adv-x="641" 
d="M265 783h-96l91 156h125l90 -156h-96l-57 99zM257 288l-247 443h143l144 -266c11 -20 18 -36 26 -54c9 18 13 30 26 54l143 266h139l-246 -443v-288h-128v288z" />
    <glyph glyph-name="Ydieresis" unicode="&#x178;" horiz-adv-x="641" 
d="M233 795c-37 0 -66 30 -66 67c0 36 30 67 66 67s67 -31 67 -67c0 -37 -31 -67 -67 -67zM411 795c-37 0 -66 30 -66 67c0 36 30 67 66 67s67 -31 67 -67c0 -37 -31 -67 -67 -67zM257 288l-247 443h143l144 -266c11 -20 18 -36 26 -54c9 18 13 30 26 54l143 266h139
l-246 -443v-288h-128v288z" />
    <glyph glyph-name="Ygrave" unicode="&#x1ef2;" horiz-adv-x="641" 
d="M366 783h-90l-97 149h113zM257 288l-247 443h143l144 -266c11 -20 18 -36 26 -54c9 18 13 30 26 54l143 266h139l-246 -443v-288h-128v288z" />
    <glyph glyph-name="Z" unicode="Z" horiz-adv-x="588" 
d="M557 0h-526v119l361 494h-353v118h512v-114l-364 -499h370v-118z" />
    <glyph glyph-name="Zacute" unicode="&#x179;" horiz-adv-x="588" 
d="M429 931l-98 -148h-90l75 148h113zM557 0h-526v119l361 494h-353v118h512v-114l-364 -499h370v-118z" />
    <glyph glyph-name="Zcaron" unicode="&#x17d;" horiz-adv-x="588" 
d="M223 783l-90 156h95l58 -99l57 99h95l-90 -156h-125zM557 0h-526v119l361 494h-353v118h512v-114l-364 -499h370v-118z" />
    <glyph glyph-name="Zdotaccent" unicode="&#x17b;" horiz-adv-x="588" 
d="M285 795c-39 0 -69 31 -69 70c0 38 31 70 69 70s70 -33 70 -70c0 -38 -32 -70 -70 -70zM557 0h-526v119l361 494h-353v118h512v-114l-364 -499h370v-118z" />
    <glyph glyph-name="G.ss01" horiz-adv-x="776" 
d="M39 364c0 222 143 380 361 380c170 0 295 -87 328 -249h-135c-29 86 -99 130 -194 130c-136 0 -225 -101 -225 -261c0 -166 90 -256 222 -256c113 0 195 62 202 176h-216v112h350v-82c0 -174 -126 -326 -337 -326c-212 0 -356 147 -356 376z" />
    <glyph glyph-name="a" unicode="a" horiz-adv-x="548" 
d="M210 -13c-105 0 -169 61 -169 154c0 91 66 148 183 157l148 11v11c0 67 -40 94 -102 94c-72 0 -112 -30 -112 -82h-104c0 107 88 177 222 177c133 0 215 -72 215 -209v-300h-107l-9 73c-21 -51 -88 -86 -165 -86zM250 79c75 0 123 45 123 121v26l-103 -8
c-76 -7 -105 -32 -105 -72c0 -45 30 -67 85 -67z" />
    <glyph glyph-name="aacute" unicode="&#xe1;" horiz-adv-x="548" 
d="M425 701l-98 -148h-90l75 148h113zM210 -13c-105 0 -169 61 -169 154c0 91 66 148 183 157l148 11v11c0 67 -40 94 -102 94c-72 0 -112 -30 -112 -82h-104c0 107 88 177 222 177c133 0 215 -72 215 -209v-300h-107l-9 73c-21 -51 -88 -86 -165 -86zM250 79
c75 0 123 45 123 121v26l-103 -8c-76 -7 -105 -32 -105 -72c0 -45 30 -67 85 -67z" />
    <glyph glyph-name="abreve" unicode="&#x103;" horiz-adv-x="548" 
d="M350 703h88c0 -97 -61 -158 -156 -158c-97 0 -157 61 -157 158h89c0 -48 24 -75 68 -75c43 0 68 28 68 75zM210 -13c-105 0 -169 61 -169 154c0 91 66 148 183 157l148 11v11c0 67 -40 94 -102 94c-72 0 -112 -30 -112 -82h-104c0 107 88 177 222 177
c133 0 215 -72 215 -209v-300h-107l-9 73c-21 -51 -88 -86 -165 -86zM250 79c75 0 123 45 123 121v26l-103 -8c-76 -7 -105 -32 -105 -72c0 -45 30 -67 85 -67z" />
    <glyph glyph-name="acircumflex" unicode="&#xe2;" horiz-adv-x="548" 
d="M224 553h-95l90 156h125l90 -156h-96l-57 99zM210 -13c-105 0 -169 61 -169 154c0 91 66 148 183 157l148 11v11c0 67 -40 94 -102 94c-72 0 -112 -30 -112 -82h-104c0 107 88 177 222 177c133 0 215 -72 215 -209v-300h-107l-9 73c-21 -51 -88 -86 -165 -86zM250 79
c75 0 123 45 123 121v26l-103 -8c-76 -7 -105 -32 -105 -72c0 -45 30 -67 85 -67z" />
    <glyph glyph-name="adieresis" unicode="&#xe4;" horiz-adv-x="548" 
d="M192 565c-37 0 -66 30 -66 67c0 36 30 67 66 67s67 -31 67 -67c0 -37 -31 -67 -67 -67zM371 565c-37 0 -67 30 -67 67c0 36 30 67 67 67c36 0 66 -31 66 -67c0 -37 -30 -67 -66 -67zM210 -13c-105 0 -169 61 -169 154c0 91 66 148 183 157l148 11v11c0 67 -40 94 -102 94
c-72 0 -112 -30 -112 -82h-104c0 107 88 177 222 177c133 0 215 -72 215 -209v-300h-107l-9 73c-21 -51 -88 -86 -165 -86zM250 79c75 0 123 45 123 121v26l-103 -8c-76 -7 -105 -32 -105 -72c0 -45 30 -67 85 -67z" />
    <glyph glyph-name="agrave" unicode="&#xe0;" horiz-adv-x="548" 
d="M325 553h-90l-97 149h113zM210 -13c-105 0 -169 61 -169 154c0 91 66 148 183 157l148 11v11c0 67 -40 94 -102 94c-72 0 -112 -30 -112 -82h-104c0 107 88 177 222 177c133 0 215 -72 215 -209v-300h-107l-9 73c-21 -51 -88 -86 -165 -86zM250 79c75 0 123 45 123 121
v26l-103 -8c-76 -7 -105 -32 -105 -72c0 -45 30 -67 85 -67z" />
    <glyph glyph-name="amacron" unicode="&#x101;" horiz-adv-x="548" 
d="M148 590v86h267v-86h-267zM210 -13c-105 0 -169 61 -169 154c0 91 66 148 183 157l148 11v11c0 67 -40 94 -102 94c-72 0 -112 -30 -112 -82h-104c0 107 88 177 222 177c133 0 215 -72 215 -209v-300h-107l-9 73c-21 -51 -88 -86 -165 -86zM250 79c75 0 123 45 123 121
v26l-103 -8c-76 -7 -105 -32 -105 -72c0 -45 30 -67 85 -67z" />
    <glyph glyph-name="aogonek" unicode="&#x105;" horiz-adv-x="548" 
d="M210 -13c-105 0 -169 61 -169 154c0 91 66 148 183 157l148 11v11c0 67 -40 94 -102 94c-72 0 -112 -30 -112 -82h-104c0 107 88 177 222 177c133 0 215 -72 215 -209v-300h-1c-50 -18 -71 -49 -71 -75c0 -22 15 -37 39 -37c8 0 17 2 27 6v-81c-15 -7 -31 -9 -50 -9
c-61 0 -99 42 -99 93c0 41 25 82 79 103h-31l-9 73c-21 -51 -88 -86 -165 -86zM250 79c75 0 123 45 123 121v26l-103 -8c-76 -7 -105 -32 -105 -72c0 -45 30 -67 85 -67z" />
    <glyph glyph-name="aring" unicode="&#xe5;" horiz-adv-x="548" 
d="M281 541c-74 0 -128 53 -128 127c0 73 56 128 128 128c73 0 129 -56 129 -128s-55 -127 -129 -127zM281 607c36 0 59 25 59 63c0 35 -24 60 -59 60c-34 0 -58 -24 -58 -60c0 -38 23 -63 58 -63zM210 -13c-105 0 -169 61 -169 154c0 91 66 148 183 157l148 11v11
c0 67 -40 94 -102 94c-72 0 -112 -30 -112 -82h-104c0 107 88 177 222 177c133 0 215 -72 215 -209v-300h-107l-9 73c-21 -51 -88 -86 -165 -86zM250 79c75 0 123 45 123 121v26l-103 -8c-76 -7 -105 -32 -105 -72c0 -45 30 -67 85 -67z" />
    <glyph glyph-name="aringacute" unicode="&#x1fb;" horiz-adv-x="548" 
d="M413 846l-91 -132h-84l70 132h105zM210 -13c-105 0 -169 61 -169 154c0 91 66 148 183 157l148 11v11c0 67 -40 94 -102 94c-72 0 -112 -30 -112 -82h-104c0 77 45 134 120 161c-15 21 -24 47 -24 77c0 72 56 128 128 128c73 0 129 -56 129 -128c0 -31 -10 -58 -27 -80
c70 -29 111 -94 111 -190v-300h-107l-9 73c-21 -51 -88 -86 -165 -86zM278 509c36 0 59 25 59 62c0 35 -24 61 -59 61c-34 0 -58 -25 -58 -61c0 -37 23 -62 58 -62zM250 79c75 0 123 45 123 121v26l-103 -8c-76 -7 -105 -32 -105 -72c0 -45 30 -67 85 -67z" />
    <glyph glyph-name="atilde" unicode="&#xe3;" horiz-adv-x="548" 
d="M183 561h-72c-9 86 28 141 92 141c66 0 100 -59 142 -59c25 0 35 23 35 59h72c8 -95 -31 -141 -95 -141c-69 0 -104 59 -140 59c-24 0 -34 -22 -34 -59zM210 -13c-105 0 -169 61 -169 154c0 91 66 148 183 157l148 11v11c0 67 -40 94 -102 94c-72 0 -112 -30 -112 -82
h-104c0 107 88 177 222 177c133 0 215 -72 215 -209v-300h-107l-9 73c-21 -51 -88 -86 -165 -86zM250 79c75 0 123 45 123 121v26l-103 -8c-76 -7 -105 -32 -105 -72c0 -45 30 -67 85 -67z" />
    <glyph glyph-name="ae" unicode="&#xe6;" horiz-adv-x="889" 
d="M41 142c0 97 73 148 182 150l149 4v24c0 63 -39 94 -105 94c-70 0 -109 -31 -109 -82h-104c0 106 87 177 215 177c82 0 138 -27 169 -73c42 47 102 73 174 73c151 0 242 -103 242 -253v-37l-373 -1c10 -80 53 -131 137 -131c69 0 112 28 124 73h113
c-21 -106 -109 -173 -239 -173c-89 0 -160 39 -202 105c-35 -67 -106 -105 -196 -105c-114 0 -177 61 -177 155zM613 409c-77 0 -119 -46 -131 -114h251c0 66 -44 114 -120 114zM165 148c0 -45 33 -69 86 -69c76 0 122 45 122 112v28l-113 -4c-66 -2 -95 -20 -95 -67z" />
    <glyph glyph-name="aeacute" unicode="&#x1fd;" horiz-adv-x="889" 
d="M577 701l-98 -148h-90l75 148h113zM41 142c0 97 73 148 182 150l149 4v24c0 63 -39 94 -105 94c-70 0 -109 -31 -109 -82h-104c0 106 87 177 215 177c82 0 138 -27 169 -73c42 47 102 73 174 73c151 0 242 -103 242 -253v-37l-373 -1c10 -80 53 -131 137 -131
c69 0 112 28 124 73h113c-21 -106 -109 -173 -239 -173c-89 0 -160 39 -202 105c-35 -67 -106 -105 -196 -105c-114 0 -177 61 -177 155zM613 409c-77 0 -119 -46 -131 -114h251c0 66 -44 114 -120 114zM165 148c0 -45 33 -69 86 -69c76 0 122 45 122 112v28l-113 -4
c-66 -2 -95 -20 -95 -67z" />
    <glyph glyph-name="b" unicode="b" horiz-adv-x="619" 
d="M176 0h-113v744h122v-322c32 55 98 88 173 88c141 0 227 -110 227 -266c0 -152 -93 -257 -235 -257c-74 0 -137 33 -166 90zM186 249c0 -89 55 -150 139 -150c86 0 137 62 137 150s-51 151 -137 151c-84 0 -139 -62 -139 -151z" />
    <glyph glyph-name="c" unicode="c" horiz-adv-x="550" 
d="M34 248c0 153 101 261 247 261c135 0 227 -75 240 -194h-122c-14 56 -55 85 -113 85c-78 0 -130 -59 -130 -152s48 -151 126 -151c61 0 104 30 117 84h123c-15 -115 -111 -194 -240 -194c-150 0 -248 104 -248 261z" />
    <glyph glyph-name="cacute" unicode="&#x107;" horiz-adv-x="550" 
d="M422 701l-98 -148h-90l75 148h113zM34 248c0 153 101 261 247 261c135 0 227 -75 240 -194h-122c-14 56 -55 85 -113 85c-78 0 -130 -59 -130 -152s48 -151 126 -151c61 0 104 30 117 84h123c-15 -115 -111 -194 -240 -194c-150 0 -248 104 -248 261z" />
    <glyph glyph-name="ccaron" unicode="&#x10d;" horiz-adv-x="550" 
d="M216 553l-90 156h95l58 -99l57 99h95l-90 -156h-125zM34 248c0 153 101 261 247 261c135 0 227 -75 240 -194h-122c-14 56 -55 85 -113 85c-78 0 -130 -59 -130 -152s48 -151 126 -151c61 0 104 30 117 84h123c-15 -115 -111 -194 -240 -194c-150 0 -248 104 -248 261z
" />
    <glyph glyph-name="ccedilla" unicode="&#xe7;" horiz-adv-x="550" 
d="M34 248c0 153 101 261 247 261c135 0 227 -75 240 -194h-122c-14 56 -55 85 -113 85c-78 0 -130 -59 -130 -152s48 -151 126 -151c61 0 104 30 117 84h123c-14 -109 -101 -185 -219 -193l-17 -34c10 3 21 5 33 5c39 0 80 -23 80 -78c0 -62 -51 -94 -113 -94
c-31 0 -53 6 -74 17v56c23 -11 42 -18 67 -18c34 0 52 15 52 38c0 22 -16 34 -42 34c-19 0 -33 -3 -49 -9l-12 34l23 49c-132 14 -217 114 -217 260z" />
    <glyph glyph-name="ccircumflex" unicode="&#x109;" horiz-adv-x="550" 
d="M221 553h-95l90 156h125l90 -156h-95l-57 99zM34 248c0 153 101 261 247 261c135 0 227 -75 240 -194h-122c-14 56 -55 85 -113 85c-78 0 -130 -59 -130 -152s48 -151 126 -151c61 0 104 30 117 84h123c-15 -115 -111 -194 -240 -194c-150 0 -248 104 -248 261z" />
    <glyph glyph-name="cdotaccent" unicode="&#x10b;" horiz-adv-x="550" 
d="M278 565c-38 0 -69 31 -69 70c0 38 31 70 69 70s70 -33 70 -70c0 -38 -32 -70 -70 -70zM34 248c0 153 101 261 247 261c135 0 227 -75 240 -194h-122c-14 56 -55 85 -113 85c-78 0 -130 -59 -130 -152s48 -151 126 -151c61 0 104 30 117 84h123
c-15 -115 -111 -194 -240 -194c-150 0 -248 104 -248 261z" />
    <glyph glyph-name="d" unicode="d" horiz-adv-x="619" 
d="M266 -13c-143 0 -232 105 -232 258c0 154 90 264 239 264c69 0 130 -29 161 -78v313h121v-744h-112l-8 77c-30 -57 -94 -90 -169 -90zM293 99c85 0 140 61 140 150s-55 151 -140 151s-137 -63 -137 -151s52 -150 137 -150z" />
    <glyph glyph-name="eth" unicode="&#xf0;" horiz-adv-x="596" 
d="M34 244c0 147 115 247 250 247c52 0 97 -14 133 -45c-22 50 -49 98 -88 150l-122 -49l-27 68l101 41c-24 30 -50 59 -80 88h140c15 -15 29 -30 44 -46l77 32l28 -68l-57 -23c86 -115 129 -236 129 -365c0 -187 -116 -287 -265 -287c-159 0 -263 107 -263 257zM156 239
c0 -79 52 -142 141 -142s140 62 140 142s-50 143 -139 143c-90 0 -142 -64 -142 -143z" />
    <glyph glyph-name="dcaron" unicode="&#x10f;" horiz-adv-x="619" 
d="M266 -13c-143 0 -232 105 -232 258c0 154 90 264 239 264c69 0 130 -29 161 -78v313h121v-744h-112l-8 77c-30 -57 -94 -90 -169 -90zM605 564v180h101l-26 -180h-75zM293 99c85 0 140 61 140 150s-55 151 -140 151s-137 -63 -137 -151s52 -150 137 -150z" />
    <glyph glyph-name="dcroat" unicode="&#x111;" horiz-adv-x="619" 
d="M266 -13c-143 0 -232 105 -232 258c0 154 90 264 239 264c69 0 130 -29 161 -78v146h-157v74h157v93h121v-93h64v-74h-64v-577h-112l-8 77c-30 -57 -94 -90 -169 -90zM293 99c85 0 140 61 140 150s-55 151 -140 151s-137 -63 -137 -151s52 -150 137 -150z" />
    <glyph glyph-name="e" unicode="e" horiz-adv-x="557" 
d="M284 -13c-147 0 -250 107 -250 260c0 155 101 262 246 262c148 0 242 -99 242 -253v-37l-372 -1c9 -87 55 -131 136 -131c67 0 111 26 125 73h113c-21 -108 -111 -173 -240 -173zM281 409c-72 0 -116 -39 -128 -113h248c0 68 -47 113 -120 113z" />
    <glyph glyph-name="eacute" unicode="&#xe9;" horiz-adv-x="557" 
d="M426 701l-98 -148h-90l75 148h113zM284 -13c-147 0 -250 107 -250 260c0 155 101 262 246 262c148 0 242 -99 242 -253v-37l-372 -1c9 -87 55 -131 136 -131c67 0 111 26 125 73h113c-21 -108 -111 -173 -240 -173zM281 409c-72 0 -116 -39 -128 -113h248
c0 68 -47 113 -120 113z" />
    <glyph glyph-name="ebreve" unicode="&#x115;" horiz-adv-x="557" 
d="M351 703h88c0 -97 -61 -158 -156 -158c-97 0 -157 61 -157 158h89c0 -48 24 -75 68 -75s68 28 68 75zM284 -13c-147 0 -250 107 -250 260c0 155 101 262 246 262c148 0 242 -99 242 -253v-37l-372 -1c9 -87 55 -131 136 -131c67 0 111 26 125 73h113
c-21 -108 -111 -173 -240 -173zM281 409c-72 0 -116 -39 -128 -113h248c0 68 -47 113 -120 113z" />
    <glyph glyph-name="ecaron" unicode="&#x11b;" horiz-adv-x="557" 
d="M220 553l-90 156h95l58 -99l57 99h95l-90 -156h-125zM284 -13c-147 0 -250 107 -250 260c0 155 101 262 246 262c148 0 242 -99 242 -253v-37l-372 -1c9 -87 55 -131 136 -131c67 0 111 26 125 73h113c-21 -108 -111 -173 -240 -173zM281 409c-72 0 -116 -39 -128 -113
h248c0 68 -47 113 -120 113z" />
    <glyph glyph-name="ecircumflex" unicode="&#xea;" horiz-adv-x="557" 
d="M225 553h-95l90 156h125l90 -156h-95l-57 99zM284 -13c-147 0 -250 107 -250 260c0 155 101 262 246 262c148 0 242 -99 242 -253v-37l-372 -1c9 -87 55 -131 136 -131c67 0 111 26 125 73h113c-21 -108 -111 -173 -240 -173zM281 409c-72 0 -116 -39 -128 -113h248
c0 68 -47 113 -120 113z" />
    <glyph glyph-name="edieresis" unicode="&#xeb;" horiz-adv-x="557" 
d="M193 565c-37 0 -66 30 -66 67c0 36 30 67 66 67s67 -31 67 -67c0 -37 -31 -67 -67 -67zM372 565c-37 0 -67 30 -67 67c0 36 30 67 67 67c36 0 66 -31 66 -67c0 -37 -30 -67 -66 -67zM284 -13c-147 0 -250 107 -250 260c0 155 101 262 246 262c148 0 242 -99 242 -253v-37
l-372 -1c9 -87 55 -131 136 -131c67 0 111 26 125 73h113c-21 -108 -111 -173 -240 -173zM281 409c-72 0 -116 -39 -128 -113h248c0 68 -47 113 -120 113z" />
    <glyph glyph-name="edotaccent" unicode="&#x117;" horiz-adv-x="557" 
d="M282 565c-39 0 -69 31 -69 70c0 38 31 70 69 70s70 -33 70 -70c0 -38 -32 -70 -70 -70zM284 -13c-147 0 -250 107 -250 260c0 155 101 262 246 262c148 0 242 -99 242 -253v-37l-372 -1c9 -87 55 -131 136 -131c67 0 111 26 125 73h113c-21 -108 -111 -173 -240 -173z
M281 409c-72 0 -116 -39 -128 -113h248c0 68 -47 113 -120 113z" />
    <glyph glyph-name="egrave" unicode="&#xe8;" horiz-adv-x="557" 
d="M326 553h-90l-97 149h113zM284 -13c-147 0 -250 107 -250 260c0 155 101 262 246 262c148 0 242 -99 242 -253v-37l-372 -1c9 -87 55 -131 136 -131c67 0 111 26 125 73h113c-21 -108 -111 -173 -240 -173zM281 409c-72 0 -116 -39 -128 -113h248c0 68 -47 113 -120 113z
" />
    <glyph glyph-name="emacron" unicode="&#x113;" horiz-adv-x="557" 
d="M149 590v86h267v-86h-267zM284 -13c-147 0 -250 107 -250 260c0 155 101 262 246 262c148 0 242 -99 242 -253v-37l-372 -1c9 -87 55 -131 136 -131c67 0 111 26 125 73h113c-21 -108 -111 -173 -240 -173zM281 409c-72 0 -116 -39 -128 -113h248c0 68 -47 113 -120 113z
" />
    <glyph glyph-name="eogonek" unicode="&#x119;" horiz-adv-x="557" 
d="M370 -187c-15 -7 -31 -9 -50 -9c-61 0 -99 42 -99 93c0 34 17 68 53 90c-142 5 -240 110 -240 260c0 155 101 262 246 262c148 0 242 -99 242 -253v-37l-372 -1c9 -87 55 -131 136 -131c67 0 111 26 125 73h113c-16 -82 -72 -140 -155 -162c-46 -18 -65 -48 -65 -73
c0 -22 15 -37 39 -37c8 0 17 2 27 6v-81zM281 409c-72 0 -116 -39 -128 -113h248c0 68 -47 113 -120 113z" />
    <glyph glyph-name="f" unicode="f" horiz-adv-x="339" 
d="M14 494h71v60c0 134 71 190 178 190c19 0 42 -1 63 -5v-104h-43c-62 0 -77 -32 -77 -81v-60h118v-102h-118v-392h-121v392h-71v102z" />
    <glyph glyph-name="g" unicode="g" horiz-adv-x="614" 
d="M35 258c0 144 94 252 235 252c74 0 132 -31 161 -84l7 68h113v-469c0 -165 -99 -268 -259 -268c-142 0 -239 81 -254 213h122c8 -64 57 -102 132 -102c84 0 138 53 138 135v82c-31 -46 -92 -75 -163 -75c-140 0 -232 105 -232 248zM158 261c0 -83 53 -145 133 -145
c84 0 136 59 136 145c0 84 -51 142 -136 142c-81 0 -133 -61 -133 -142z" />
    <glyph glyph-name="gbreve" unicode="&#x11f;" horiz-adv-x="614" 
d="M354 707h88c0 -97 -61 -158 -156 -158c-97 0 -157 60 -157 158h89c0 -48 24 -75 68 -75c43 0 68 27 68 75zM35 258c0 144 94 252 235 252c74 0 132 -31 161 -84l7 68h113v-469c0 -165 -99 -268 -259 -268c-142 0 -239 81 -254 213h122c8 -64 57 -102 132 -102
c84 0 138 53 138 135v82c-31 -46 -92 -75 -163 -75c-140 0 -232 105 -232 248zM158 261c0 -83 53 -145 133 -145c84 0 136 59 136 145c0 84 -51 142 -136 142c-81 0 -133 -61 -133 -142z" />
    <glyph glyph-name="gcircumflex" unicode="&#x11d;" horiz-adv-x="614" 
d="M228 557h-95l90 155h125l90 -155h-96l-57 99zM35 258c0 144 94 252 235 252c74 0 132 -31 161 -84l7 68h113v-469c0 -165 -99 -268 -259 -268c-142 0 -239 81 -254 213h122c8 -64 57 -102 132 -102c84 0 138 53 138 135v82c-31 -46 -92 -75 -163 -75
c-140 0 -232 105 -232 248zM158 261c0 -83 53 -145 133 -145c84 0 136 59 136 145c0 84 -51 142 -136 142c-81 0 -133 -61 -133 -142z" />
    <glyph glyph-name="gcommaaccent" unicode="&#x123;" horiz-adv-x="614" 
d="M344 627c0 -36 -25 -60 -63 -60c-40 0 -66 30 -66 78c0 70 45 121 120 112v-40c-43 4 -67 -10 -69 -39c7 3 15 5 24 5c32 0 54 -24 54 -56zM35 258c0 144 94 252 235 252c74 0 132 -31 161 -84l7 68h113v-469c0 -165 -99 -268 -259 -268c-142 0 -239 81 -254 213h122
c8 -64 57 -102 132 -102c84 0 138 53 138 135v82c-31 -46 -92 -75 -163 -75c-140 0 -232 105 -232 248zM158 261c0 -83 53 -145 133 -145c84 0 136 59 136 145c0 84 -51 142 -136 142c-81 0 -133 -61 -133 -142z" />
    <glyph glyph-name="gdotaccent" unicode="&#x121;" horiz-adv-x="614" 
d="M285 569c-39 0 -70 31 -70 69c0 39 32 71 70 71s70 -33 70 -71s-32 -69 -70 -69zM35 258c0 144 94 252 235 252c74 0 132 -31 161 -84l7 68h113v-469c0 -165 -99 -268 -259 -268c-142 0 -239 81 -254 213h122c8 -64 57 -102 132 -102c84 0 138 53 138 135v82
c-31 -46 -92 -75 -163 -75c-140 0 -232 105 -232 248zM158 261c0 -83 53 -145 133 -145c84 0 136 59 136 145c0 84 -51 142 -136 142c-81 0 -133 -61 -133 -142z" />
    <glyph glyph-name="h" unicode="h" horiz-adv-x="589" 
d="M185 0h-122v744h123v-314c31 48 89 79 160 79c122 0 186 -77 186 -205v-304h-122v275c0 83 -41 123 -103 123c-77 0 -122 -54 -122 -128v-270z" />
    <glyph glyph-name="hbar" unicode="&#x127;" horiz-adv-x="589" 
d="M185 0h-122v577h-63v74h63v93h123v-93h156v-74h-156v-147c31 48 89 79 160 79c122 0 186 -77 186 -205v-304h-122v275c0 83 -41 123 -103 123c-77 0 -122 -54 -122 -128v-270z" />
    <glyph glyph-name="i" unicode="i" horiz-adv-x="248" 
d="M124 593c-42 0 -75 33 -75 74s33 73 75 73c40 0 73 -32 73 -73s-33 -74 -73 -74zM63 0v494h122v-494h-122z" />
    <glyph glyph-name="iacute" unicode="&#xed;" horiz-adv-x="248" 
d="M268 701l-97 -148h-91l75 148h113zM63 0v494h122v-494h-122z" />
    <glyph glyph-name="icircumflex" unicode="&#xee;" horiz-adv-x="248" 
d="M68 553h-96l90 156h125l91 -156h-96l-57 99zM63 0v494h122v-494h-122z" />
    <glyph glyph-name="idieresis" unicode="&#xef;" horiz-adv-x="248" 
d="M36 565c-37 0 -67 30 -67 67c0 36 31 67 67 67s66 -31 66 -67c0 -37 -30 -67 -66 -67zM214 565c-37 0 -66 30 -66 67c0 36 30 67 66 67s67 -31 67 -67c0 -37 -31 -67 -67 -67zM63 0v494h122v-494h-122z" />
    <glyph glyph-name="idotaccent" horiz-adv-x="248" 
d="M124 565c-38 0 -69 31 -69 70c0 38 32 70 69 70c38 0 70 -33 70 -70c0 -38 -32 -70 -70 -70zM63 0v494h122v-494h-122z" />
    <glyph glyph-name="igrave" unicode="&#xec;" horiz-adv-x="248" 
d="M169 553h-90l-98 149h113zM63 0v494h122v-494h-122z" />
    <glyph glyph-name="imacron" unicode="&#x12b;" horiz-adv-x="248" 
d="M-9 590v86h268v-86h-268zM63 0v494h122v-494h-122z" />
    <glyph glyph-name="iogonek" unicode="&#x12f;" horiz-adv-x="248" 
d="M124 593c-42 0 -75 33 -75 74s33 73 75 73c40 0 73 -32 73 -73s-33 -74 -73 -74zM63 0v494h122v-494h-1c-49 -18 -71 -49 -71 -75c0 -22 15 -37 39 -37c8 0 18 2 27 6v-81c-15 -7 -31 -9 -50 -9c-61 0 -99 42 -99 93c0 41 26 82 80 103h-47z" />
    <glyph glyph-name="itilde" unicode="&#x129;" horiz-adv-x="248" 
d="M26 561h-72c-9 86 29 141 92 141c67 0 100 -59 142 -59c25 0 35 23 35 59h72c8 -95 -31 -141 -95 -141c-69 0 -103 59 -140 59c-24 0 -34 -22 -34 -59zM63 0v494h122v-494h-122z" />
    <glyph glyph-name="j" unicode="j" horiz-adv-x="248" 
d="M124 593c-41 0 -74 33 -74 74s33 73 74 73c40 0 74 -32 74 -73s-34 -74 -74 -74zM-55 -232l20 108c17 -5 27 -6 42 -6c42 0 56 24 56 74v550h122v-564c0 -105 -60 -173 -167 -173c-23 0 -41 2 -73 11z" />
    <glyph glyph-name="jcircumflex" unicode="&#x135;" horiz-adv-x="248" 
d="M68 553h-95l90 156h125l90 -156h-95l-57 99zM-55 -232l20 108c17 -5 27 -6 42 -6c42 0 56 24 56 74v550h122v-564c0 -105 -60 -173 -167 -173c-23 0 -41 2 -73 11z" />
    <glyph glyph-name="k" unicode="k" horiz-adv-x="538" 
d="M186 0h-121v744h121v-457l192 207h153l-188 -196l184 -298h-140l-129 208l-72 -75v-133z" />
    <glyph glyph-name="kcommaaccent" unicode="&#x137;" horiz-adv-x="538" 
d="M186 0h-121v744h121v-457l192 207h153l-188 -196l184 -298h-140l-129 208l-72 -75v-133zM337 -113c0 -70 -45 -121 -121 -112v40c44 -4 67 9 69 39c-7 -4 -15 -6 -23 -6c-33 0 -55 25 -55 57c0 36 26 60 63 60c40 0 67 -30 67 -78z" />
    <glyph glyph-name="l" unicode="l" horiz-adv-x="251" 
d="M186 0h-121v744h121v-744z" />
    <glyph glyph-name="lacute" unicode="&#x13a;" horiz-adv-x="251" 
d="M269 928l-98 -148h-90l75 148h113zM186 0h-121v744h121v-744z" />
    <glyph glyph-name="lcaron" unicode="&#x13e;" horiz-adv-x="251" 
d="M186 0h-121v744h121v-744zM236 564v180h101l-26 -180h-75z" />
    <glyph glyph-name="lcommaaccent" unicode="&#x13c;" horiz-adv-x="251" 
d="M186 0h-121v744h121v-744zM189 -113c0 -70 -45 -121 -121 -112v40c44 -4 67 9 69 39c-7 -4 -15 -6 -23 -6c-32 0 -55 25 -55 57c0 36 26 60 63 60c40 0 67 -30 67 -78z" />
    <glyph glyph-name="ldot" unicode="&#x140;" horiz-adv-x="383" 
d="M186 0h-121v744h121v-744zM318 293c-40 0 -72 32 -72 70c0 39 32 71 72 71c37 0 70 -33 70 -71s-32 -70 -70 -70z" />
    <glyph glyph-name="lslash" unicode="&#x142;" horiz-adv-x="251" 
d="M186 0h-121v313l-54 -26v87l54 26v344h121v-286l55 26v-87l-55 -26v-371z" />
    <glyph glyph-name="m" unicode="m" horiz-adv-x="885" 
d="M185 0h-122v494h112l10 -58c25 41 75 73 146 73c75 0 127 -37 153 -94c25 57 83 94 158 94c120 0 186 -72 186 -186v-323h-121v291c0 71 -38 108 -96 108c-59 0 -104 -38 -104 -119v-280h-122v292c0 69 -37 106 -95 106s-105 -38 -105 -118v-280z" />
    <glyph glyph-name="n" unicode="n" horiz-adv-x="589" 
d="M185 0h-122v494h113l10 -64c31 50 91 79 158 79c124 0 188 -77 188 -205v-304h-122v275c0 83 -41 123 -104 123c-75 0 -121 -52 -121 -132v-266z" />
    <glyph glyph-name="nacute" unicode="&#x144;" horiz-adv-x="589" 
d="M447 701l-98 -148h-90l75 148h113zM185 0h-122v494h113l10 -64c31 50 91 79 158 79c124 0 188 -77 188 -205v-304h-122v275c0 83 -41 123 -104 123c-75 0 -121 -52 -121 -132v-266z" />
    <glyph glyph-name="ncaron" unicode="&#x148;" horiz-adv-x="589" 
d="M241 553l-90 156h95l57 -99l57 99h96l-90 -156h-125zM185 0h-122v494h113l10 -64c31 50 91 79 158 79c124 0 188 -77 188 -205v-304h-122v275c0 83 -41 123 -104 123c-75 0 -121 -52 -121 -132v-266z" />
    <glyph glyph-name="ncommaaccent" unicode="&#x146;" horiz-adv-x="589" 
d="M185 0h-122v494h113l10 -64c31 50 91 79 158 79c124 0 188 -77 188 -205v-304h-122v275c0 83 -41 123 -104 123c-75 0 -121 -52 -121 -132v-266zM361 -113c0 -70 -46 -121 -121 -112v40c44 -4 67 9 69 39c-7 -4 -15 -6 -24 -6c-32 0 -54 25 -54 57c0 36 25 60 63 60
c40 0 67 -30 67 -78z" />
    <glyph glyph-name="eng" unicode="&#x14b;" horiz-adv-x="589" 
d="M185 0h-122v494h113l10 -64c31 50 91 79 158 79c124 0 188 -77 188 -205v-374c0 -105 -61 -173 -167 -173c-24 0 -42 2 -73 11l20 108c17 -5 26 -6 42 -6c41 0 56 24 56 74v331c0 83 -41 123 -104 123c-75 0 -121 -52 -121 -132v-266z" />
    <glyph glyph-name="ntilde" unicode="&#xf1;" horiz-adv-x="589" 
d="M205 561h-72c-9 86 28 141 92 141c66 0 100 -59 142 -59c25 0 35 23 35 59h72c8 -95 -31 -141 -95 -141c-69 0 -104 59 -140 59c-24 0 -34 -22 -34 -59zM185 0h-122v494h113l10 -64c31 50 91 79 158 79c124 0 188 -77 188 -205v-304h-122v275c0 83 -41 123 -104 123
c-75 0 -121 -52 -121 -132v-266z" />
    <glyph glyph-name="o" unicode="o" horiz-adv-x="596" 
d="M34 248c0 154 111 260 264 260s264 -106 264 -260s-111 -260 -264 -260s-264 106 -264 260zM156 248c0 -90 58 -151 142 -151s142 61 142 151s-58 151 -142 151s-142 -61 -142 -151z" />
    <glyph glyph-name="oacute" unicode="&#xf3;" horiz-adv-x="596" 
d="M442 701l-98 -148h-90l75 148h113zM34 248c0 154 111 260 264 260s264 -106 264 -260s-111 -260 -264 -260s-264 106 -264 260zM156 248c0 -90 58 -151 142 -151s142 61 142 151s-58 151 -142 151s-142 -61 -142 -151z" />
    <glyph glyph-name="ocircumflex" unicode="&#xf4;" horiz-adv-x="596" 
d="M241 553h-96l91 156h125l90 -156h-96l-57 99zM34 248c0 154 111 260 264 260s264 -106 264 -260s-111 -260 -264 -260s-264 106 -264 260zM156 248c0 -90 58 -151 142 -151s142 61 142 151s-58 151 -142 151s-142 -61 -142 -151z" />
    <glyph glyph-name="odieresis" unicode="&#xf6;" horiz-adv-x="596" 
d="M209 565c-37 0 -66 30 -66 67c0 36 30 67 66 67s67 -31 67 -67c0 -37 -31 -67 -67 -67zM387 565c-37 0 -66 30 -66 67c0 36 30 67 66 67s67 -31 67 -67c0 -37 -31 -67 -67 -67zM34 248c0 154 111 260 264 260s264 -106 264 -260s-111 -260 -264 -260s-264 106 -264 260z
M156 248c0 -90 58 -151 142 -151s142 61 142 151s-58 151 -142 151s-142 -61 -142 -151z" />
    <glyph glyph-name="ograve" unicode="&#xf2;" horiz-adv-x="596" 
d="M342 553h-90l-97 149h113zM34 248c0 154 111 260 264 260s264 -106 264 -260s-111 -260 -264 -260s-264 106 -264 260zM156 248c0 -90 58 -151 142 -151s142 61 142 151s-58 151 -142 151s-142 -61 -142 -151z" />
    <glyph glyph-name="ohungarumlaut" unicode="&#x151;" horiz-adv-x="596" 
d="M368 701l-98 -148h-86l82 148h102zM522 701l-103 -148h-86l86 148h103zM34 248c0 154 111 260 264 260s264 -106 264 -260s-111 -260 -264 -260s-264 106 -264 260zM156 248c0 -90 58 -151 142 -151s142 61 142 151s-58 151 -142 151s-142 -61 -142 -151z" />
    <glyph glyph-name="omacron" unicode="&#x14d;" horiz-adv-x="596" 
d="M164 590v86h268v-86h-268zM34 248c0 154 111 260 264 260s264 -106 264 -260s-111 -260 -264 -260s-264 106 -264 260zM156 248c0 -90 58 -151 142 -151s142 61 142 151s-58 151 -142 151s-142 -61 -142 -151z" />
    <glyph glyph-name="oslash" unicode="&#xf8;" horiz-adv-x="596" 
d="M34 248c0 154 111 260 264 260c36 0 70 -6 101 -17l29 47h106l-57 -93c53 -46 85 -114 85 -197c0 -154 -111 -260 -264 -260c-33 0 -65 5 -94 15l-32 -53h-110l61 98c-56 46 -89 116 -89 200zM156 248c0 -39 11 -73 30 -98l152 244c-12 3 -26 5 -40 5
c-84 0 -142 -61 -142 -151zM440 248c0 37 -10 69 -27 94l-148 -242c10 -2 21 -3 33 -3c84 0 142 61 142 151z" />
    <glyph glyph-name="oslashacute" unicode="&#x1ff;" horiz-adv-x="596" 
d="M442 701l-98 -148h-90l75 148h113zM34 248c0 154 111 260 264 260c36 0 70 -6 101 -17l29 47h106l-57 -93c53 -46 85 -114 85 -197c0 -154 -111 -260 -264 -260c-33 0 -65 5 -94 15l-32 -53h-110l61 98c-56 46 -89 116 -89 200zM156 248c0 -39 11 -73 30 -98l152 244
c-12 3 -26 5 -40 5c-84 0 -142 -61 -142 -151zM440 248c0 37 -10 69 -27 94l-148 -242c10 -2 21 -3 33 -3c84 0 142 61 142 151z" />
    <glyph glyph-name="otilde" unicode="&#xf5;" horiz-adv-x="596" 
d="M200 561h-72c-9 86 28 141 92 141c66 0 99 -59 142 -59c25 0 35 23 35 59h72c8 -95 -31 -141 -95 -141c-69 0 -104 59 -140 59c-24 0 -34 -22 -34 -59zM34 248c0 154 111 260 264 260s264 -106 264 -260s-111 -260 -264 -260s-264 106 -264 260zM156 248
c0 -90 58 -151 142 -151s142 61 142 151s-58 151 -142 151s-142 -61 -142 -151z" />
    <glyph glyph-name="oe" unicode="&#x153;" horiz-adv-x="968" 
d="M34 248c0 154 111 260 264 260c85 0 156 -33 201 -89c44 56 111 90 193 90c147 0 241 -99 241 -253v-37l-372 -1c9 -87 55 -131 137 -131c66 0 111 26 124 73h113c-21 -108 -111 -173 -240 -173c-83 0 -151 34 -196 91c-45 -57 -115 -90 -201 -90
c-153 0 -264 106 -264 260zM692 409c-72 0 -116 -39 -128 -113h248c0 68 -47 113 -120 113zM156 248c0 -90 58 -151 142 -151s142 61 142 151s-58 151 -142 151s-142 -61 -142 -151z" />
    <glyph glyph-name="p" unicode="p" horiz-adv-x="619" 
d="M63 -229v723h113l8 -75c30 57 95 90 170 90c139 0 231 -101 231 -256c0 -154 -84 -266 -231 -266c-74 0 -138 29 -169 79v-295h-122zM186 247c0 -89 55 -150 139 -150c86 0 137 62 137 150s-51 151 -137 151c-84 0 -139 -62 -139 -151z" />
    <glyph glyph-name="thorn" unicode="&#xfe;" horiz-adv-x="619" 
d="M585 251c0 -153 -84 -264 -231 -264c-74 0 -138 29 -169 79v-295h-122v973h122v-322c32 55 98 88 173 88c139 0 227 -105 227 -259zM462 249c0 88 -51 151 -137 151c-84 0 -139 -62 -139 -151s55 -152 139 -152c86 0 137 64 137 152z" />
    <glyph glyph-name="q" unicode="q" horiz-adv-x="619" 
d="M34 253c0 155 92 256 231 256c75 0 140 -33 170 -90l8 75h112v-723h-121v295c-31 -50 -96 -79 -169 -79c-147 0 -231 112 -231 266zM156 247c0 -88 52 -150 137 -150s140 61 140 150s-55 151 -140 151s-137 -63 -137 -151z" />
    <glyph glyph-name="r" unicode="r" horiz-adv-x="393" 
d="M373 496v-113h-45c-88 0 -143 -47 -143 -143v-240h-122v493h115l7 -72c21 49 68 82 134 82c17 0 34 -2 54 -7z" />
    <glyph glyph-name="racute" unicode="&#x155;" horiz-adv-x="393" 
d="M353 703l-98 -148h-90l75 148h113zM373 496v-113h-45c-88 0 -143 -47 -143 -143v-240h-122v493h115l7 -72c21 49 68 82 134 82c17 0 34 -2 54 -7z" />
    <glyph glyph-name="rcaron" unicode="&#x159;" horiz-adv-x="393" 
d="M147 555l-91 156h96l57 -99l57 99h96l-90 -156h-125zM373 496v-113h-45c-88 0 -143 -47 -143 -143v-240h-122v493h115l7 -72c21 49 68 82 134 82c17 0 34 -2 54 -7z" />
    <glyph glyph-name="rcommaaccent" unicode="&#x157;" horiz-adv-x="393" 
d="M373 496v-113h-45c-88 0 -143 -47 -143 -143v-240h-122v493h115l7 -72c21 49 68 82 134 82c17 0 34 -2 54 -7zM188 -113c0 -70 -45 -121 -120 -112v40c43 -4 67 9 69 39c-7 -4 -15 -6 -24 -6c-32 0 -54 25 -54 57c0 36 25 60 63 60c40 0 66 -30 66 -78z" />
    <glyph glyph-name="s" unicode="s" horiz-adv-x="463" 
d="M25 150h116c1 -43 33 -70 89 -70c57 0 88 23 88 59c0 25 -13 43 -57 53l-89 21c-89 20 -132 62 -132 141c0 97 82 155 196 155c111 0 186 -64 187 -160h-116c-1 42 -29 69 -76 69c-48 0 -76 -22 -76 -59c0 -28 22 -46 64 -56l89 -21c83 -19 125 -57 125 -133
c0 -100 -85 -162 -207 -162c-123 0 -201 66 -201 163z" />
    <glyph glyph-name="sacute" unicode="&#x15b;" horiz-adv-x="463" 
d="M380 710l-98 -148h-90l75 148h113zM25 150h116c1 -43 33 -70 89 -70c57 0 88 23 88 59c0 25 -13 43 -57 53l-89 21c-89 20 -132 62 -132 141c0 97 82 155 196 155c111 0 186 -64 187 -160h-116c-1 42 -29 69 -76 69c-48 0 -76 -22 -76 -59c0 -28 22 -46 64 -56l89 -21
c83 -19 125 -57 125 -133c0 -100 -85 -162 -207 -162c-123 0 -201 66 -201 163z" />
    <glyph glyph-name="scaron" unicode="&#x161;" horiz-adv-x="463" 
d="M174 562l-91 156h96l57 -99l57 99h96l-91 -156h-124zM25 150h116c1 -43 33 -70 89 -70c57 0 88 23 88 59c0 25 -13 43 -57 53l-89 21c-89 20 -132 62 -132 141c0 97 82 155 196 155c111 0 186 -64 187 -160h-116c-1 42 -29 69 -76 69c-48 0 -76 -22 -76 -59
c0 -28 22 -46 64 -56l89 -21c83 -19 125 -57 125 -133c0 -100 -85 -162 -207 -162c-123 0 -201 66 -201 163z" />
    <glyph glyph-name="scedilla" unicode="&#x15f;" horiz-adv-x="463" 
d="M25 150h116c1 -43 33 -70 89 -70c57 0 88 23 88 59c0 25 -13 43 -57 53l-89 21c-89 20 -132 62 -132 141c0 97 82 155 196 155c111 0 186 -64 187 -160h-116c-1 42 -29 69 -76 69c-48 0 -76 -22 -76 -59c0 -28 22 -46 64 -56l89 -21c83 -19 125 -57 125 -133
c0 -94 -75 -155 -186 -161l-17 -34c10 3 20 5 32 5c40 0 81 -23 81 -78c0 -62 -51 -94 -113 -94c-31 0 -54 6 -74 17v56c23 -11 42 -18 67 -18c34 0 52 15 52 38c0 22 -16 34 -42 34c-20 0 -33 -3 -49 -9l-12 34l23 49c-105 11 -170 73 -170 162z" />
    <glyph glyph-name="scircumflex" unicode="&#x15d;" horiz-adv-x="463" 
d="M179 562h-96l91 156h124l91 -156h-96l-57 99zM25 150h116c1 -43 33 -70 89 -70c57 0 88 23 88 59c0 25 -13 43 -57 53l-89 21c-89 20 -132 62 -132 141c0 97 82 155 196 155c111 0 186 -64 187 -160h-116c-1 42 -29 69 -76 69c-48 0 -76 -22 -76 -59c0 -28 22 -46 64 -56
l89 -21c83 -19 125 -57 125 -133c0 -100 -85 -162 -207 -162c-123 0 -201 66 -201 163z" />
    <glyph glyph-name="scommaaccent" unicode="&#x219;" horiz-adv-x="463" 
d="M25 150h116c1 -43 33 -70 89 -70c57 0 88 23 88 59c0 25 -13 43 -57 53l-89 21c-89 20 -132 62 -132 141c0 97 82 155 196 155c111 0 186 -64 187 -160h-116c-1 42 -29 69 -76 69c-48 0 -76 -22 -76 -59c0 -28 22 -46 64 -56l89 -21c83 -19 125 -57 125 -133
c0 -100 -85 -162 -207 -162c-123 0 -201 66 -201 163zM291 -113c0 -70 -45 -121 -121 -112v40c44 -4 66 9 69 38c-7 -3 -14 -5 -23 -5c-32 0 -55 25 -55 57c0 36 26 60 63 60c41 0 67 -30 67 -78z" />
    <glyph glyph-name="germandbls" unicode="&#xdf;" horiz-adv-x="595" 
d="M185 0h-122v515c0 142 92 229 233 229c137 0 222 -72 222 -188c0 -62 -30 -115 -80 -140c86 -35 131 -100 131 -188c0 -135 -97 -228 -254 -228c-27 0 -60 3 -79 7v104h77c86 0 133 49 133 122c0 78 -52 122 -150 122h-46v99h46c62 0 100 36 100 96c0 57 -37 94 -99 94
c-66 0 -112 -46 -112 -117v-527z" />
    <glyph glyph-name="t" unicode="t" horiz-adv-x="340" 
d="M231 0h-122v392h-95v102h95v154h122v-154h96v-102h-96v-392z" />
    <glyph glyph-name="tbar" unicode="&#x167;" horiz-adv-x="340" 
d="M231 0h-122v209h-71v94h71v89h-95v102h95v154h122v-154h96v-102h-96v-89h71v-94h-71v-209z" />
    <glyph glyph-name="tcaron" unicode="&#x165;" horiz-adv-x="340" 
d="M267 551v181h101l-27 -181h-74zM231 0h-122v392h-95v102h95v154h122v-154h96v-102h-96v-392z" />
    <glyph glyph-name="tcedilla" unicode="&#x163;" horiz-adv-x="340" 
d="M103 -196v56c23 -11 42 -18 67 -18c34 0 52 15 52 38c0 22 -16 34 -42 34c-20 0 -33 -3 -49 -9l-13 34l30 61h-39v392h-95v102h95v154h122v-154h96v-102h-96v-392h-31l-24 -46c10 3 21 5 33 5c39 0 80 -23 80 -78c0 -62 -51 -94 -112 -94c-32 0 -54 6 -74 17z" />
    <glyph glyph-name="tcommaaccent" unicode="&#x21b;" horiz-adv-x="340" 
d="M231 0h-122v392h-95v102h95v154h122v-154h96v-102h-96v-392zM238 -113c0 -70 -45 -121 -121 -112v40c44 -4 67 9 69 39c-7 -4 -15 -6 -23 -6c-32 0 -55 25 -55 57c0 36 26 60 63 60c40 0 67 -30 67 -78z" />
    <glyph glyph-name="u" unicode="u" horiz-adv-x="583" 
d="M398 494h122v-494h-113l-9 66c-30 -47 -94 -79 -160 -79c-114 0 -181 77 -181 198v309h122v-266c0 -94 37 -132 105 -132c77 0 114 45 114 139v259z" />
    <glyph glyph-name="uacute" unicode="&#xfa;" horiz-adv-x="583" 
d="M431 701l-97 -148h-91l75 148h113zM398 494h122v-494h-113l-9 66c-30 -47 -94 -79 -160 -79c-114 0 -181 77 -181 198v309h122v-266c0 -94 37 -132 105 -132c77 0 114 45 114 139v259z" />
    <glyph glyph-name="ucircumflex" unicode="&#xfb;" horiz-adv-x="583" 
d="M231 553h-96l90 156h125l90 -156h-95l-57 99zM398 494h122v-494h-113l-9 66c-30 -47 -94 -79 -160 -79c-114 0 -181 77 -181 198v309h122v-266c0 -94 37 -132 105 -132c77 0 114 45 114 139v259z" />
    <glyph glyph-name="udieresis" unicode="&#xfc;" horiz-adv-x="583" 
d="M199 565c-37 0 -67 30 -67 67c0 36 30 67 67 67c36 0 66 -31 66 -67c0 -37 -30 -67 -66 -67zM377 565c-37 0 -67 30 -67 67c0 36 31 67 67 67s66 -31 66 -67c0 -37 -30 -67 -66 -67zM398 494h122v-494h-113l-9 66c-30 -47 -94 -79 -160 -79c-114 0 -181 77 -181 198v309
h122v-266c0 -94 37 -132 105 -132c77 0 114 45 114 139v259z" />
    <glyph glyph-name="ugrave" unicode="&#xf9;" horiz-adv-x="583" 
d="M332 553h-91l-97 149h113zM398 494h122v-494h-113l-9 66c-30 -47 -94 -79 -160 -79c-114 0 -181 77 -181 198v309h122v-266c0 -94 37 -132 105 -132c77 0 114 45 114 139v259z" />
    <glyph glyph-name="uhungarumlaut" unicode="&#x171;" horiz-adv-x="583" 
d="M357 701l-97 -148h-86l81 148h102zM511 701l-102 -148h-87l86 148h103zM398 494h122v-494h-113l-9 66c-30 -47 -94 -79 -160 -79c-114 0 -181 77 -181 198v309h122v-266c0 -94 37 -132 105 -132c77 0 114 45 114 139v259z" />
    <glyph glyph-name="umacron" unicode="&#x16b;" horiz-adv-x="583" 
d="M154 590v86h268v-86h-268zM398 494h122v-494h-113l-9 66c-30 -47 -94 -79 -160 -79c-114 0 -181 77 -181 198v309h122v-266c0 -94 37 -132 105 -132c77 0 114 45 114 139v259z" />
    <glyph glyph-name="uogonek" unicode="&#x173;" horiz-adv-x="583" 
d="M445 0h-38l-9 66c-30 -47 -94 -79 -160 -79c-114 0 -181 77 -181 198v309h122v-266c0 -94 37 -132 105 -132c77 0 114 45 114 139v259h122v-494h-1c-49 -18 -71 -49 -71 -75c0 -22 15 -37 39 -37c8 0 18 2 27 6v-81c-15 -7 -31 -9 -50 -9c-61 0 -99 42 -99 93
c0 41 26 82 80 103z" />
    <glyph glyph-name="uring" unicode="&#x16f;" horiz-adv-x="583" 
d="M288 541c-75 0 -129 53 -129 127c0 73 56 128 129 128s128 -56 128 -128s-55 -127 -128 -127zM288 607c35 0 58 25 58 63c0 35 -24 60 -58 60c-35 0 -59 -24 -59 -60c0 -38 23 -63 59 -63zM398 494h122v-494h-113l-9 66c-30 -47 -94 -79 -160 -79
c-114 0 -181 77 -181 198v309h122v-266c0 -94 37 -132 105 -132c77 0 114 45 114 139v259z" />
    <glyph glyph-name="utilde" unicode="&#x169;" horiz-adv-x="583" 
d="M189 561h-72c-9 86 29 141 92 141c66 0 100 -59 142 -59c25 0 35 23 35 59h72c8 -95 -31 -141 -95 -141c-69 0 -103 59 -140 59c-24 0 -34 -22 -34 -59zM398 494h122v-494h-113l-9 66c-30 -47 -94 -79 -160 -79c-114 0 -181 77 -181 198v309h122v-266
c0 -94 37 -132 105 -132c77 0 114 45 114 139v259z" />
    <glyph glyph-name="v" unicode="v" horiz-adv-x="536" 
d="M203 0l-196 494h130l86 -227c21 -59 38 -110 44 -137c7 31 25 83 46 137l90 227h126l-206 -494h-120z" />
    <glyph glyph-name="w" unicode="w" horiz-adv-x="797" 
d="M172 0l-160 494h127l65 -212c11 -39 21 -82 30 -128c9 48 18 79 34 128l68 212h124l66 -212c6 -20 26 -94 32 -127c8 37 24 96 33 127l66 212h129l-171 -494h-114l-68 214c-20 65 -31 112 -35 137c-5 -23 -14 -58 -39 -139l-68 -212h-119z" />
    <glyph glyph-name="wacute" unicode="&#x1e83;" horiz-adv-x="797" 
d="M543 701l-98 -148h-90l75 148h113zM172 0l-160 494h127l65 -212c11 -39 21 -82 30 -128c9 48 18 79 34 128l68 212h124l66 -212c6 -20 26 -94 32 -127c8 37 24 96 33 127l66 212h129l-171 -494h-114l-68 214c-20 65 -31 112 -35 137c-5 -23 -14 -58 -39 -139l-68 -212
h-119z" />
    <glyph glyph-name="wcircumflex" unicode="&#x175;" horiz-adv-x="797" 
d="M342 553h-95l90 156h125l90 -156h-95l-57 99zM172 0l-160 494h127l65 -212c11 -39 21 -82 30 -128c9 48 18 79 34 128l68 212h124l66 -212c6 -20 26 -94 32 -127c8 37 24 96 33 127l66 212h129l-171 -494h-114l-68 214c-20 65 -31 112 -35 137c-5 -23 -14 -58 -39 -139
l-68 -212h-119z" />
    <glyph glyph-name="wdieresis" unicode="&#x1e85;" horiz-adv-x="797" 
d="M311 565c-37 0 -67 30 -67 67c0 36 30 67 67 67c36 0 66 -31 66 -67c0 -37 -30 -67 -66 -67zM489 565c-37 0 -67 30 -67 67c0 36 30 67 67 67c36 0 66 -31 66 -67c0 -37 -30 -67 -66 -67zM172 0l-160 494h127l65 -212c11 -39 21 -82 30 -128c9 48 18 79 34 128l68 212
h124l66 -212c6 -20 26 -94 32 -127c8 37 24 96 33 127l66 212h129l-171 -494h-114l-68 214c-20 65 -31 112 -35 137c-5 -23 -14 -58 -39 -139l-68 -212h-119z" />
    <glyph glyph-name="wgrave" unicode="&#x1e81;" horiz-adv-x="797" 
d="M444 553h-91l-97 149h113zM172 0l-160 494h127l65 -212c11 -39 21 -82 30 -128c9 48 18 79 34 128l68 212h124l66 -212c6 -20 26 -94 32 -127c8 37 24 96 33 127l66 212h129l-171 -494h-114l-68 214c-20 65 -31 112 -35 137c-5 -23 -14 -58 -39 -139l-68 -212h-119z" />
    <glyph glyph-name="x" unicode="x" horiz-adv-x="513" 
d="M149 0h-139l170 242l-170 252h142l109 -168l105 168h137l-168 -250l163 -244h-140l-105 163z" />
    <glyph glyph-name="y" unicode="y" horiz-adv-x="529" 
d="M20 -229v102h73c48 0 78 11 99 69l14 37l-199 515h129l127 -360l134 360h126l-242 -604c-37 -92 -89 -130 -170 -130c-34 0 -64 4 -91 11z" />
    <glyph glyph-name="yacute" unicode="&#xfd;" horiz-adv-x="529" 
d="M413 701l-98 -148h-90l75 148h113zM20 -229v102h73c48 0 78 11 99 69l14 37l-199 515h129l127 -360l134 360h126l-242 -604c-37 -92 -89 -130 -170 -130c-34 0 -64 4 -91 11z" />
    <glyph glyph-name="ycircumflex" unicode="&#x177;" horiz-adv-x="529" 
d="M212 553h-95l90 156h125l90 -156h-95l-57 99zM20 -229v102h73c48 0 78 11 99 69l14 37l-199 515h129l127 -360l134 360h126l-242 -604c-37 -92 -89 -130 -170 -130c-34 0 -64 4 -91 11z" />
    <glyph glyph-name="ydieresis" unicode="&#xff;" horiz-adv-x="529" 
d="M181 565c-37 0 -67 30 -67 67c0 36 30 67 67 67c36 0 66 -31 66 -67c0 -37 -30 -67 -66 -67zM359 565c-37 0 -67 30 -67 67c0 36 31 67 67 67s66 -31 66 -67c0 -37 -30 -67 -66 -67zM20 -229v102h73c48 0 78 11 99 69l14 37l-199 515h129l127 -360l134 360h126l-242 -604
c-37 -92 -89 -130 -170 -130c-34 0 -64 4 -91 11z" />
    <glyph glyph-name="ygrave" unicode="&#x1ef3;" horiz-adv-x="529" 
d="M314 553h-91l-97 149h113zM20 -229v102h73c48 0 78 11 99 69l14 37l-199 515h129l127 -360l134 360h126l-242 -604c-37 -92 -89 -130 -170 -130c-34 0 -64 4 -91 11z" />
    <glyph glyph-name="z" unicode="z" horiz-adv-x="473" 
d="M436 0h-399v100l246 292h-246v102h399v-101l-250 -291h250v-102z" />
    <glyph glyph-name="zacute" unicode="&#x17a;" horiz-adv-x="473" 
d="M380 701l-98 -148h-90l75 148h113zM436 0h-399v100l246 292h-246v102h399v-101l-250 -291h250v-102z" />
    <glyph glyph-name="zcaron" unicode="&#x17e;" horiz-adv-x="473" 
d="M174 553l-90 156h95l58 -99l57 99h95l-90 -156h-125zM436 0h-399v100l246 292h-246v102h399v-101l-250 -291h250v-102z" />
    <glyph glyph-name="zdotaccent" unicode="&#x17c;" horiz-adv-x="473" 
d="M236 565c-38 0 -69 31 -69 70c0 38 31 70 69 70s70 -33 70 -70c0 -38 -32 -70 -70 -70zM436 0h-399v100l246 292h-246v102h399v-101l-250 -291h250v-102z" />
    <glyph glyph-name="a.ss01" horiz-adv-x="620" 
d="M446 494h111v-494h-114l-8 77c-31 -51 -90 -90 -170 -90c-147 0 -231 112 -231 266c0 155 93 256 232 256c74 0 143 -32 173 -91zM433 247c0 89 -54 151 -139 151s-138 -63 -138 -151s52 -150 137 -150s140 61 140 150z" />
    <glyph glyph-name="g.ss02" horiz-adv-x="553" 
d="M49 309c0 117 91 200 219 200c41 0 87 -10 122 -27c21 46 68 74 123 74c7 0 14 0 20 -1v-99c-8 1 -14 1 -20 1c-29 0 -53 -10 -67 -29c30 -29 49 -75 49 -123c0 -113 -88 -189 -221 -189c-35 0 -67 5 -95 15c-28 -2 -44 -15 -44 -37c0 -26 20 -38 62 -38h154
c122 0 184 -46 184 -136c0 -106 -98 -164 -277 -164c-167 0 -238 37 -238 122c0 44 30 80 77 95c-40 16 -62 47 -62 89c0 49 30 85 84 100c-44 34 -70 85 -70 147zM167 312c0 -60 42 -99 106 -99c62 0 104 39 104 98c0 60 -43 101 -105 101s-105 -41 -105 -100zM120 -88
c0 -41 37 -57 142 -57c104 0 154 20 154 62c0 31 -20 43 -69 43h-166c-40 0 -61 -17 -61 -48z" />
    <glyph glyph-name="t.ss03" horiz-adv-x="355" 
d="M323 106l14 -99c-27 -12 -59 -18 -94 -18c-94 0 -153 48 -153 166v237h-76v102h76v154h121v-154h113v-102h-113v-216c0 -59 26 -79 63 -79c14 0 31 3 49 9z" />
    <glyph glyph-name="f_y" horiz-adv-x="831" 
d="M321 -229v102h73c48 0 78 11 100 69l14 37l-160 413h-142v-392h-121v392h-71v102h71v60c0 134 70 190 177 190c19 0 42 -1 63 -5v-104h-43c-62 0 -76 -32 -76 -81v-60h232l127 -360l133 360h126l-241 -604c-35 -86 -85 -130 -171 -130c-33 0 -64 4 -91 11z" />
    <glyph glyph-name="t_i" horiz-adv-x="613" 
d="M489 595c-41 0 -73 32 -73 73c0 40 32 72 73 72c40 0 72 -32 72 -72c0 -41 -32 -73 -72 -73zM231 0h-122v392h-95v102h95v154h122v-154h318v-494h-123v392h-195v-392z" />
    <glyph glyph-name="t_t" horiz-adv-x="671" 
d="M231 0h-122v393h-95v101h95v154h122v-154h210v154h122v-154h95v-101h-95v-393h-122v393h-210v-393z" />
    <glyph glyph-name="t_y" horiz-adv-x="849" 
d="M230 0h-121v393h-95v101h95v154h121v-154h226l127 -360l133 360h127l-242 -604c-35 -86 -84 -130 -171 -130c-33 0 -63 4 -90 11v102h73c47 0 77 11 99 69l14 37l-161 414h-135v-393z" />
    <glyph glyph-name="Omega" unicode="&#x3a9;" horiz-adv-x="657" 
d="M293 0h-230v92h88c-48 46 -78 108 -78 181c0 130 103 236 257 236c156 0 255 -109 255 -235c0 -73 -31 -136 -80 -182h89v-92h-229v92c75 31 114 98 114 169c0 88 -66 145 -150 145s-150 -57 -150 -145c0 -77 44 -143 114 -169v-92z" />
    <glyph glyph-name="pi" unicode="&#x3c0;" horiz-adv-x="643" 
d="M106 0v394h-91v100h596v-100h-98v-241c0 -34 18 -47 50 -47l48 -1v-100c-33 -6 -68 -8 -94 -8c-87 0 -126 40 -126 133v264h-163v-394h-122z" />
    <glyph glyph-name="zero" unicode="0" horiz-adv-x="705" 
d="M43 364c0 227 122 381 309 381s310 -154 310 -381c0 -226 -116 -377 -310 -377s-309 151 -309 377zM169 364c0 -169 68 -264 183 -264c116 0 184 95 184 264c0 173 -68 268 -184 268c-115 0 -183 -95 -183 -268z" />
    <glyph glyph-name="one" unicode="1" horiz-adv-x="398" 
d="M194 616h-160v115h283v-731h-123v616z" />
    <glyph glyph-name="two" unicode="2" horiz-adv-x="589" 
d="M553 1l-507 -1v96l239 202c99 84 132 132 132 202c0 83 -45 130 -122 130c-80 0 -130 -56 -131 -150h-127c1 160 103 264 258 264c156 0 253 -89 253 -237c0 -102 -56 -179 -167 -274l-132 -113h304v-119z" />
    <glyph glyph-name="three" unicode="3" horiz-adv-x="569" 
d="M259 362h-89v83l188 173h-304v113h464v-102l-178 -164c112 -22 199 -104 199 -233c0 -150 -117 -245 -265 -245c-143 0 -254 88 -254 246h126c0 -84 52 -132 130 -132c80 0 133 52 133 133c0 74 -48 128 -150 128z" />
    <glyph glyph-name="four" unicode="4" horiz-adv-x="646" 
d="M609 139h-89v-139h-121v139h-371v112l331 480h161v-480h89v-112zM164 251h235v342z" />
    <glyph glyph-name="five" unicode="5" horiz-adv-x="600" 
d="M295 -12c-153 0 -254 98 -254 246h127c0 -83 49 -132 130 -132c86 0 141 56 141 145c0 85 -51 143 -139 143c-56 0 -107 -28 -133 -66l-113 24l90 383h381v-118h-289l-39 -152c35 23 79 36 129 36c146 0 243 -99 243 -243c0 -158 -111 -266 -274 -266z" />
    <glyph glyph-name="six" unicode="6" horiz-adv-x="620" 
d="M147 516l158 215h146l-175 -233c18 5 37 8 55 8c151 0 253 -106 253 -254c0 -156 -116 -265 -272 -265c-158 0 -276 116 -276 266c0 88 29 152 111 263zM167 252c0 -89 59 -151 145 -151c83 0 143 62 143 151c0 88 -59 149 -143 149c-87 0 -145 -61 -145 -149z" />
    <glyph glyph-name="seven" unicode="7" horiz-adv-x="538" 
d="M7 731h525v-118l-265 -613h-133l270 613h-397v118z" />
    <glyph glyph-name="eight" unicode="8" horiz-adv-x="641" 
d="M42 207c0 87 49 157 125 186c-64 29 -99 84 -99 155c0 116 103 196 254 196c150 0 251 -79 251 -198c0 -71 -36 -126 -101 -153c77 -27 127 -98 127 -186c0 -132 -109 -219 -279 -219c-169 0 -278 86 -278 219zM184 537c0 -61 53 -100 136 -100c82 0 134 38 134 99
s-52 99 -134 99c-83 0 -136 -38 -136 -98zM167 216c0 -71 59 -115 154 -115c93 0 152 44 152 115s-59 115 -153 115s-153 -44 -153 -115z" />
    <glyph glyph-name="nine" unicode="9" horiz-adv-x="620" 
d="M473 215l-158 -215h-146l175 233c-18 -5 -37 -8 -55 -8c-151 0 -253 106 -253 254c0 156 116 265 272 265c158 0 276 -116 276 -266c0 -88 -29 -152 -111 -263zM453 479c0 89 -59 151 -145 151c-84 0 -143 -62 -143 -151c0 -88 59 -149 143 -149c87 0 145 61 145 149z
" />
    <glyph glyph-name="zero.tf" 
d="M37 364c0 227 110 380 293 380s293 -153 293 -380c0 -231 -106 -377 -293 -377s-293 146 -293 377zM163 364c0 -167 53 -264 167 -264s167 97 167 264c0 170 -53 268 -167 268s-167 -98 -167 -268z" />
    <glyph glyph-name="one.tf" 
d="M280 113v503h-183v115h306v-618h188v-113h-502v113h191z" />
    <glyph glyph-name="two.tf" 
d="M589 1l-507 -1v96l239 202c99 84 132 132 132 202c0 83 -45 130 -122 130c-80 0 -130 -56 -131 -150h-127c1 160 103 264 258 264c156 0 253 -89 253 -237c0 -102 -56 -179 -167 -274l-132 -113h304v-119z" />
    <glyph glyph-name="three.tf" 
d="M300 362h-88v83l188 173h-304v113h464v-102l-178 -164c111 -22 199 -104 199 -233c0 -150 -118 -245 -266 -245c-143 0 -254 88 -254 246h127c0 -84 51 -132 130 -132c80 0 132 52 132 133c0 74 -47 128 -150 128z" />
    <glyph glyph-name="four.tf" 
d="M609 139h-89v-139h-121v139h-371v112l331 480h161v-480h89v-112zM164 251h235v342z" />
    <glyph glyph-name="five.tf" 
d="M320 -12c-154 0 -254 98 -254 246h126c0 -83 49 -132 130 -132c87 0 141 56 141 145c0 85 -51 143 -139 143c-56 0 -107 -28 -133 -66l-113 24l90 383h381v-118h-288l-40 -153c35 24 80 37 130 37c146 0 243 -99 243 -243c0 -158 -112 -266 -274 -266z" />
    <glyph glyph-name="six.tf" 
d="M167 516l158 215h146l-175 -233c18 5 37 8 55 8c151 0 253 -106 253 -254c0 -156 -116 -265 -272 -265c-158 0 -276 116 -276 266c0 88 29 152 111 263zM187 252c0 -89 59 -151 145 -151c84 0 143 62 143 151c0 88 -59 149 -143 149c-87 0 -145 -61 -145 -149z" />
    <glyph glyph-name="seven.tf" 
d="M67 731h525v-118l-265 -613h-132l269 613h-397v118z" />
    <glyph glyph-name="eight.tf" 
d="M51 207c0 87 49 158 126 186c-64 29 -100 84 -100 155c0 116 103 196 254 196c150 0 251 -79 251 -198c0 -71 -36 -126 -101 -153c78 -27 128 -98 128 -186c0 -132 -110 -219 -279 -219c-170 0 -279 86 -279 219zM194 537c0 -61 53 -100 135 -100s135 38 135 99
s-53 99 -135 99s-135 -38 -135 -98zM176 216c0 -71 60 -115 154 -115s153 44 153 115s-60 115 -154 115c-93 0 -153 -44 -153 -115z" />
    <glyph glyph-name="nine.tf" 
d="M493 215l-158 -215h-146l175 233c-18 -5 -37 -8 -55 -8c-151 0 -253 106 -253 254c0 156 116 265 272 265c158 0 276 -116 276 -266c0 -88 -29 -152 -111 -263zM473 479c0 89 -59 151 -145 151c-83 0 -143 -62 -143 -151c0 -88 59 -149 143 -149c87 0 145 61 145 149z
" />
    <glyph glyph-name="zero.inferior" unicode="&#x2080;" horiz-adv-x="427" 
d="M25 119c0 137 75 230 189 230c119 0 188 -93 188 -230s-74 -227 -189 -227c-118 0 -188 90 -188 227zM108 119c0 -99 39 -153 106 -153s105 54 105 153c0 101 -38 155 -105 155s-106 -54 -106 -155z" />
    <glyph glyph-name="one.inferior" unicode="&#x2081;" horiz-adv-x="254" 
d="M127 265h-107v76h190v-441h-83v365z" />
    <glyph glyph-name="two.inferior" unicode="&#x2082;" horiz-adv-x="359" 
d="M335 -100h-306v63l161 134c40 33 58 62 58 100c0 50 -24 77 -69 77c-46 0 -73 -31 -73 -86h-82c3 99 62 161 155 161c94 0 152 -56 152 -147c0 -58 -29 -106 -84 -152l-90 -75h178v-75z" />
    <glyph glyph-name="three.inferior" unicode="&#x2083;" horiz-adv-x="356" 
d="M142 114h-33v54l113 98h-182v75h282v-70l-109 -95c66 -11 120 -56 120 -137c0 -91 -71 -147 -159 -147c-87 0 -154 55 -154 150h81c0 -48 30 -75 75 -75c44 0 74 29 74 73c0 40 -23 70 -76 73c-10 1 -18 1 -32 1z" />
    <glyph glyph-name="four.inferior" unicode="&#x2084;" horiz-adv-x="386" 
d="M374 -19h-53v-81h-80v81h-222v75l198 285h104v-286h53v-74zM112 55h129v189z" />
    <glyph glyph-name="five.inferior" unicode="&#x2085;" horiz-adv-x="362" 
d="M18 44h82c0 -46 32 -77 80 -77c50 0 81 32 81 83c0 52 -32 85 -81 85c-34 0 -57 -12 -74 -38l-77 11l56 233h233v-75h-169l-21 -79c18 11 40 16 67 16c87 0 150 -64 150 -152c0 -94 -67 -158 -163 -158c-95 0 -164 63 -164 151z" />
    <glyph glyph-name="six.inferior" unicode="&#x2086;" horiz-adv-x="386" 
d="M91 218l96 130h94l-109 -146c11 4 23 6 34 6c93 0 156 -61 156 -152c0 -96 -72 -164 -168 -164c-97 0 -170 72 -170 164c0 55 17 94 67 162zM109 53c0 -50 35 -86 85 -86c49 0 84 36 84 86c0 49 -35 87 -84 87c-50 0 -85 -38 -85 -87z" />
    <glyph glyph-name="seven.inferior" unicode="&#x2087;" horiz-adv-x="340" 
d="M322 266l-148 -366h-82l151 366h-226v75h305v-75z" />
    <glyph glyph-name="eight.inferior" unicode="&#x2088;" horiz-adv-x="384" 
d="M24 21c0 53 31 98 81 114c-37 16 -59 50 -59 94c0 71 57 120 147 120c88 0 147 -47 147 -121c0 -45 -25 -79 -62 -93c50 -15 82 -59 82 -114c0 -79 -66 -128 -168 -128c-103 0 -168 49 -168 128zM116 222c0 -33 26 -56 76 -56c48 0 74 22 74 55c0 34 -27 57 -74 57
c-48 0 -76 -23 -76 -56zM107 32c0 -42 34 -65 85 -65c52 0 85 23 85 65c0 41 -35 64 -85 64s-85 -22 -85 -64z" />
    <glyph glyph-name="nine.inferior" unicode="&#x2089;" horiz-adv-x="386" 
d="M295 30l-96 -130h-94l110 147c-12 -4 -24 -6 -35 -6c-92 0 -156 60 -156 151c0 97 72 164 168 164c97 0 170 -72 170 -164c0 -54 -17 -94 -67 -162zM277 195c0 50 -34 87 -85 87c-49 0 -84 -37 -84 -87c0 -49 35 -86 84 -86c51 0 85 37 85 86z" />
    <glyph glyph-name="zero.dnom" horiz-adv-x="367" 
d="M31 178c0 111 58 186 152 186c98 0 153 -76 153 -186c0 -111 -59 -185 -153 -185c-98 0 -152 75 -152 185zM103 178c0 -78 28 -119 80 -119c53 0 80 41 80 119c0 80 -28 121 -80 121s-80 -41 -80 -121z" />
    <glyph glyph-name="one.dnom" horiz-adv-x="227" 
d="M106 292h-90v66h161v-358h-71v292z" />
    <glyph glyph-name="two.dnom" horiz-adv-x="312" 
d="M290 0h-258v53l118 93c39 32 57 61 57 93c0 38 -21 60 -55 60c-35 0 -57 -22 -57 -60h-73c0 74 53 125 131 125s126 -47 126 -121c0 -52 -25 -96 -81 -141l-46 -37h138v-65z" />
    <glyph glyph-name="three.dnom" horiz-adv-x="298" 
d="M19 116h73c0 -37 23 -57 57 -57c33 0 54 21 54 54c0 34 -21 58 -69 58h-43v47l83 75h-138v65h231v-60l-83 -75c51 -11 92 -47 92 -109c0 -75 -56 -121 -129 -121c-70 0 -128 44 -128 123z" />
    <glyph glyph-name="four.dnom" horiz-adv-x="327" 
d="M190 68h-177v58l158 232h87v-226h46v-64h-46v-68h-68v68zM92 132h98v144z" />
    <glyph glyph-name="five.dnom" horiz-adv-x="315" 
d="M155 -6c-71 0 -130 44 -130 124h73c0 -38 23 -59 57 -59c40 0 62 26 62 64c0 40 -25 66 -62 66c-25 0 -48 -12 -58 -31l-68 9l47 191h197v-65h-146l-17 -60c13 9 31 15 55 15c80 0 125 -55 125 -125c0 -76 -55 -129 -135 -129z" />
    <glyph glyph-name="six.dnom" horiz-adv-x="332" 
d="M81 260l73 98h84l-84 -111c7 2 15 3 23 3c76 0 127 -49 127 -123c0 -78 -57 -133 -137 -133s-140 57 -140 133c0 46 12 76 54 133zM99 125c0 -40 28 -66 68 -66c39 0 65 26 65 66c0 38 -27 66 -65 66c-39 0 -68 -28 -68 -66z" />
    <glyph glyph-name="seven.dnom" horiz-adv-x="281" 
d="M196 292h-183v66h255v-66l-127 -292h-73z" />
    <glyph glyph-name="eight.dnom" horiz-adv-x="325" 
d="M28 99c0 43 25 79 64 92c-29 13 -47 42 -47 77c0 57 47 96 118 96s117 -37 117 -96c0 -37 -19 -65 -48 -77c39 -12 66 -48 66 -92c0 -64 -54 -105 -136 -105c-81 0 -134 41 -134 105zM107 259c0 -25 20 -42 55 -42s55 18 55 43c0 24 -20 42 -55 42s-55 -18 -55 -43z
M100 108c0 -32 26 -49 62 -49c37 0 62 17 62 49s-26 49 -62 49s-62 -17 -62 -49z" />
    <glyph glyph-name="nine.dnom" horiz-adv-x="332" 
d="M251 98l-73 -98h-84l83 111c-7 -2 -15 -3 -22 -3c-76 0 -128 49 -128 123c0 78 58 133 138 133c79 0 139 -57 139 -133c0 -46 -11 -76 -53 -133zM232 233c0 40 -27 66 -67 66c-39 0 -66 -26 -66 -66c0 -38 28 -66 66 -66c39 0 67 28 67 66z" />
    <glyph glyph-name="zero.numr" horiz-adv-x="367" 
d="M31 552c0 110 58 185 152 185c98 0 153 -76 153 -186c0 -111 -59 -185 -153 -185c-98 0 -152 75 -152 186zM103 551c0 -78 28 -119 80 -119c53 0 80 41 80 119c0 80 -28 121 -80 121s-80 -41 -80 -121z" />
    <glyph glyph-name="one.numr" horiz-adv-x="227" 
d="M106 665h-90v66h161v-358h-71v292z" />
    <glyph glyph-name="two.numr" horiz-adv-x="312" 
d="M290 373h-258v53l118 93c39 32 57 61 57 93c0 38 -21 60 -55 60c-35 0 -57 -22 -57 -59h-73c0 73 53 124 131 124s126 -46 126 -121c0 -52 -25 -96 -81 -141l-46 -37h138v-65z" />
    <glyph glyph-name="three.numr" horiz-adv-x="298" 
d="M19 490h73c0 -38 23 -58 57 -58c33 0 54 21 54 54c0 34 -21 58 -69 58h-43v47l83 75h-138v65h231v-60l-83 -75c51 -11 92 -46 92 -109c0 -75 -56 -121 -129 -121c-70 0 -128 44 -128 124z" />
    <glyph glyph-name="four.numr" horiz-adv-x="327" 
d="M190 441h-177v58l158 232h87v-226h46v-64h-46v-68h-68v68zM92 505h98v144z" />
    <glyph glyph-name="five.numr" horiz-adv-x="315" 
d="M155 367c-71 0 -130 44 -130 124h73c0 -38 23 -59 57 -59c40 0 62 26 62 65s-25 65 -62 65c-25 0 -48 -12 -58 -31l-68 10l47 190h197v-65h-146l-17 -60c13 9 31 15 55 15c80 0 125 -55 125 -124c0 -77 -55 -130 -135 -130z" />
    <glyph glyph-name="six.numr" horiz-adv-x="332" 
d="M81 633l73 98h84l-83 -110c7 2 15 3 22 3c76 0 127 -50 127 -124c0 -78 -57 -133 -137 -133s-140 57 -140 133c0 46 12 77 54 133zM99 498c0 -40 28 -66 68 -66c39 0 65 26 65 66c0 38 -27 66 -65 66c-39 0 -68 -28 -68 -66z" />
    <glyph glyph-name="seven.numr" horiz-adv-x="281" 
d="M196 665h-183v66h255v-66l-127 -292h-73z" />
    <glyph glyph-name="eight.numr" horiz-adv-x="325" 
d="M28 472c0 43 25 79 64 92c-29 13 -47 42 -47 78c0 56 47 95 118 95s117 -37 117 -96c0 -37 -19 -65 -48 -77c39 -12 66 -48 66 -92c0 -64 -54 -105 -136 -105c-81 0 -134 41 -134 105zM107 632c0 -24 20 -42 55 -42s55 18 55 43s-20 42 -55 42s-55 -17 -55 -43zM100 481
c0 -32 26 -49 62 -49c37 0 62 18 62 49c0 32 -26 49 -62 49s-62 -17 -62 -49z" />
    <glyph glyph-name="nine.numr" horiz-adv-x="332" 
d="M251 471l-73 -98h-84l83 111c-7 -2 -15 -3 -22 -3c-76 0 -128 49 -128 123c0 78 58 133 138 133c79 0 139 -57 139 -133c0 -46 -11 -76 -53 -133zM232 607c0 39 -27 65 -67 65c-39 0 -66 -26 -66 -65s28 -67 66 -67c39 0 67 28 67 67z" />
    <glyph glyph-name="zero.superior" unicode="&#x2070;" horiz-adv-x="426" 
d="M25 546c0 137 75 230 189 230c119 0 188 -93 188 -230s-74 -227 -189 -227c-118 0 -188 90 -188 227zM108 546c0 -99 39 -153 106 -153s105 54 105 153c0 101 -38 155 -105 155s-106 -54 -106 -155z" />
    <glyph glyph-name="onesuperior" unicode="&#xb9;" horiz-adv-x="254" 
d="M127 695h-107v76h190v-441h-83v365z" />
    <glyph glyph-name="twosuperior" unicode="&#xb2;" horiz-adv-x="359" 
d="M335 330h-306v63l161 134c40 33 58 62 58 100c0 50 -24 77 -69 77c-46 0 -73 -31 -73 -86h-82c3 99 62 161 155 161c94 0 152 -56 152 -147c0 -58 -29 -106 -84 -152l-90 -75h178v-75z" />
    <glyph glyph-name="threesuperior" unicode="&#xb3;" horiz-adv-x="356" 
d="M142 544h-33v54l113 98h-182v75h282v-70l-109 -95c66 -11 120 -56 120 -137c0 -91 -71 -147 -159 -147c-87 0 -154 55 -154 150h81c0 -48 30 -75 75 -75c44 0 74 29 74 73c0 40 -23 70 -76 73c-10 1 -18 1 -32 1z" />
    <glyph glyph-name="four.superior" unicode="&#x2074;" horiz-adv-x="379" 
d="M374 411h-53v-81h-80v81h-222v75l198 285h104v-286h53v-74zM112 485h129v189z" />
    <glyph glyph-name="five.superior" unicode="&#x2075;" horiz-adv-x="362" 
d="M18 474h82c0 -46 32 -77 80 -77c50 0 81 32 81 83c0 52 -32 85 -81 85c-34 0 -57 -12 -74 -38l-77 11l56 233h233v-75h-169l-21 -79c18 11 40 16 67 16c87 0 150 -64 150 -152c0 -94 -67 -158 -163 -158c-95 0 -164 63 -164 151z" />
    <glyph glyph-name="six.superior" unicode="&#x2076;" horiz-adv-x="386" 
d="M91 648l96 130h94l-109 -146c11 4 23 6 34 6c93 0 156 -61 156 -152c0 -96 -72 -164 -168 -164c-97 0 -170 72 -170 164c0 55 17 94 67 162zM109 483c0 -50 35 -86 85 -86c49 0 84 36 84 86c0 49 -35 87 -84 87c-50 0 -85 -38 -85 -87z" />
    <glyph glyph-name="seven.superior" unicode="&#x2077;" horiz-adv-x="340" 
d="M322 696l-148 -366h-82l151 366h-226v75h305v-75z" />
    <glyph glyph-name="eight.superior" unicode="&#x2078;" horiz-adv-x="384" 
d="M24 451c0 53 31 98 81 114c-37 16 -59 50 -59 94c0 71 57 120 147 120c88 0 147 -47 147 -121c0 -45 -25 -79 -62 -93c50 -15 82 -59 82 -114c0 -79 -66 -128 -168 -128c-103 0 -168 49 -168 128zM116 652c0 -33 26 -56 76 -56c48 0 74 22 74 55c0 34 -27 57 -74 57
c-48 0 -76 -23 -76 -56zM107 462c0 -42 34 -65 85 -65c52 0 85 23 85 65c0 41 -35 64 -85 64s-85 -22 -85 -64z" />
    <glyph glyph-name="nine.superior" unicode="&#x2079;" horiz-adv-x="386" 
d="M295 460l-96 -130h-94l110 147c-12 -4 -24 -6 -35 -6c-92 0 -156 60 -156 151c0 97 72 164 168 164c97 0 170 -72 170 -164c0 -54 -17 -94 -67 -162zM277 625c0 50 -34 87 -85 87c-49 0 -84 -37 -84 -87c0 -49 35 -86 84 -86c51 0 85 37 85 86z" />
    <glyph glyph-name="fraction" unicode="&#x2044;" horiz-adv-x="163" 
d="M367 710l-473 -710h-98l473 710h98z" />
    <glyph glyph-name="onehalf" unicode="&#xbd;" horiz-adv-x="742" 
d="M106 665h-90v66h161v-358h-71v292zM634 710l-473 -710h-98l472 710h99zM720 0h-258v53l117 93c40 32 57 61 57 93c0 38 -20 60 -54 60c-36 0 -58 -22 -58 -60h-72c0 74 53 125 131 125s126 -47 126 -121c0 -52 -25 -96 -82 -141l-45 -37h138v-65z" />
    <glyph glyph-name="onequarter" unicode="&#xbc;" horiz-adv-x="707" 
d="M106 665h-90v66h161v-358h-71v292zM634 710l-473 -710h-98l472 710h99zM569 68h-176v58l157 232h88v-226h46v-64h-46v-68h-69v68zM472 132h97v142z" />
    <glyph glyph-name="threequarters" unicode="&#xbe;" horiz-adv-x="738" 
d="M19 490h73c0 -38 23 -58 57 -58c33 0 54 21 54 54c0 34 -21 58 -69 58h-43v47l83 75h-138v65h231v-60l-83 -75c51 -11 92 -46 92 -109c0 -75 -56 -121 -129 -121c-70 0 -128 44 -128 124zM665 710l-473 -710h-99l473 710h99zM600 68h-176v58l157 232h88v-226h46v-64h-46
v-68h-69v68zM503 132h97v142z" />
    <glyph glyph-name="oneeighth" unicode="&#x215b;" horiz-adv-x="755" 
d="M106 665h-90v66h161v-358h-71v292zM634 710l-473 -710h-98l472 710h99zM457 99c0 43 25 79 65 92c-29 13 -47 42 -47 77c0 57 46 96 118 96c70 0 116 -37 116 -96c0 -37 -19 -65 -47 -77c39 -12 65 -48 65 -92c0 -64 -53 -105 -135 -105s-135 41 -135 105zM537 259
c0 -25 19 -42 55 -42c34 0 55 18 55 43c0 24 -21 42 -55 42c-35 0 -55 -18 -55 -43zM530 108c0 -32 25 -49 62 -49s62 17 62 49s-26 49 -62 49s-62 -17 -62 -49z" />
    <glyph glyph-name="threeeighths" unicode="&#x215c;" horiz-adv-x="786" 
d="M19 490h73c0 -38 23 -58 57 -58c33 0 54 21 54 54c0 34 -21 58 -69 58h-43v47l83 75h-138v65h231v-60l-83 -75c51 -11 92 -46 92 -109c0 -75 -56 -121 -129 -121c-70 0 -128 44 -128 124zM665 710l-473 -710h-99l473 710h99zM488 99c0 43 26 79 65 92
c-29 13 -47 42 -47 77c0 57 46 96 118 96c70 0 116 -37 116 -96c0 -37 -19 -66 -48 -77c40 -12 66 -48 66 -92c0 -64 -53 -105 -135 -105s-135 41 -135 105zM568 259c0 -25 19 -42 55 -42c34 0 54 18 54 43c0 24 -20 42 -54 42c-35 0 -55 -18 -55 -43zM561 108
c0 -32 25 -49 62 -49s62 17 62 49s-26 49 -62 49s-62 -17 -62 -49z" />
    <glyph glyph-name="fiveeighths" unicode="&#x215d;" horiz-adv-x="803" 
d="M155 367c-71 0 -130 44 -130 124h73c0 -38 23 -59 57 -59c40 0 62 26 62 65s-25 65 -62 65c-25 0 -48 -12 -58 -31l-68 10l47 190h197v-65h-146l-17 -60c13 9 31 15 55 15c80 0 125 -55 125 -124c0 -77 -55 -130 -135 -130zM682 710l-473 -710h-98l473 710h98zM506 99
c0 43 25 79 64 92c-29 13 -47 42 -47 77c0 57 47 96 118 96c70 0 117 -37 117 -96c0 -37 -19 -65 -48 -77c39 -12 65 -48 65 -92c0 -64 -53 -105 -135 -105s-134 41 -134 105zM585 259c0 -25 19 -42 55 -42c35 0 55 18 55 43c0 24 -21 42 -55 42c-35 0 -55 -18 -55 -43z
M578 108c0 -32 25 -49 62 -49s62 17 62 49s-26 49 -62 49s-62 -17 -62 -49z" />
    <glyph glyph-name="seveneighths" unicode="&#x215e;" horiz-adv-x="729" 
d="M196 665h-183v66h255v-66l-127 -292h-73zM608 710l-473 -710h-99l473 710h99zM431 99c0 43 25 79 64 92c-28 13 -47 42 -47 77c0 57 47 96 118 96s117 -37 117 -96c0 -37 -19 -65 -48 -77c40 -12 66 -48 66 -92c0 -64 -54 -105 -135 -105c-82 0 -135 41 -135 105z
M511 259c0 -25 19 -42 55 -42c34 0 54 18 54 43c0 24 -20 42 -54 42c-35 0 -55 -18 -55 -43zM504 108c0 -32 25 -49 62 -49s62 17 62 49s-26 49 -62 49s-62 -17 -62 -49z" />
    <glyph glyph-name="asterisk" unicode="*" horiz-adv-x="420" 
d="M91 565l-67 24l23 61l65 -21c34 -12 53 -23 74 -37c-6 24 -9 48 -9 82v71h65v-71c0 -34 -3 -59 -8 -82c19 13 39 25 73 37l66 22l23 -62l-68 -24c-32 -11 -58 -15 -80 -18c21 -18 36 -33 54 -60l40 -60l-54 -37l-40 57c-21 29 -31 52 -40 73c-7 -26 -20 -50 -37 -73
l-42 -57l-54 37l40 60c20 28 36 43 56 60c-28 4 -50 7 -80 18z" />
    <glyph glyph-name="asterism" unicode="&#x2042;" horiz-adv-x="935" 
d="M348 567l-67 24l24 61l65 -21c33 -13 52 -24 73 -37c-5 24 -9 48 -9 82v71h66v-71c0 -34 -4 -60 -9 -82c21 14 39 25 74 37l65 22l24 -62l-68 -24c-32 -12 -58 -15 -81 -18c21 -17 34 -33 55 -60l40 -60l-54 -37l-41 57c-20 29 -31 52 -39 72c-7 -22 -18 -44 -37 -72
l-43 -57l-54 37l41 60c21 27 36 43 56 60c-23 3 -49 6 -81 18zM91 177l-67 24l24 62l64 -22c34 -13 53 -24 74 -37c-5 24 -9 48 -9 82v71h66v-71c0 -34 -4 -59 -9 -82c19 13 40 24 74 37l65 22l24 -62l-69 -24c-31 -11 -58 -15 -80 -17c21 -19 34 -34 55 -61l39 -60l-54 -36
l-40 56c-21 29 -31 52 -40 73c-6 -22 -17 -45 -37 -73l-42 -57l-54 37l41 60c20 27 36 43 55 61c-21 2 -47 5 -80 17zM606 177l-68 24l25 62l64 -22c33 -13 53 -24 73 -37c-4 24 -9 48 -9 82v71h66v-71c0 -34 -3 -59 -8 -82c19 13 39 24 73 37l66 22l23 -62l-68 -24
c-31 -11 -57 -15 -80 -17c21 -19 34 -34 55 -61l39 -60l-54 -36l-40 56c-21 29 -32 52 -40 73c-7 -22 -18 -45 -37 -73l-43 -57l-53 37l41 60c20 27 35 43 55 61c-22 2 -48 5 -80 17z" />
    <glyph glyph-name="backslash" unicode="\" horiz-adv-x="407" 
d="M122 730l285 -730h-121l-286 730h122z" />
    <glyph glyph-name="periodcentered" unicode="&#xb7;" horiz-adv-x="333" 
d="M167 172c-59 0 -108 48 -108 106c0 59 49 107 108 107c58 0 107 -49 107 -107c0 -57 -49 -106 -107 -106z" />
    <glyph glyph-name="bullet" unicode="&#x2022;" horiz-adv-x="434" 
d="M218 113c-86 0 -159 71 -159 156c0 86 73 158 159 158s157 -73 157 -158s-73 -156 -157 -156z" />
    <glyph glyph-name="colon" unicode=":" horiz-adv-x="311" 
d="M155 352c-44 0 -81 36 -81 79c0 44 37 80 81 80s81 -36 81 -80c0 -43 -37 -79 -81 -79zM155 -12c-44 0 -81 36 -81 79c0 44 37 80 81 80s81 -36 81 -80c0 -43 -37 -79 -81 -79z" />
    <glyph glyph-name="comma" unicode="," horiz-adv-x="291" 
d="M226 44c0 -83 -60 -149 -141 -159v49c45 8 79 35 79 70c-8 -4 -17 -6 -29 -6c-39 0 -71 29 -71 69c0 48 31 80 76 80c50 0 86 -41 86 -103z" />
    <glyph glyph-name="ellipsis" unicode="&#x2026;" horiz-adv-x="789" 
d="M145 -12c-44 0 -81 36 -81 79c0 44 37 80 81 80s81 -36 81 -80c0 -43 -37 -79 -81 -79zM394 -12c-44 0 -81 36 -81 79c0 44 37 80 81 80s81 -36 81 -80c0 -43 -37 -79 -81 -79zM643 -12c-44 0 -81 36 -81 79c0 44 37 80 81 80s81 -36 81 -80c0 -43 -37 -79 -81 -79z" />
    <glyph glyph-name="exclam" unicode="!" horiz-adv-x="320" 
d="M208 219h-98c-13 80 -22 214 -22 344v168h144v-168c0 -133 -10 -267 -24 -344zM160 -13c-45 0 -82 36 -82 79c0 44 37 80 82 80c43 0 80 -36 80 -80c0 -43 -37 -79 -80 -79z" />
    <glyph glyph-name="exclamdown" unicode="&#xa1;" horiz-adv-x="320" 
d="M160 744c43 0 80 -36 80 -79c0 -44 -37 -80 -80 -80c-45 0 -82 36 -82 80c0 43 37 79 82 79zM110 512h98c14 -77 24 -211 24 -344v-168h-144v168c0 130 9 264 22 344z" />
    <glyph glyph-name="numbersign" unicode="#" horiz-adv-x="719" 
d="M64 303h95l25 124h-110l23 114h109l37 190h121l-37 -190h127l37 190h121l-37 -190h103l-23 -114h-102l-24 -124h114l-23 -114h-113l-37 -189h-121l37 189h-128l-37 -189h-121l37 189h-96zM280 303h128l24 124h-127z" />
    <glyph glyph-name="period" unicode="." horiz-adv-x="291" 
d="M145 -12c-44 0 -81 36 -81 79c0 44 37 80 81 80s81 -36 81 -80c0 -43 -37 -79 -81 -79z" />
    <glyph glyph-name="question" unicode="?" horiz-adv-x="554" 
d="M307 187h-111v23c0 91 56 138 109 179c45 36 86 70 86 128c0 68 -42 113 -112 113c-71 0 -120 -53 -120 -130h-127c0 143 105 244 250 244c149 0 239 -86 239 -219c0 -107 -69 -158 -127 -199c-49 -35 -87 -65 -87 -116v-23zM256 -13c-45 0 -81 36 -81 79
c0 44 36 80 81 80c44 0 81 -36 81 -80c0 -42 -37 -79 -81 -79z" />
    <glyph glyph-name="questiondown" unicode="&#xbf;" horiz-adv-x="554" 
d="M297 745c45 0 82 -36 82 -80s-37 -80 -82 -80c-43 0 -80 37 -80 80s37 80 80 80zM246 545h111v-24c0 -91 -56 -137 -108 -179c-46 -35 -87 -69 -87 -128c0 -67 42 -113 113 -113s120 54 120 130h126c0 -142 -104 -244 -249 -244c-149 0 -240 87 -240 220
c0 107 69 158 127 198c50 35 87 66 87 116v24z" />
    <glyph glyph-name="quotedbl" unicode="&#x22;" horiz-adv-x="434" 
d="M185 657l-30 -216h-65l-30 216c-9 56 29 79 65 79c30 0 68 -23 60 -79zM375 657l-30 -216h-65l-30 216c-9 56 29 79 65 79c30 0 68 -23 60 -79z" />
    <glyph glyph-name="quotesingle" unicode="'" horiz-adv-x="244" 
d="M185 657l-30 -216h-65l-30 216c-9 56 29 79 65 79c30 0 68 -23 60 -79z" />
    <glyph glyph-name="semicolon" unicode=";" horiz-adv-x="311" 
d="M155 352c-44 0 -81 36 -81 79c0 44 37 80 81 80s81 -36 81 -80c0 -43 -37 -79 -81 -79zM236 44c0 -83 -60 -149 -141 -159v49c45 8 79 35 79 70c-8 -4 -17 -6 -29 -6c-39 0 -71 29 -71 69c0 48 31 80 76 80c50 0 86 -41 86 -103z" />
    <glyph glyph-name="slash" unicode="/" horiz-adv-x="407" 
d="M121 0h-121l285 730h122z" />
    <glyph glyph-name="underscore" unicode="_" horiz-adv-x="545" 
d="M60 -107v90h425v-90h-425z" />
    <glyph glyph-name="braceleft" unicode="{" horiz-adv-x="349" 
d="M45 323v97c69 0 102 32 102 89v206c0 73 51 121 128 121h69v-95h-45c-25 0 -41 -16 -41 -47v-199c0 -67 -29 -105 -87 -124c58 -18 87 -56 87 -123v-199c0 -31 16 -48 41 -48h45v-94h-69c-77 0 -128 47 -128 121v205c0 58 -33 90 -102 90z" />
    <glyph glyph-name="braceright" unicode="}" horiz-adv-x="349" 
d="M74 -93h-69v94h45c25 0 41 17 41 48v199c0 67 29 105 87 123c-58 19 -87 57 -87 124v199c0 31 -16 47 -41 47h-45v95h69c77 0 128 -48 128 -121v-206c0 -57 33 -89 102 -89v-97c-69 0 -102 -32 -102 -90v-205c0 -74 -51 -121 -128 -121z" />
    <glyph glyph-name="bracketleft" unicode="[" horiz-adv-x="306" 
d="M178 1h123v-94h-234v929h234v-95h-123v-740z" />
    <glyph glyph-name="bracketright" unicode="]" horiz-adv-x="306" 
d="M5 -93v94h123v740h-123v95h233v-929h-233z" />
    <glyph glyph-name="parenleft" unicode="(" horiz-adv-x="308" 
d="M308 -191h-97c-100 114 -166 293 -166 485c0 175 56 359 166 484h97c-83 -113 -140 -290 -140 -484c0 -177 49 -361 140 -485z" />
    <glyph glyph-name="parenright" unicode=")" horiz-adv-x="308" 
d="M97 -191h-97c92 124 140 308 140 485c0 194 -57 371 -140 484h97c110 -125 167 -309 167 -484c0 -192 -67 -371 -167 -485z" />
    <glyph glyph-name="emdash" unicode="&#x2014;" horiz-adv-x="1211" 
d="M69 212v108h1074v-108h-1074z" />
    <glyph glyph-name="endash" unicode="&#x2013;" horiz-adv-x="977" 
d="M69 212v108h840v-108h-840z" />
    <glyph glyph-name="hyphen" unicode="-" horiz-adv-x="445" 
d="M62 213v108h322v-108h-322z" />
    <glyph glyph-name="guillemotleft" unicode="&#xab;" horiz-adv-x="722" 
d="M256 0l-216 247l216 247h156l-217 -247l217 -247h-156zM526 0l-216 247l216 247h156l-217 -247l217 -247h-156z" />
    <glyph glyph-name="guillemotright" unicode="&#xbb;" horiz-adv-x="722" 
d="M195 0h-155l216 247l-216 247h155l217 -247zM465 0h-155l216 247l-216 247h155l217 -247z" />
    <glyph glyph-name="guilsinglleft" unicode="&#x2039;" horiz-adv-x="452" 
d="M256 0l-216 247l216 247h156l-217 -247l217 -247h-156z" />
    <glyph glyph-name="guilsinglright" unicode="&#x203a;" horiz-adv-x="452" 
d="M195 0h-155l216 247l-216 247h155l217 -247z" />
    <glyph glyph-name="quotedblbase" unicode="&#x201e;" horiz-adv-x="479" 
d="M218 37c0 -84 -56 -149 -136 -159v49c43 8 74 34 74 70c-8 -4 -17 -6 -28 -6c-36 0 -65 26 -65 69c0 44 30 75 74 75c47 0 81 -38 81 -98zM416 37c0 -84 -56 -149 -136 -159v49c43 8 73 34 73 70c-8 -4 -17 -6 -28 -6c-36 0 -64 26 -64 69c0 44 30 75 74 75
c47 0 81 -38 81 -98z" />
    <glyph glyph-name="quotedblleft" unicode="&#x201c;" horiz-adv-x="479" 
d="M218 563c0 -44 -30 -75 -74 -75c-47 0 -81 38 -81 98c0 84 56 149 136 159v-48c-43 -8 -73 -35 -73 -70c8 3 17 5 28 5c36 0 64 -26 64 -69zM416 563c0 -44 -30 -75 -74 -75c-47 0 -81 38 -81 98c0 84 56 149 136 159v-48c-43 -8 -74 -35 -74 -71c8 4 17 6 28 6
c36 0 65 -26 65 -69z" />
    <glyph glyph-name="quotedblright" unicode="&#x201d;" horiz-adv-x="479" 
d="M218 647c0 -84 -56 -149 -136 -159v48c43 8 74 35 74 70c-8 -3 -17 -5 -28 -5c-36 0 -65 25 -65 69s30 75 74 75c47 0 81 -38 81 -98zM416 647c0 -84 -56 -149 -136 -159v48c43 8 73 35 73 70c-8 -3 -17 -5 -28 -5c-36 0 -64 25 -64 69s30 75 74 75c47 0 81 -38 81 -98z
" />
    <glyph glyph-name="quoteleft" unicode="&#x2018;" horiz-adv-x="281" 
d="M218 563c0 -44 -30 -75 -74 -75c-47 0 -81 38 -81 98c0 84 56 149 136 159v-48c-43 -8 -73 -35 -73 -70c8 3 17 5 28 5c36 0 64 -26 64 -69z" />
    <glyph glyph-name="quoteright" unicode="&#x2019;" horiz-adv-x="281" 
d="M218 647c0 -84 -56 -149 -136 -159v48c43 8 74 35 74 70c-8 -3 -17 -5 -28 -5c-36 0 -65 25 -65 69s30 75 74 75c47 0 81 -38 81 -98z" />
    <glyph glyph-name="quotesinglbase" unicode="&#x201a;" horiz-adv-x="281" 
d="M218 37c0 -84 -56 -149 -136 -159v49c43 8 74 34 74 70c-8 -4 -17 -6 -28 -6c-36 0 -65 26 -65 69c0 44 30 75 74 75c47 0 81 -38 81 -98z" />
    <glyph glyph-name="space" unicode=" " horiz-adv-x="270" 
 />
    <glyph glyph-name="cent" unicode="&#xa2;" horiz-adv-x="574" 
d="M239 -1v111c-118 23 -195 120 -195 255c0 133 78 232 195 255v111h103v-110c109 -16 181 -86 193 -190h-123c-14 56 -54 85 -116 85c-77 0 -130 -59 -130 -151s52 -150 130 -150c64 0 103 30 116 84h123c-12 -102 -86 -175 -193 -191v-109h-103z" />
    <glyph glyph-name="currency" unicode="&#xa4;" horiz-adv-x="712" 
d="M576 68l-78 78c-41 -27 -90 -42 -141 -42c-52 0 -101 15 -142 42l-79 -78l-79 81l79 77c-25 40 -40 88 -40 138c0 51 15 99 40 139l-79 78l79 80l79 -77c40 26 89 42 142 42c52 0 100 -15 141 -42l78 77l79 -80l-78 -77c26 -40 41 -88 41 -140c0 -51 -15 -98 -41 -139
l78 -76zM506 364c0 82 -67 149 -149 149c-83 0 -149 -67 -149 -149c0 -81 67 -148 149 -148c81 0 149 67 149 148z" />
    <glyph glyph-name="dollar" unicode="$" horiz-adv-x="592" 
d="M260 -95v83c-139 10 -228 91 -231 213h128c1 -57 38 -93 103 -101v213l-32 7c-126 27 -189 97 -189 207c0 117 88 201 221 215v85h77v-85c126 -13 204 -92 208 -212h-124c-2 54 -32 89 -84 100v-215l34 -8c128 -28 186 -90 186 -196c0 -122 -86 -206 -220 -221v-85h-77z
M256 433l4 -1v199c-60 -10 -96 -46 -96 -100c0 -53 28 -84 92 -98zM344 295l-7 2v-195c60 12 96 47 96 98s-29 82 -89 95z" />
    <glyph glyph-name="Euro" unicode="&#x20ac;" horiz-adv-x="618" 
d="M446 -12c-176 0 -308 92 -353 250h-75v91h60c-1 11 -1 23 -1 35s0 24 1 35h-60v91h76c45 160 180 254 363 254c37 0 78 -5 111 -15v-120c-32 9 -75 15 -105 15c-119 0 -201 -45 -238 -134h251v-91h-272c-1 -11 -1 -22 -1 -33c0 -13 1 -25 2 -37h271v-91h-250
c37 -87 116 -131 227 -131c40 0 82 7 122 19v-123c-46 -10 -86 -15 -129 -15z" />
    <glyph glyph-name="florin" unicode="&#x192;" horiz-adv-x="625" 
d="M73 406h183l20 157c14 109 86 177 202 177h93v-117h-100c-36 0 -60 -19 -66 -67l-19 -150h179v-114h-194l-41 -315c-13 -100 -70 -158 -197 -158h-85v117h87c35 0 62 20 67 58l39 298h-168v114z" />
    <glyph glyph-name="sterling" unicode="&#xa3;" horiz-adv-x="650" 
d="M386 0h-359v119c68 5 113 58 113 130c0 23 -5 47 -12 71h-96v95h64c-10 31 -18 63 -18 95c0 133 102 234 253 234c141 0 243 -84 247 -223h-128c-4 74 -52 109 -123 109c-75 0 -125 -46 -125 -118c0 -34 9 -65 19 -97h226v-95h-194c5 -21 9 -43 9 -66
c0 -58 -24 -111 -76 -135h181c92 0 120 45 121 124h123c0 -154 -80 -243 -225 -243z" />
    <glyph glyph-name="yen" unicode="&#xa5;" horiz-adv-x="657" 
d="M230 373l-210 358h145l163 -304l164 304h145l-210 -358h128v-91h-166v-58h166v-91h-166v-133h-121v133h-167v91h167v58h-167v91h129z" />
    <glyph glyph-name="plus" unicode="+" 
d="M80 388h199v199h102v-199h199v-102h-199v-200h-102v200h-199v102z" />
    <glyph glyph-name="minus" unicode="&#x2212;" 
d="M80 388h500v-102h-500v102z" />
    <glyph glyph-name="multiply" unicode="&#xd7;" 
d="M167 573l164 -163l163 163l73 -72l-164 -164l164 -164l-73 -72l-163 164l-165 -165l-73 72l165 165l-164 164z" />
    <glyph glyph-name="divide" unicode="&#xf7;" 
d="M331 421c-41 0 -76 34 -76 73c0 41 35 74 76 74c39 0 74 -33 74 -74c0 -39 -35 -73 -74 -73zM80 356h500v-103h-500v103zM331 40c-41 0 -76 34 -76 74s35 73 76 73c39 0 74 -33 74 -73s-35 -74 -74 -74z" />
    <glyph glyph-name="equal" unicode="=" 
d="M80 460h500v-103h-500v103zM80 245h500v-103h-500v103z" />
    <glyph glyph-name="notequal" unicode="&#x2260;" 
d="M119 18l67 124h-106v103h162l61 112h-223v103h279l67 124h116l-67 -124h105v-103h-162l-60 -112h222v-103h-279l-67 -124h-115z" />
    <glyph glyph-name="greater" unicode="&#x3e;" 
d="M580 185l-500 -176v119l380 121l-380 121v119l500 -175v-129z" />
    <glyph glyph-name="less" unicode="&#x3c;" 
d="M580 128v-119l-500 176v129l500 175v-119l-380 -121z" />
    <glyph glyph-name="greaterequal" unicode="&#x2265;" 
d="M580 291l-500 -168v119l380 114l-380 114v119l500 -169v-129zM80 103h500v-103h-500v103z" />
    <glyph glyph-name="lessequal" unicode="&#x2264;" 
d="M580 242v-119l-500 168v129l500 169v-119l-380 -114zM80 0v103h500v-103h-500z" />
    <glyph glyph-name="plusminus" unicode="&#xb1;" 
d="M80 446h199v162h102v-162h199v-102h-199v-163h-102v163h-199v102zM80 0v103h500v-103h-500z" />
    <glyph glyph-name="approxequal" unicode="&#x2248;" 
d="M486 489h94c0 -99 -54 -172 -139 -172c-95 0 -153 78 -213 78c-40 0 -53 -28 -54 -69h-94c0 95 54 168 139 168c91 0 149 -78 213 -78c40 0 53 28 54 73zM486 290h94c0 -99 -54 -173 -139 -173c-95 0 -153 79 -213 79c-40 0 -53 -29 -54 -70h-94c0 96 54 168 139 168
c91 0 149 -78 213 -78c40 0 53 28 54 74z" />
    <glyph glyph-name="asciitilde" unicode="~" 
d="M486 392h94c0 -99 -54 -172 -139 -172c-95 0 -153 78 -213 78c-40 0 -53 -28 -54 -69h-94c0 95 54 168 139 168c91 0 149 -78 213 -78c40 0 53 28 54 73z" />
    <glyph glyph-name="logicalnot" unicode="&#xac;" 
d="M567 377v-288h-116v184h-389v104h505z" />
    <glyph glyph-name="emptyset" unicode="&#x2205;" horiz-adv-x="844" 
d="M419 -12c-96 0 -181 37 -244 99l-83 -76l-57 62l87 79c-37 60 -59 134 -59 214c0 217 153 378 356 378c97 0 183 -37 246 -99l88 80l56 -62l-91 -83c37 -60 58 -133 58 -214c0 -215 -156 -378 -357 -378zM183 366c0 -50 10 -95 28 -133l368 334c-40 40 -96 63 -160 63
c-138 0 -236 -108 -236 -264zM419 102c139 0 237 110 237 264c0 50 -10 95 -28 133l-368 -335c41 -39 96 -62 159 -62z" />
    <glyph glyph-name="infinity" unicode="&#x221e;" horiz-adv-x="899" 
d="M46 287c0 118 85 204 203 204c84 0 141 -36 201 -120c59 84 116 120 199 120c119 0 204 -86 204 -204c0 -117 -85 -202 -204 -202c-84 0 -140 36 -199 119c-60 -83 -116 -119 -201 -119c-117 0 -203 85 -203 202zM157 287c0 -57 37 -96 94 -96c54 0 98 33 126 96
c-28 65 -71 97 -126 97c-57 0 -94 -38 -94 -97zM521 287c28 -63 73 -96 127 -96c56 0 94 39 94 96c0 58 -37 97 -94 97c-55 0 -99 -32 -127 -97z" />
    <glyph glyph-name="integral" unicode="&#x222b;" horiz-adv-x="444" 
d="M114 -13h-84v111h75c35 0 55 19 55 66v403c0 107 70 177 170 177h84v-110h-75c-36 0 -56 -20 -56 -66v-403c0 -107 -70 -178 -169 -178z" />
    <glyph glyph-name="increment" unicode="&#x2206;" horiz-adv-x="700" 
d="M653 0h-606v108l242 623h121l243 -624v-107zM336 530l-161 -423h351l-164 423c-5 13 -10 27 -13 38c-3 -13 -11 -35 -13 -38z" />
    <glyph glyph-name="product" unicode="&#x220f;" horiz-adv-x="705" 
d="M209 0h-128v731h543v-731h-128v613h-287v-613z" />
    <glyph glyph-name="summation" unicode="&#x2211;" horiz-adv-x="573" 
d="M526 0h-485v129l212 239l-212 235v128h485v-118h-338l217 -245l-219 -250h340v-118z" />
    <glyph glyph-name="radical" unicode="&#x221a;" horiz-adv-x="732" 
d="M197 0l-197 493h127l129 -336l217 575h233v-111h-150l-241 -621h-118z" />
    <glyph glyph-name="micro" unicode="&#xb5;" horiz-adv-x="583" 
d="M180 -229h-123v723h122v-266c0 -94 37 -132 105 -132c77 0 114 45 114 139v259h122v-494h-113l-9 66c-30 -47 -71 -79 -135 -79c-45 0 -77 21 -97 49z" />
    <glyph glyph-name="partialdiff" unicode="&#x2202;" horiz-adv-x="645" 
d="M50 255c0 164 118 267 257 267c47 0 101 -15 138 -49c-34 84 -95 170 -204 262h156c139 -136 198 -288 198 -436c0 -211 -131 -312 -279 -312c-144 0 -266 99 -266 268zM173 254c0 -92 62 -158 149 -158c86 0 149 66 149 160c0 91 -62 157 -148 157
c-88 0 -150 -67 -150 -159z" />
    <glyph glyph-name="percent" unicode="%" horiz-adv-x="959" 
d="M416 553c0 -113 -80 -192 -191 -192s-191 79 -191 192c0 112 80 192 191 192s191 -80 191 -192zM817 730l-555 -730h-122l555 730h122zM319 553c0 58 -38 98 -94 98s-93 -40 -93 -98s38 -98 93 -98c56 0 94 40 94 98zM924 179c0 -112 -79 -192 -190 -192
c-112 0 -191 80 -191 192s79 192 191 192c111 0 190 -80 190 -192zM827 179c0 58 -38 98 -93 98c-56 0 -94 -40 -94 -98s38 -98 94 -98c55 0 93 40 93 98z" />
    <glyph glyph-name="perthousand" unicode="&#x2030;" horiz-adv-x="1378" 
d="M416 553c0 -113 -80 -192 -191 -192s-191 79 -191 192c0 112 80 192 191 192s191 -80 191 -192zM817 730l-555 -730h-122l555 730h122zM319 553c0 58 -38 98 -94 98s-93 -40 -93 -98s38 -98 93 -98c56 0 94 40 94 98zM924 179c0 -112 -79 -192 -190 -192
c-112 0 -191 80 -191 192s79 192 191 192c111 0 190 -80 190 -192zM1343 179c0 -112 -79 -192 -190 -192c-112 0 -191 80 -191 192s79 192 191 192c111 0 190 -80 190 -192zM827 179c0 58 -38 98 -93 98c-56 0 -94 -40 -94 -98s38 -98 94 -98c55 0 93 40 93 98zM1246 179
c0 58 -38 98 -93 98c-56 0 -94 -40 -94 -98s38 -98 94 -98c55 0 93 40 93 98z" />
    <glyph glyph-name="arrowup" unicode="&#x2191;" horiz-adv-x="827" 
d="M126 405l-66 66l353 351l354 -351l-66 -66l-241 238v-643h-93v643z" />
    <glyph glyph-name="arrowNE" unicode="&#x2197;" horiz-adv-x="852" 
d="M294 638v93h498v-497h-94v338l-572 -572l-66 65l572 573h-338z" />
    <glyph glyph-name="arrowright" unicode="&#x2192;" horiz-adv-x="974" 
d="M495 590l66 66l353 -352l-353 -352l-66 66l239 240h-674v92l674 1z" />
    <glyph glyph-name="arrowSE" unicode="&#x2198;" horiz-adv-x="850" 
d="M697 499h93v-498h-498v94h338l-570 571l65 65l571 -570z" />
    <glyph glyph-name="arrowdown" unicode="&#x2193;" horiz-adv-x="823" 
d="M699 302l64 -66l-352 -352l-351 352l67 66l238 -239v687h93v-687z" />
    <glyph glyph-name="arrowSW" unicode="&#x2199;" horiz-adv-x="853" 
d="M559 93l-1 -93h-498l1 497h94v-338l572 573l66 -65l-573 -574h339z" />
    <glyph glyph-name="arrowleft" unicode="&#x2190;" horiz-adv-x="974" 
d="M479 -1l-66 -67l-353 351l353 353l66 -65l-239 -240h674v-93h-674z" />
    <glyph glyph-name="arrowNW" unicode="&#x2196;" horiz-adv-x="834" 
d="M60 731l497 -1v-93l-338 -1l555 -571l-66 -65l-555 571v-339l-93 1v498z" />
    <glyph glyph-name="arrowboth" unicode="&#x2194;" horiz-adv-x="1128" 
d="M60 274l275 273v-134l-98 -94l231 1v1h200v-1l225 -1l-99 95v133l274 -273l-274 -276v133l98 95h-657l100 -96v-133z" />
    <glyph glyph-name="arrowupdn" unicode="&#x2195;" horiz-adv-x="670" 
d="M333 -182l-273 275h133l95 -99l-1 233h-1v198h1l1 225l-95 -98h-133l273 274l277 -274h-134l-95 99v-658l95 100h134z" />
    <glyph glyph-name="circleblack" unicode="&#x25cf;" horiz-adv-x="896" 
d="M448 -55c-214 0 -388 174 -388 388s175 388 388 388s388 -174 388 -388s-174 -388 -388 -388z" />
    <glyph glyph-name="circle" unicode="&#x25cb;" horiz-adv-x="896" 
d="M448 -55c-214 0 -388 174 -388 388s175 388 388 388s388 -174 388 -388s-174 -388 -388 -388zM448 31c167 0 302 136 302 302c0 165 -136 302 -302 302s-302 -136 -302 -302s136 -302 302 -302z" />
    <glyph glyph-name="lozenge" unicode="&#x25ca;" horiz-adv-x="641" 
d="M581 355l-202 -355h-117l-202 355l202 355h117zM457 355l-136 249l-137 -249l137 -248z" />
    <glyph glyph-name="filledbox" unicode="&#x25a0;" horiz-adv-x="830" 
d="M60 0v710h710v-710h-710z" />
    <glyph glyph-name="squarewhite" unicode="&#x25a1;" horiz-adv-x="830" 
d="M60 0v710h710v-710h-710zM678 618h-526v-526h526v526z" />
    <glyph glyph-name="triagup" unicode="&#x25b2;" horiz-adv-x="966" 
d="M60 0l423 710l423 -710h-846z" />
    <glyph glyph-name="triangleupwhite" unicode="&#x25b3;" horiz-adv-x="967" 
d="M484 713l423 -710h-847zM207 84h552l-276 462z" />
    <glyph glyph-name="peace" unicode="&#x262e;" horiz-adv-x="896" 
d="M448 -55c-214 0 -388 174 -388 388s175 388 388 388s388 -174 388 -388s-174 -388 -388 -388zM146 333c0 -42 9 -83 25 -119l239 163v256c-148 -19 -264 -147 -264 -300zM750 333c0 152 -115 279 -262 299v-255l238 -163c15 37 24 77 24 119zM211 147
c48 -61 119 -103 199 -114v249zM488 282v-248c80 10 150 52 198 113z" />
    <glyph glyph-name="check" unicode="&#x2713;" horiz-adv-x="706" 
d="M253 7l-216 233l70 75l142 -152l311 374l79 -67z" />
    <glyph glyph-name="at" unicode="@" horiz-adv-x="944" 
d="M262 225c0 80 58 134 168 142l135 11v10c0 57 -32 86 -93 86c-66 0 -103 -27 -103 -75h-94c0 97 79 161 202 161c125 0 196 -69 196 -190v-155c0 -38 17 -56 51 -56c55 0 92 73 92 181c0 192 -141 329 -340 329c-200 0 -348 -151 -348 -353c0 -203 148 -354 348 -354
c72 0 145 25 208 69l35 -68c-70 -50 -154 -76 -243 -76c-246 0 -429 183 -429 429c0 245 184 428 429 428c244 0 421 -170 421 -404c0 -154 -74 -255 -189 -255c-69 0 -113 30 -127 85c-20 -50 -85 -85 -157 -85c-101 0 -162 53 -162 140zM375 229c0 -40 26 -60 78 -60
c70 0 113 41 113 109v24l-95 -8c-68 -6 -96 -26 -96 -65z" />
    <glyph glyph-name="ampersand" unicode="&#x26;" horiz-adv-x="736" 
d="M581 0l-49 55c-58 -44 -132 -68 -220 -68c-159 0 -266 84 -266 207c0 89 58 162 170 216c-57 66 -79 111 -79 166c0 97 79 167 187 167c107 0 181 -66 181 -161c0 -73 -39 -131 -130 -192l147 -165c13 35 20 77 20 125h119c0 -85 -20 -158 -57 -216l119 -134h-142z
M253 577c0 -36 16 -66 63 -120c51 30 76 71 76 121c0 43 -26 68 -68 68c-44 0 -71 -26 -71 -69zM175 206c0 -71 57 -114 151 -114c55 0 100 15 135 43l-186 209c-69 -39 -100 -81 -100 -138z" />
    <glyph glyph-name="paragraph" unicode="&#xb6;" horiz-adv-x="603" 
d="M27 530c0 124 78 201 191 201h147v-817h-105v413h-42c-114 0 -191 76 -191 203zM502 -88h-46v818h46v-818z" />
    <glyph glyph-name="section" unicode="&#xa7;" horiz-adv-x="483" 
d="M451 376c0 -57 -36 -106 -90 -130c49 -24 70 -60 70 -111c0 -86 -82 -147 -195 -147c-111 0 -187 63 -187 160h115c1 -42 29 -69 77 -69c49 0 77 22 77 58c0 29 -24 50 -65 59l-96 22c-89 20 -125 68 -125 137c0 57 36 106 90 132c-49 23 -70 59 -70 110
c0 86 82 148 196 148c111 0 186 -64 187 -161h-116c-1 43 -29 70 -76 70c-49 0 -77 -22 -77 -59c0 -29 23 -49 65 -58l95 -23c89 -21 125 -68 125 -138zM337 366c0 45 -32 78 -95 78c-64 0 -96 -33 -96 -78s32 -77 96 -77c63 0 95 32 95 77z" />
    <glyph glyph-name="copyright" unicode="&#xa9;" horiz-adv-x="821" 
d="M411 -13c-208 0 -371 167 -371 379s163 378 371 378c207 0 370 -166 370 -378s-163 -379 -370 -379zM411 61c165 0 291 132 291 305s-126 304 -291 304c-166 0 -293 -132 -293 -304c0 -173 127 -305 293 -305zM223 365c0 116 79 198 190 198c100 0 170 -56 181 -146h-94
c-11 42 -39 63 -84 63c-59 0 -100 -46 -100 -114c0 -70 39 -114 97 -114c47 0 77 21 88 62h93c-11 -87 -84 -146 -181 -146c-114 0 -190 79 -190 197z" />
    <glyph glyph-name="registered" unicode="&#xae;" horiz-adv-x="506" 
d="M254 320c-122 0 -214 92 -214 212s93 212 214 212s212 -91 212 -212s-91 -212 -212 -212zM254 358c99 0 172 74 172 174s-73 174 -172 174c-100 0 -173 -74 -173 -174s73 -174 173 -174zM209 416h-41v239h96c53 0 88 -27 88 -73c0 -31 -17 -58 -48 -70l52 -96h-45l-45 86
h-57v-86zM309 579c0 25 -16 37 -46 37h-54v-77h54c29 0 46 15 46 40z" />
    <glyph glyph-name="soundcopyright" unicode="&#x2117;" horiz-adv-x="506" 
d="M254 320c-122 0 -214 92 -214 212s93 212 214 212s212 -91 212 -212s-91 -212 -212 -212zM254 358c99 0 172 74 172 174s-73 174 -172 174c-100 0 -173 -74 -173 -174s73 -174 173 -174zM220 411h-41v238h94c54 0 91 -32 91 -81c0 -53 -35 -87 -91 -87h-53v-70zM220 610
v-90h53c30 0 47 16 47 46s-17 44 -47 44h-53z" />
    <glyph glyph-name="trademark" unicode="&#x2122;" horiz-adv-x="650" 
d="M120 684h-94v47h238v-47h-94v-236h-50v236zM345 448h-47v283h47l99 -233l99 233h47v-283h-47v183l-78 -183h-42l-78 180v-180z" />
    <glyph glyph-name="degree" unicode="&#xb0;" horiz-adv-x="312" 
d="M288 612c0 -75 -56 -132 -132 -132s-132 57 -132 132c0 76 56 132 132 132s132 -56 132 -132zM219 612c0 40 -26 66 -63 66c-38 0 -63 -27 -63 -66c0 -38 25 -65 63 -65c37 0 63 26 63 65z" />
    <glyph glyph-name="bar" unicode="|" horiz-adv-x="336" 
d="M121 -88v878h95v-878h-95z" />
    <glyph glyph-name="brokenbar" unicode="&#xa6;" horiz-adv-x="336" 
d="M216 790v-350h-95v350h95zM121 -88v350h95v-350h-95z" />
    <glyph glyph-name="dagger" unicode="&#x2020;" horiz-adv-x="334" 
d="M129 285v274h-107v72h107v100h75v-100h108v-72h-108v-274h-75z" />
    <glyph glyph-name="daggerdbl" unicode="&#x2021;" horiz-adv-x="336" 
d="M129 285v109h-105v72h105v84h-107v72h107v109h75v-109h108v-72h-108v-84h110v-72h-110v-109h-75z" />
    <glyph glyph-name="estimated" unicode="&#x212e;" horiz-adv-x="779" 
d="M60 353c0 211 138 357 330 357c193 0 329 -123 329 -329c0 -19 0 -38 -1 -53h-558v-180c52 -74 136 -117 242 -117c103 0 196 54 238 133l38 -14c-49 -98 -153 -159 -278 -159c-204 0 -340 147 -340 362zM160 546v-182h459v200c-50 68 -134 106 -229 106
c-100 0 -181 -50 -230 -124z" />
    <glyph glyph-name="numero" unicode="&#x2116;" horiz-adv-x="1284" 
d="M1238 509c0 -135 -104 -235 -242 -235c-137 0 -244 104 -244 235c0 134 105 236 244 236c138 0 242 -101 242 -236zM207 0h-126v731h127l343 -518v518h126v-731h-126l-344 518v-518zM1124 508c0 76 -52 128 -128 128c-77 0 -130 -52 -130 -128c0 -71 57 -127 130 -127
s128 54 128 127zM1215 116h-440v105h440v-105z" />
    <glyph glyph-name="asciicircum" unicode="^" horiz-adv-x="517" 
d="M171 400h-105l133 331h119l133 -331h-105l-88 230z" />
    <glyph glyph-name="minute" unicode="&#x2032;" horiz-adv-x="189" 
d="M144 682l-21 -190h-58l-22 190c-5 43 23 63 51 63c27 0 55 -20 50 -63z" />
    <glyph glyph-name="registered.ss01" horiz-adv-x="610" 
d="M306 217c-150 0 -266 115 -266 264c0 148 116 263 266 263s264 -114 264 -263c0 -150 -113 -264 -264 -264zM306 266c122 0 212 92 212 215s-90 214 -212 214c-123 0 -214 -91 -214 -214c0 -124 91 -215 214 -215zM260 348h-50v271h109c62 0 101 -33 101 -85
c0 -36 -17 -62 -51 -79l57 -107h-56l-48 94h-62v-94zM366 531c0 27 -18 42 -51 42h-55v-85h55c31 0 51 17 51 43z" />
    <glyph glyph-name="dieresiscomb" unicode="&#x308;" horiz-adv-x="422" 
d="M122 781c-37 0 -66 30 -66 67c0 36 30 67 66 67s67 -31 67 -67c0 -37 -31 -67 -67 -67zM300 781c-37 0 -66 30 -66 67c0 36 30 67 66 67s67 -31 67 -67c0 -37 -31 -67 -67 -67z" />
    <glyph glyph-name="dotaccentcomb" unicode="&#x307;" horiz-adv-x="226" 
d="M113 781c-39 0 -70 31 -70 70c0 38 32 70 70 70s70 -33 70 -70c0 -38 -32 -70 -70 -70z" />
    <glyph glyph-name="gravecomb" unicode="&#x300;" horiz-adv-x="276" 
d="M235 769h-91l-97 149h113z" />
    <glyph glyph-name="acutecomb" unicode="&#x301;" horiz-adv-x="277" 
d="M230 917l-98 -148h-90l75 148h113z" />
    <glyph glyph-name="hungarumlautcomb" unicode="&#x30b;" horiz-adv-x="439" 
d="M224 917l-97 -148h-86l81 148h102zM378 917l-102 -148h-87l86 148h103z" />
    <glyph glyph-name="circumflexcomb" unicode="&#x302;" horiz-adv-x="386" 
d="M136 769h-96l90 156h125l91 -156h-96l-57 99z" />
    <glyph glyph-name="caroncomb" unicode="&#x30c;" horiz-adv-x="386" 
d="M130 769l-90 156h96l57 -99l57 99h96l-91 -156h-125z" />
    <glyph glyph-name="brevecomb" unicode="&#x306;" horiz-adv-x="421" 
d="M278 919h89c0 -97 -61 -158 -156 -158c-97 0 -157 61 -157 158h89c0 -48 24 -75 68 -75c43 0 67 28 67 75z" />
    <glyph glyph-name="ringcomb" unicode="&#x30a;" horiz-adv-x="333" 
d="M166 757c-74 0 -128 53 -128 127c0 73 56 128 128 128c73 0 129 -56 129 -128s-55 -127 -129 -127zM166 823c36 0 59 25 59 63c0 35 -24 60 -59 60c-34 0 -58 -24 -58 -60c0 -38 23 -63 58 -63z" />
    <glyph glyph-name="tildecomb" unicode="&#x303;" horiz-adv-x="430" 
d="M117 777h-72c-9 86 29 141 92 141c66 0 100 -59 142 -59c25 0 35 23 35 59h72c8 -95 -31 -141 -95 -141c-69 0 -104 59 -140 59c-24 0 -34 -22 -34 -59z" />
    <glyph glyph-name="macroncomb" unicode="&#x304;" horiz-adv-x="388" 
d="M60 806v85h268v-85h-268z" />
    <glyph glyph-name="commaturnedabovecomb" unicode="&#x312;" horiz-adv-x="212" 
d="M171 840c0 -36 -26 -61 -63 -61c-40 0 -67 30 -67 78c0 71 45 121 121 113v-41c-44 4 -66 -9 -68 -38c6 4 14 5 22 5c33 0 55 -25 55 -56z" />
    <glyph glyph-name="commaaccentcomb" unicode="&#x326;" horiz-adv-x="212" 
d="M170 -104c0 -70 -45 -121 -121 -112v41c44 -5 66 9 68 38c-6 -4 -14 -5 -22 -5c-32 0 -55 24 -55 56c0 36 26 61 63 61c40 0 67 -31 67 -79z" />
    <glyph glyph-name="cedillacomb" unicode="&#x327;" horiz-adv-x="259" 
d="M33 -196v56c23 -11 42 -18 67 -18c34 0 52 15 52 38c0 22 -16 34 -42 34c-20 0 -33 -3 -49 -9l-13 34l48 99l37 -1v-31l-27 -52c10 3 21 5 33 5c39 0 80 -23 80 -78c0 -62 -50 -94 -112 -94c-32 0 -54 6 -74 17z" />
    <glyph glyph-name="slashlongcomb" unicode="&#x338;" horiz-adv-x="552" 
d="M512 545l-362 -588h-110l366 588h106z" />
    <glyph glyph-name="acute" unicode="&#xb4;" horiz-adv-x="277" 
d="M230 917l-98 -148h-90l75 148h113z" />
    <glyph glyph-name="breve" unicode="&#x2d8;" horiz-adv-x="421" 
d="M278 919h89c0 -97 -61 -158 -156 -158c-97 0 -157 61 -157 158h89c0 -48 24 -75 68 -75c43 0 67 28 67 75z" />
    <glyph glyph-name="caron" unicode="&#x2c7;" horiz-adv-x="386" 
d="M130 769l-90 156h96l57 -99l57 99h96l-91 -156h-125z" />
    <glyph glyph-name="cedilla" unicode="&#xb8;" horiz-adv-x="259" 
d="M33 -196v56c23 -11 42 -18 67 -18c34 0 52 15 52 38c0 22 -16 34 -42 34c-20 0 -33 -3 -49 -9l-13 34l48 99l37 -1v-31l-27 -52c10 3 21 5 33 5c39 0 80 -23 80 -78c0 -62 -50 -94 -112 -94c-32 0 -54 6 -74 17z" />
    <glyph glyph-name="circumflex" unicode="&#x2c6;" horiz-adv-x="386" 
d="M136 769h-96l90 156h125l91 -156h-96l-57 99z" />
    <glyph glyph-name="dieresis" unicode="&#xa8;" horiz-adv-x="422" 
d="M122 781c-37 0 -66 30 -66 67c0 36 30 67 66 67s67 -31 67 -67c0 -37 -31 -67 -67 -67zM300 781c-37 0 -66 30 -66 67c0 36 30 67 66 67s67 -31 67 -67c0 -37 -31 -67 -67 -67z" />
    <glyph glyph-name="dotaccent" unicode="&#x2d9;" horiz-adv-x="226" 
d="M113 781c-39 0 -70 31 -70 70c0 38 32 70 70 70s70 -33 70 -70c0 -38 -32 -70 -70 -70z" />
    <glyph glyph-name="grave" unicode="`" horiz-adv-x="276" 
d="M235 769h-91l-97 149h113z" />
    <glyph glyph-name="hungarumlaut" unicode="&#x2dd;" horiz-adv-x="439" 
d="M224 917l-97 -148h-86l81 148h102zM378 917l-102 -148h-87l86 148h103z" />
    <glyph glyph-name="macron" unicode="&#xaf;" horiz-adv-x="388" 
d="M60 806v85h268v-85h-268z" />
    <glyph glyph-name="ogonek" unicode="&#x2db;" horiz-adv-x="234" 
d="M123 0h75c-50 -18 -71 -49 -71 -75c0 -22 15 -37 39 -37c8 0 17 2 27 6v-81c-15 -7 -32 -9 -50 -9c-61 0 -99 42 -99 93c0 41 25 82 79 103z" />
    <glyph glyph-name="ring" unicode="&#x2da;" horiz-adv-x="333" 
d="M166 757c-74 0 -128 53 -128 127c0 73 56 128 128 128c73 0 129 -56 129 -128s-55 -127 -129 -127zM166 823c36 0 59 25 59 63c0 35 -24 60 -59 60c-34 0 -58 -24 -58 -60c0 -38 23 -63 58 -63z" />
    <glyph glyph-name="tilde" unicode="&#x2dc;" horiz-adv-x="430" 
d="M117 777h-72c-9 86 29 141 92 141c66 0 100 -59 142 -59c25 0 35 23 35 59h72c8 -95 -31 -141 -95 -141c-69 0 -104 59 -140 59c-24 0 -34 -22 -34 -59z" />
    <glyph glyph-name="bracketleftsuperior" horiz-adv-x="222" 
d="M119 283h98v-64h-174v659h174v-64h-98v-531z" />
    <glyph glyph-name="bracketrightsuperior" horiz-adv-x="222" 
d="M103 814h-98v64h174v-659h-174v64h98v531z" />
    <glyph glyph-name="ITF" unicode="&#xf8ff;" horiz-adv-x="1739" 
d="M75 0v700h216v-700h-216zM336 496v204h216v-204h-216zM596 0v700h217v-700h-217zM857 496v204h216v-204h-216zM1117 0v700h217v-700h-217zM1378 496v204h216v-204h-216zM1378 247v205h216v-205h-216z" />
    <glyph glyph-name="Gbreve.ss01" horiz-adv-x="776" 
d="M448 933h88c0 -96 -61 -157 -155 -157c-97 0 -157 60 -157 157h88c0 -48 25 -75 69 -75c43 0 67 28 67 75zM39 364c0 222 143 380 361 380c170 0 295 -87 328 -249h-135c-29 86 -99 130 -194 130c-136 0 -225 -101 -225 -261c0 -166 90 -256 222 -256
c113 0 195 62 202 176h-216v112h350v-82c0 -174 -126 -326 -337 -326c-212 0 -356 147 -356 376z" />
    <glyph glyph-name="Gcircumflex.ss01" horiz-adv-x="776" 
d="M323 784h-96l90 155h125l90 -155h-95l-57 98zM39 364c0 222 143 380 361 380c170 0 295 -87 328 -249h-135c-29 86 -99 130 -194 130c-136 0 -225 -101 -225 -261c0 -166 90 -256 222 -256c113 0 195 62 202 176h-216v112h350v-82c0 -174 -126 -326 -337 -326
c-212 0 -356 147 -356 376z" />
    <glyph glyph-name="Gcommaaccent.ss01" horiz-adv-x="776" 
d="M39 364c0 222 143 380 361 380c170 0 295 -87 328 -249h-135c-29 86 -99 130 -194 130c-136 0 -225 -101 -225 -261c0 -166 90 -256 222 -256c113 0 195 62 202 176h-216v112h350v-82c0 -174 -126 -326 -337 -326c-212 0 -356 147 -356 376zM467 -113
c0 -70 -45 -121 -120 -112v40c44 -4 66 9 68 39c-6 -4 -14 -6 -23 -6c-32 0 -55 25 -55 57c0 36 26 60 63 60c41 0 67 -30 67 -78z" />
    <glyph glyph-name="Gdotaccent.ss01" horiz-adv-x="776" 
d="M379 795c-38 0 -69 31 -69 70c0 38 31 70 69 70s70 -32 70 -70s-32 -70 -70 -70zM39 364c0 222 143 380 361 380c170 0 295 -87 328 -249h-135c-29 86 -99 130 -194 130c-136 0 -225 -101 -225 -261c0 -166 90 -256 222 -256c113 0 195 62 202 176h-216v112h350v-82
c0 -174 -126 -326 -337 -326c-212 0 -356 147 -356 376z" />
    <glyph glyph-name="Q.ss04" horiz-adv-x="786" 
d="M657 -132l-253 120h-12c-209 0 -353 155 -353 378c0 222 145 378 354 378s355 -155 355 -378c0 -151 -68 -272 -178 -334l132 -62zM613 366c0 156 -86 255 -220 255s-220 -99 -220 -255s86 -255 220 -255s220 101 220 255z" />
    <glyph glyph-name="dotlessi" unicode="&#x131;" horiz-adv-x="248" 
d="M63 0v494h122v-494h-122z" />
    <glyph glyph-name="dotlessj" unicode="&#x237;" horiz-adv-x="248" 
d="M-55 -232l20 108c17 -5 27 -6 42 -6c42 0 56 24 56 74v550h122v-564c0 -105 -60 -173 -167 -173c-23 0 -41 2 -73 11z" />
    <glyph glyph-name="aacute.ss01" horiz-adv-x="620" 
d="M441 705l-98 -148h-90l75 148h113zM446 494h111v-494h-114l-8 77c-31 -51 -90 -90 -170 -90c-147 0 -231 112 -231 266c0 155 93 256 232 256c74 0 143 -32 173 -91zM433 247c0 89 -54 151 -139 151s-138 -63 -138 -151s52 -150 137 -150s140 61 140 150z" />
    <glyph glyph-name="abreve.ss01" horiz-adv-x="620" 
d="M366 707h88c0 -97 -61 -158 -156 -158c-97 0 -157 60 -157 158h89c0 -48 24 -75 68 -75c43 0 68 27 68 75zM446 494h111v-494h-114l-8 77c-31 -51 -90 -90 -170 -90c-147 0 -231 112 -231 266c0 155 93 256 232 256c74 0 143 -32 173 -91zM433 247c0 89 -54 151 -139 151
s-138 -63 -138 -151s52 -150 137 -150s140 61 140 150z" />
    <glyph glyph-name="acircumflex.ss01" horiz-adv-x="620" 
d="M240 557h-95l90 155h125l90 -155h-96l-57 99zM446 494h111v-494h-114l-8 77c-31 -51 -90 -90 -170 -90c-147 0 -231 112 -231 266c0 155 93 256 232 256c74 0 143 -32 173 -91zM433 247c0 89 -54 151 -139 151s-138 -63 -138 -151s52 -150 137 -150s140 61 140 150z" />
    <glyph glyph-name="adieresis.ss01" horiz-adv-x="620" 
d="M208 569c-37 0 -66 29 -66 67c0 36 30 66 66 66s67 -31 67 -66c0 -37 -31 -67 -67 -67zM387 569c-37 0 -67 29 -67 67c0 36 30 66 67 66c36 0 66 -31 66 -66c0 -37 -30 -67 -66 -67zM446 494h111v-494h-114l-8 77c-31 -51 -90 -90 -170 -90c-147 0 -231 112 -231 266
c0 155 93 256 232 256c74 0 143 -32 173 -91zM433 247c0 89 -54 151 -139 151s-138 -63 -138 -151s52 -150 137 -150s140 61 140 150z" />
    <glyph glyph-name="agrave.ss01" horiz-adv-x="620" 
d="M341 557h-90l-97 148h113zM446 494h111v-494h-114l-8 77c-31 -51 -90 -90 -170 -90c-147 0 -231 112 -231 266c0 155 93 256 232 256c74 0 143 -32 173 -91zM433 247c0 89 -54 151 -139 151s-138 -63 -138 -151s52 -150 137 -150s140 61 140 150z" />
    <glyph glyph-name="amacron.ss01" horiz-adv-x="620" 
d="M164 594v85h267v-85h-267zM446 494h111v-494h-114l-8 77c-31 -51 -90 -90 -170 -90c-147 0 -231 112 -231 266c0 155 93 256 232 256c74 0 143 -32 173 -91zM433 247c0 89 -54 151 -139 151s-138 -63 -138 -151s52 -150 137 -150s140 61 140 150z" />
    <glyph glyph-name="aogonek.ss01" horiz-adv-x="620" 
d="M481 0h-38l-8 77c-31 -51 -90 -90 -170 -90c-147 0 -231 112 -231 266c0 155 93 256 232 256c74 0 143 -32 173 -91l7 76h111v-494h-1c-50 -18 -71 -49 -71 -75c0 -22 15 -37 39 -37c8 0 17 2 27 6v-81c-15 -7 -32 -9 -50 -9c-61 0 -99 42 -99 93c0 41 25 82 79 103z
M433 247c0 89 -54 151 -139 151s-138 -63 -138 -151s52 -150 137 -150s140 61 140 150z" />
    <glyph glyph-name="aring.ss01" horiz-adv-x="620" 
d="M297 545c-74 0 -128 53 -128 127c0 72 56 128 128 128c73 0 129 -56 129 -128s-55 -127 -129 -127zM297 611c36 0 59 25 59 62c0 35 -24 61 -59 61c-34 0 -58 -25 -58 -61c0 -37 23 -62 58 -62zM446 494h111v-494h-114l-8 77c-31 -51 -90 -90 -170 -90
c-147 0 -231 112 -231 266c0 155 93 256 232 256c74 0 143 -32 173 -91zM433 247c0 89 -54 151 -139 151s-138 -63 -138 -151s52 -150 137 -150s140 61 140 150z" />
    <glyph glyph-name="aringacute.ss01" horiz-adv-x="620" 
d="M406 846l-92 -132h-84l70 132h106zM446 494h111v-494h-114l-8 77c-31 -51 -90 -90 -170 -90c-147 0 -231 112 -231 266c0 115 51 200 135 237c-17 21 -27 49 -27 80c0 72 56 128 129 128s128 -56 128 -128c0 -33 -11 -62 -31 -84c31 -15 56 -38 71 -68zM271 509
c35 0 58 25 58 62c0 35 -24 61 -58 61c-35 0 -59 -25 -59 -61c0 -37 23 -62 59 -62zM433 247c0 89 -54 151 -139 151s-138 -63 -138 -151s52 -150 137 -150s140 61 140 150z" />
    <glyph glyph-name="atilde.ss01" horiz-adv-x="620" 
d="M199 565l-72 -1c-9 86 28 141 92 141c66 0 100 -59 142 -59c25 0 35 23 35 59h72c8 -94 -31 -141 -95 -141c-69 0 -104 59 -140 59c-24 0 -34 -21 -34 -58zM446 494h111v-494h-114l-8 77c-31 -51 -90 -90 -170 -90c-147 0 -231 112 -231 266c0 155 93 256 232 256
c74 0 143 -32 173 -91zM433 247c0 89 -54 151 -139 151s-138 -63 -138 -151s52 -150 137 -150s140 61 140 150z" />
    <glyph glyph-name="gbreve.ss02" horiz-adv-x="553" 
d="M351 703h88c0 -97 -61 -158 -156 -158c-97 0 -157 61 -157 158h89c0 -48 24 -75 68 -75s68 28 68 75zM49 309c0 117 91 200 219 200c41 0 87 -10 122 -27c21 46 68 74 123 74c7 0 14 0 20 -1v-99c-8 1 -14 1 -20 1c-29 0 -53 -10 -67 -29c30 -29 49 -75 49 -123
c0 -113 -88 -189 -221 -189c-35 0 -67 5 -95 15c-28 -2 -44 -15 -44 -37c0 -26 20 -38 62 -38h154c122 0 184 -46 184 -136c0 -106 -98 -164 -277 -164c-167 0 -238 37 -238 122c0 44 30 80 77 95c-40 16 -62 47 -62 89c0 49 30 85 84 100c-44 34 -70 85 -70 147zM167 312
c0 -60 42 -99 106 -99c62 0 104 39 104 98c0 60 -43 101 -105 101s-105 -41 -105 -100zM120 -88c0 -41 37 -57 142 -57c104 0 154 20 154 62c0 31 -20 43 -69 43h-166c-40 0 -61 -17 -61 -48z" />
    <glyph glyph-name="gcircumflex.ss02" horiz-adv-x="553" 
d="M225 553h-95l90 156h125l90 -156h-95l-57 99zM49 309c0 117 91 200 219 200c41 0 87 -10 122 -27c21 46 68 74 123 74c7 0 14 0 20 -1v-99c-8 1 -14 1 -20 1c-29 0 -53 -10 -67 -29c30 -29 49 -75 49 -123c0 -113 -88 -189 -221 -189c-35 0 -67 5 -95 15
c-28 -2 -44 -15 -44 -37c0 -26 20 -38 62 -38h154c122 0 184 -46 184 -136c0 -106 -98 -164 -277 -164c-167 0 -238 37 -238 122c0 44 30 80 77 95c-40 16 -62 47 -62 89c0 49 30 85 84 100c-44 34 -70 85 -70 147zM167 312c0 -60 42 -99 106 -99c62 0 104 39 104 98
c0 60 -43 101 -105 101s-105 -41 -105 -100zM120 -88c0 -41 37 -57 142 -57c104 0 154 20 154 62c0 31 -20 43 -69 43h-166c-40 0 -61 -17 -61 -48z" />
    <glyph glyph-name="gcommaaccent.ss02" horiz-adv-x="553" 
d="M341 624c0 -36 -25 -61 -63 -61c-40 0 -66 30 -66 78c0 71 45 121 120 113v-41c-43 4 -66 -9 -68 -38c6 3 14 5 23 5c32 0 54 -25 54 -56zM49 309c0 117 91 200 219 200c41 0 87 -10 122 -27c21 46 68 74 123 74c7 0 14 0 20 -1v-99c-8 1 -14 1 -20 1
c-29 0 -53 -10 -67 -29c30 -29 49 -75 49 -123c0 -113 -88 -189 -221 -189c-35 0 -67 5 -95 15c-28 -2 -44 -15 -44 -37c0 -26 20 -38 62 -38h154c122 0 184 -46 184 -136c0 -106 -98 -164 -277 -164c-167 0 -238 37 -238 122c0 44 30 80 77 95c-40 16 -62 47 -62 89
c0 49 30 85 84 100c-44 34 -70 85 -70 147zM167 312c0 -60 42 -99 106 -99c62 0 104 39 104 98c0 60 -43 101 -105 101s-105 -41 -105 -100zM120 -88c0 -41 37 -57 142 -57c104 0 154 20 154 62c0 31 -20 43 -69 43h-166c-40 0 -61 -17 -61 -48z" />
    <glyph glyph-name="gdotaccent.ss02" horiz-adv-x="553" 
d="M282 565c-39 0 -69 31 -69 70c0 38 31 70 69 70s70 -33 70 -70c0 -38 -32 -70 -70 -70zM49 309c0 117 91 200 219 200c41 0 87 -10 122 -27c21 46 68 74 123 74c7 0 14 0 20 -1v-99c-8 1 -14 1 -20 1c-29 0 -53 -10 -67 -29c30 -29 49 -75 49 -123
c0 -113 -88 -189 -221 -189c-35 0 -67 5 -95 15c-28 -2 -44 -15 -44 -37c0 -26 20 -38 62 -38h154c122 0 184 -46 184 -136c0 -106 -98 -164 -277 -164c-167 0 -238 37 -238 122c0 44 30 80 77 95c-40 16 -62 47 -62 89c0 49 30 85 84 100c-44 34 -70 85 -70 147zM167 312
c0 -60 42 -99 106 -99c62 0 104 39 104 98c0 60 -43 101 -105 101s-105 -41 -105 -100zM120 -88c0 -41 37 -57 142 -57c104 0 154 20 154 62c0 31 -20 43 -69 43h-166c-40 0 -61 -17 -61 -48z" />
    <glyph glyph-name="tbar.ss03" horiz-adv-x="351" 
d="M28 303h62v89h-76v102h76v154h121v-154h113v-102h-113v-89h81v-94h-81v-33c0 -59 26 -79 63 -79c14 0 31 3 49 9l14 -99c-27 -12 -59 -18 -94 -18c-94 0 -153 48 -153 166v54h-62v94z" />
    <glyph glyph-name="tcaron.ss03" horiz-adv-x="355" 
d="M258 550v181h101l-27 -181h-74zM323 106l14 -99c-27 -12 -59 -18 -94 -18c-94 0 -153 48 -153 166v237h-76v102h76v154h121v-154h113v-102h-113v-216c0 -59 26 -79 63 -79c14 0 31 3 49 9z" />
    <glyph glyph-name="tcedilla.ss03" horiz-adv-x="355" 
d="M156 -196v56c22 -11 42 -18 67 -18c34 0 52 15 52 38c0 22 -16 34 -43 34c-19 0 -32 -3 -49 -9l-12 34l26 54c-67 15 -107 64 -107 162v237h-76v102h76v154h121v-154h113v-102h-113v-216c0 -59 26 -79 63 -79c14 0 31 3 49 9l14 -99c-27 -12 -59 -18 -90 -18l-18 -35
c10 3 21 5 33 5c39 0 80 -23 80 -78c0 -62 -51 -94 -112 -94c-32 0 -54 6 -74 17z" />
    <glyph glyph-name="tcommaaccent.ss03" horiz-adv-x="355" 
d="M323 106l14 -99c-27 -12 -59 -18 -94 -18c-94 0 -153 48 -153 166v237h-76v102h76v154h121v-154h113v-102h-113v-216c0 -59 26 -79 63 -79c14 0 31 3 49 9zM291 -113c0 -70 -45 -121 -121 -112v40c44 -4 67 9 69 39c-7 -4 -15 -6 -23 -6c-33 0 -55 25 -55 57
c0 36 26 60 63 60c40 0 67 -30 67 -78z" />
    <glyph glyph-name="caroncomb.alt" horiz-adv-x="569" 
d="M307 550v181h101l-26 -181h-75z" />
    <glyph glyph-name="strokeshortcomb" unicode="&#x335;" horiz-adv-x="582" 
d="M28 644h342v-74h-342v74z" />
    <glyph glyph-name="slashshortcomb" unicode="&#x337;" horiz-adv-x="267" 
d="M20 302v88l231 110v-88z" />
    <glyph glyph-name="strokeshortcomb.case" horiz-adv-x="384" 
d="M20 313v105h344v-105h-344z" />
    <glyph glyph-name="strokelongcomb.case" horiz-adv-x="767" 
d="M15 534v108h738v-108h-738z" />
    <glyph glyph-name="slashshortcomb.case" horiz-adv-x="377" 
d="M20 288v99l337 161v-99z" />
    <glyph glyph-name="slashlongcomb.case" horiz-adv-x="552" 
d="M612 731l-550 -731h-122l554 731h118z" />
    <glyph glyph-name="dotaccentcomb.i" horiz-adv-x="226" 
d="M112 809c-41 0 -74 33 -74 74s33 73 74 73c40 0 73 -32 73 -73s-33 -74 -73 -74z" />
    </font>
</defs>
</svg>
